{
classes = (
{
automatic = 1;
code = "A Aacute Abreve Acircumflex Adieresis Agrave Amacron Aogonek Aring Atilde AE B C Cacute Ccaron Ccedilla Ccircumflex Cdotaccent D Eth Dcaron Dcroat E E.alt Eacute Ebreve Ecaron Ecircumflex Edieresis Edotaccent Egrave Emacron Eogonek F F.alt G Gbreve Gcircumflex Gcommaaccent Gdotaccent H Hbar Hcircumflex I IJ Iacute Ibreve Icircumflex Idieresis Idotaccent Igrave Imacron Iogonek Itilde J Jcircumflex K Kcommaaccent L Lacute Lcaron Lcommaaccent Ldot Lslash M N Nacute Ncaron Ncommaaccent Eng Ntilde O Oacute Obreve Ocircumflex Odieresis Ograve Ohungarumlaut Omacron Oslash Otilde OE P Thorn Q Q.alt R Racute Rcaron Rcommaaccent S Sacute Scaron Scedilla Scircumflex Scommaaccent T Tbar Tcaron Tcedilla Tcommaaccent U Uacute Ubreve Ucircumflex Udieresis Ugrave Uhungarumlaut Umacron Uogonek Uring Utilde V W Wacute Wcircumflex Wdieresis Wgrave X Y Yacute Ycircumflex Ydieresis Ygrave Z Zacute Zcaron Zdotaccent Delta";
name = Uppercase;
}
);
copyright = "Copyright (c) 2014 Quote-Unquote Apps.";
customParameters = (
{
name = openTypeNameLicenseURL;
value = "http://scripts.sil.org/OFL";
},
{
name = openTypeNameLicense;

glyphs = (
{
color = 4;
glyphname = A;
lastChange = "2014-11-13 04:54:09 -0700";
layers = (
{
layerId = UUID0;
name = Regular;
paths = (
{
closed = 1;
nodes = (
"273 1187 LINE SMOOTH",
"228 1187 OFFCURVE",
"210 1169 OFFCURVE",
"210 1119 CURVE SMOOTH",
"210 1069 OFFCURVE",
"228 1051 OFFCURVE",
"273 1051 CURVE SMOOTH",
"460 1051 LINE",
"129 136 LINE",
"73 136 LINE SMOOTH",
"28 136 OFFCURVE",
"10 118 OFFCURVE",
"10 68 CURVE SMOOTH",
"10 18 OFFCURVE",
"28 0 OFFCURVE",
"73 0 CURVE SMOOTH",
"407 0 LINE SMOOTH",
"452 0 OFFCURVE",
"470 18 OFFCURVE",
"470 68 CURVE SMOOTH",
"470 118 OFFCURVE",
"452 136 OFFCURVE",
"407 136 CURVE SMOOTH",
"286 136 LINE",
"369 374 LINE",
"854 374 LINE",
"936 136 LINE",
"801 136 LINE SMOOTH",
"756 136 OFFCURVE",
"738 118 OFFCURVE",
"738 68 CURVE SMOOTH",
"738 18 OFFCURVE",
"756 0 OFFCURVE",
"801 0 CURVE SMOOTH",
"1155 0 LINE SMOOTH",
"1200 0 OFFCURVE",
"1218 18 OFFCURVE",
"1218 68 CURVE SMOOTH",
"1218 118 OFFCURVE",
"1200 136 OFFCURVE",
"1155 136 CURVE SMOOTH",
"1094 136 LINE",
"741 1122 LINE SMOOTH",
"725 1168 OFFCURVE",
"693 1187 OFFCURVE",
"640 1187 CURVE SMOOTH"
);
},
{
closed = 1;
nodes = (
"808 510 LINE",
"416 510 LINE",
"603 1051 LINE",
"622 1051 LINE"
);
}
);
width = 1228;
},
{
layerId = "8538028E-5D6C-4318-9676-30148CDA39CA";
name = Bold;
paths = (
{
closed = 1;
nodes = (
"223 1187 LINE SMOOTH",
"178 1187 OFFCURVE",
"160 1170 OFFCURVE",
"160 1085 CURVE SMOOTH",
"160 1000 OFFCURVE",
"178 982 OFFCURVE",
"223 982 CURVE SMOOTH",
"390 982 LINE",
"137 205 LINE",
"53 205 LINE SMOOTH",
"8 205 OFFCURVE",
"-10 188 OFFCURVE",
"-10 103 CURVE SMOOTH",
"-10 18 OFFCURVE",
"8 0 OFFCURVE",
"53 0 CURVE SMOOTH",
"457 0 LINE SMOOTH",
"502 0 OFFCURVE",
"520 18 OFFCURVE",
"520 103 CURVE SMOOTH",
"520 188 OFFCURVE",
"502 205 OFFCURVE",
"457 205 CURVE SMOOTH",
"383 205 LINE",
"428 350 LINE",
"792 350 LINE",
"837 205 LINE",
"751 205 LINE SMOOTH",
"706 205 OFFCURVE",
"688 188 OFFCURVE",
"688 103 CURVE SMOOTH",
"688 18 OFFCURVE",
"706 0 OFFCURVE",
"751 0 CURVE SMOOTH",
"1175 0 LINE SMOOTH",
"1220 0 OFFCURVE",
"1238 18 OFFCURVE",
"1238 103 CURVE SMOOTH",
"1238 188 OFFCURVE",
"1220 205 OFFCURVE",
"1175 205 CURVE SMOOTH",
"1088 205 LINE",
"798 1122 LINE SMOOTH",
"783 1168 OFFCURVE",
"750 1187 OFFCURVE",
"697 1187 CURVE SMOOTH"
);
},
{
closed = 1;
nodes = (
"735 555 LINE",
"486 555 LINE",
"609 982 LINE",
"615 982 LINE"
);
}
);
width = 1228;
}
);
unicode = 0041;
},
{
glyphname = Aogonek;
lastChange = "2014-11-13 04:54:09 -0700";
layers = (
{
background = {
paths = (
{
closed = 1;
nodes = (
"286 136 LINE",
"369 374 LINE",
"854 374 LINE",
"936 136 LINE",
"801 136 LINE SMOOTH",
"756 136 OFFCURVE",
"738 118 OFFCURVE",
"738 68 CURVE SMOOTH",
"738 18 OFFCURVE",
"756 0 OFFCURVE",
"801 0 CURVE SMOOTH",
"935 0 LINE",
"835 -88 OFFCURVE",
"771 -179 OFFCURVE",
"771 -281 CURVE SMOOTH",
"771 -397 OFFCURVE",
"847 -472 OFFCURVE",
"971 -472 CURVE SMOOTH",
"1033 -472 OFFCURVE",
"1089 -462 OFFCURVE",
"1135 -446 CURVE SMOOTH",
"1164 -436 OFFCURVE",
"1173 -415 OFFCURVE",
"1167 -374 CURVE SMOOTH",
"1162 -337 OFFCURVE",
"1143 -322 OFFCURVE",
"1117 -326 CURVE SMOOTH",
"1082 -332 OFFCURVE",
"1043 -336 OFFCURVE",
"1004 -336 CURVE SMOOTH",
"959 -336 OFFCURVE",
"927 -310 OFFCURVE",
"927 -261 CURVE SMOOTH",
"927 -188 OFFCURVE",
"974 -110 OFFCURVE",
"1093 0 CURVE",
"1155 0 LINE SMOOTH",
"1200 0 OFFCURVE",
"1218 18 OFFCURVE",
"1218 68 CURVE SMOOTH",
"1218 118 OFFCURVE",
"1200 136 OFFCURVE",
"1155 136 CURVE SMOOTH",
"1094 136 LINE",
"741 1122 LINE SMOOTH",
"725 1168 OFFCURVE",
"693 1187 OFFCURVE",
"640 1187 CURVE SMOOTH",
"273 1187 LINE SMOOTH",
"228 1187 OFFCURVE",
"210 1169 OFFCURVE",
"210 1119 CURVE SMOOTH",
"210 1069 OFFCURVE",
"228 1051 OFFCURVE",
"273 1051 CURVE SMOOTH",
"460 1051 LINE",
"129 136 LINE",
"73 136 LINE SMOOTH",
"28 136 OFFCURVE",
"10 118 OFFCURVE",
"10 68 CURVE SMOOTH",
"10 18 OFFCURVE",
"28 0 OFFCURVE",
"73 0 CURVE SMOOTH",
"407 0 LINE SMOOTH",
"452 0 OFFCURVE",
"470 18 OFFCURVE",
"470 68 CURVE SMOOTH",
"470 118 OFFCURVE",
"452 136 OFFCURVE",
"407 136 CURVE SMOOTH"
);
},
{
closed = 1;
nodes = (
"603 1051 LINE",
"622 1051 LINE",
"808 510 LINE",
"416 510 LINE"
);
}
);
};
components = (
{
name = A;
transform = "{1, 0, 0, 1, 0, 0}";
},
{
name = ogonek;
transform = "{1, 0, 0, 1, 360, 0}";
}
);
layerId = UUID0;
name = Regular;
width = 1228;
},
{
background = {
paths = (
{
closed = 1;
nodes = (
"137 205 LINE",
"53 205 LINE SMOOTH",
"8 205 OFFCURVE",
"-10 188 OFFCURVE",
"-10 103 CURVE SMOOTH",
"-10 18 OFFCURVE",
"8 0 OFFCURVE",
"53 0 CURVE SMOOTH",
"457 0 LINE SMOOTH",
"502 0 OFFCURVE",
"520 18 OFFCURVE",
"520 103 CURVE SMOOTH",
"520 188 OFFCURVE",
"502 205 OFFCURVE",
"457 205 CURVE SMOOTH",
"383 205 LINE",
"428 350 LINE",
"792 350 LINE",
"837 205 LINE",
"751 205 LINE SMOOTH",
"706 205 OFFCURVE",
"688 188 OFFCURVE",
"688 103 CURVE SMOOTH",
"688 18 OFFCURVE",
"706 0 OFFCURVE",
"751 0 CURVE SMOOTH",
"874 0 LINE",
"768 -72 OFFCURVE",
"689 -154 OFFCURVE",
"689 -269 CURVE SMOOTH",
"689 -402 OFFCURVE",
"779 -472 OFFCURVE",
"935 -472 CURVE SMOOTH",
"1008 -472 OFFCURVE",
"1084 -459 OFFCURVE",
"1151 -438 CURVE SMOOTH",
"1179 -429 OFFCURVE",
"1192 -399 OFFCURVE",
"1188 -353 CURVE SMOOTH",
"1184 -307 OFFCURVE",
"1166 -281 OFFCURVE",
"1140 -285 CURVE SMOOTH",
"1097 -292 OFFCURVE",
"1059 -298 OFFCURVE",
"1020 -298 CURVE SMOOTH",
"963 -298 OFFCURVE",
"932 -278 OFFCURVE",
"932 -231 CURVE SMOOTH",
"932 -163 OFFCURVE",
"993 -84 OFFCURVE",
"1091 0 CURVE",
"1175 0 LINE SMOOTH",
"1220 0 OFFCURVE",
"1238 18 OFFCURVE",
"1238 103 CURVE SMOOTH",
"1238 188 OFFCURVE",
"1220 205 OFFCURVE",
"1175 205 CURVE SMOOTH",
"1088 205 LINE",
"798 1122 LINE SMOOTH",
"783 1168 OFFCURVE",
"750 1187 OFFCURVE",
"697 1187 CURVE SMOOTH",
"223 1187 LINE SMOOTH",
"178 1187 OFFCURVE",
"160 1170 OFFCURVE",
"160 1085 CURVE SMOOTH",
"160 1000 OFFCURVE",
"178 982 OFFCURVE",
"223 982 CURVE SMOOTH",
"390 982 LINE"
);
},
{
closed = 1;
nodes = (
"486 555 LINE",
"609 982 LINE",
"615 982 LINE",
"735 555 LINE"
);
}
);
};
components = (
{
name = A;
transform = "{1, 0, 0, 1, 0, 0}";
},
{
name = ogonek;
transform = "{1, 0, 0, 1, 340, 0}";
}
);
layerId = "8538028E-5D6C-4318-9676-30148CDA39CA";
name = Bold;
width = 1228;
}
);
unicode = 0104;
},
{
glyphname = AE;
lastChange = "2014-11-13 04:54:09 -0700";
layers = (
{
layerId = UUID0;
name = Regular;
paths = (
{
closed = 1;
nodes = (
"294 1187 LINE SMOOTH",
"249 1187 OFFCURVE",
"231 1169 OFFCURVE",
"231 1119 CURVE SMOOTH",
"231 1069 OFFCURVE",
"249 1051 OFFCURVE",
"294 1051 CURVE SMOOTH",
"393 1051 LINE",
"113 136 LINE",
"63 136 LINE SMOOTH",
"18 136 OFFCURVE",
"0 118 OFFCURVE",
"0 68 CURVE SMOOTH",
"0 18 OFFCURVE",
"18 0 OFFCURVE",
"63 0 CURVE SMOOTH",
"357 0 LINE SMOOTH",
"402 0 OFFCURVE",
"420 18 OFFCURVE",
"420 68 CURVE SMOOTH",
"420 118 OFFCURVE",
"402 136 OFFCURVE",
"357 136 CURVE SMOOTH",
"269 136 LINE",
"341 374 LINE",
"566 374 LINE",
"566 68 LINE SMOOTH",
"566 18 OFFCURVE",
"584 0 OFFCURVE",
"629 0 CURVE SMOOTH",
"1075 0 LINE SMOOTH",
"1120 0 OFFCURVE",
"1138 18 OFFCURVE",
"1138 68 CURVE SMOOTH",
"1138 365 LINE SMOOTH",
"1138 411 OFFCURVE",
"1119 430 OFFCURVE",
"1063 430 CURVE SMOOTH",
"1007 430 OFFCURVE",
"988 411 OFFCURVE",
"988 365 CURVE SMOOTH",
"988 136 LINE",
"716 136 LINE",
"716 549 LINE",
"908 549 LINE SMOOTH",
"953 549 OFFCURVE",
"971 567 OFFCURVE",
"971 617 CURVE SMOOTH",
"971 667 OFFCURVE",
"953 685 OFFCURVE",
"908 685 CURVE SMOOTH",
"716 685 LINE",
"716 1051 LINE",
"976 1051 LINE",
"976 865 LINE SMOOTH",
"976 819 OFFCURVE",
"995 800 OFFCURVE",
"1051 800 CURVE SMOOTH",
"1107 800 OFFCURVE",
"1126 819 OFFCURVE",
"1126 865 CURVE SMOOTH",
"1126 1119 LINE SMOOTH",
"1126 1169 OFFCURVE",
"1108 1187 OFFCURVE",
"1063 1187 CURVE SMOOTH"
);
},
{
closed = 1;
nodes = (
"566 510 LINE",
"382 510 LINE",
"546 1051 LINE",
"566 1051 LINE"
);
}
);
width = 1228;
},
{
layerId = "8538028E-5D6C-4318-9676-30148CDA39CA";
name = Bold;
paths = (
{
closed = 1;
nodes = (
"183 1187 LINE SMOOTH",
"138 1187 OFFCURVE",
"120 1169 OFFCURVE",
"120 1084 CURVE SMOOTH",
"120 999 OFFCURVE",
"138 982 OFFCURVE",
"183 982 CURVE SMOOTH",
"285 982 LINE",
"86 205 LINE",
"33 205 LINE SMOOTH",
"-12 205 OFFCURVE",
"-30 187 OFFCURVE",
"-30 102 CURVE SMOOTH",
"-30 17 OFFCURVE",
"-12 0 OFFCURVE",
"33 0 CURVE SMOOTH",
"357 0 LINE SMOOTH",
"402 0 OFFCURVE",
"420 17 OFFCURVE",
"420 102 CURVE SMOOTH",
"420 187 OFFCURVE",
"402 205 OFFCURVE",
"357 205 CURVE SMOOTH",
"316 205 LINE",
"348 330 LINE",
"550 330 LINE",
"550 65 LINE SMOOTH",
"550 19 OFFCURVE",
"569 0 OFFCURVE",
"615 0 CURVE SMOOTH",
"1115 0 LINE SMOOTH",
"1161 0 OFFCURVE",
"1180 19 OFFCURVE",
"1180 65 CURVE SMOOTH",
"1180 387 LINE SMOOTH",
"1180 432 OFFCURVE",
"1161 450 OFFCURVE",
"1076 450 CURVE SMOOTH",
"991 450 OFFCURVE",
"960 432 OFFCURVE",
"960 387 CURVE SMOOTH",
"960 205 LINE",
"780 205 LINE",
"780 514 LINE",
"894 514 LINE SMOOTH",
"939 514 OFFCURVE",
"957 536 OFFCURVE",
"957 621 CURVE SMOOTH",
"957 706 OFFCURVE",
"939 729 OFFCURVE",
"894 729 CURVE SMOOTH",
"780 729 LINE",
"780 982 LINE",
"950 982 LINE",
"950 850 LINE SMOOTH",
"950 805 OFFCURVE",
"968 787 OFFCURVE",
"1048 787 CURVE SMOOTH",
"1128 787 OFFCURVE",
"1160 805 OFFCURVE",
"1160 850 CURVE SMOOTH",
"1160 1122 LINE SMOOTH",
"1160 1168 OFFCURVE",
"1141 1187 OFFCURVE",
"1095 1187 CURVE SMOOTH"
);
},
{
closed = 1;
nodes = (
"550 545 LINE",
"400 545 LINE",
"503 982 LINE",
"550 982 LINE"
);
}
);
width = 1228;
}
);
unicode = 00C6;
},
{
glyphname = B;
lastChange = "2014-11-13 04:54:09 -0700";
layers = (
{
layerId = UUID0;
name = Regular;
paths = (
{
closed = 1;
nodes = (
"143 1187 LINE SMOOTH",
"98 1187 OFFCURVE",
"80 1169 OFFCURVE",
"80 1119 CURVE SMOOTH",
"80 1069 OFFCURVE",
"98 1051 OFFCURVE",
"143 1051 CURVE SMOOTH",
"265 1051 LINE",
"265 136 LINE",
"143 136 LINE SMOOTH",
"98 136 OFFCURVE",
"80 118 OFFCURVE",
"80 68 CURVE SMOOTH",
"80 18 OFFCURVE",
"98 0 OFFCURVE",
"143 0 CURVE SMOOTH",
"710 0 LINE SMOOTH",
"956 0 OFFCURVE",
"1094 129 OFFCURVE",
"1094 339 CURVE SMOOTH",
"1094 488 OFFCURVE",
"1015 590 OFFCURVE",
"875 635 CURVE",
"958 683 OFFCURVE",
"1008 761 OFFCURVE",
"1008 865 CURVE SMOOTH",
"1008 1058 OFFCURVE",
"883 1187 OFFCURVE",
"644 1187 CURVE SMOOTH"
);
},
{
closed = 1;
nodes = (
"853 545 OFFCURVE",
"936 475 OFFCURVE",
"936 339 CURVE SMOOTH",
"936 210 OFFCURVE",
"845 136 OFFCURVE",
"680 136 CURVE SMOOTH",
"415 136 LINE",
"415 545 LINE",
"685 545 LINE SMOOTH"
);
},
{
closed = 1;
nodes = (
"779 1051 OFFCURVE",
"855 986 OFFCURVE",
"855 865 CURVE SMOOTH",
"855 749 OFFCURVE",
"778 681 OFFCURVE",
"622 681 CURVE SMOOTH",
"415 681 LINE",
"415 1051 LINE",
"622 1051 LINE SMOOTH"
);
}
);
width = 1228;
},
{
layerId = "8538028E-5D6C-4318-9676-30148CDA39CA";
name = Bold;
paths = (
{
closed = 1;
nodes = (
"133 1187 LINE SMOOTH",
"88 1187 OFFCURVE",
"70 1169 OFFCURVE",
"70 1084 CURVE SMOOTH",
"70 999 OFFCURVE",
"88 982 OFFCURVE",
"133 982 CURVE SMOOTH",
"240 982 LINE",
"240 205 LINE",
"133 205 LINE SMOOTH",
"88 205 OFFCURVE",
"70 187 OFFCURVE",
"70 102 CURVE SMOOTH",
"70 17 OFFCURVE",
"88 0 OFFCURVE",
"133 0 CURVE SMOOTH",
"710 0 LINE SMOOTH",
"984 0 OFFCURVE",
"1139 116 OFFCURVE",
"1139 344 CURVE SMOOTH",
"1139 503 OFFCURVE",
"1051 592 OFFCURVE",
"910 630 CURVE",
"1003 675 OFFCURVE",
"1064 751 OFFCURVE",
"1064 864 CURVE SMOOTH",
"1064 1059 OFFCURVE",
"942 1187 OFFCURVE",
"654 1187 CURVE SMOOTH"
);
},
{
closed = 1;
nodes = (
"813 499 OFFCURVE",
"876 453 OFFCURVE",
"876 354 CURVE SMOOTH",
"876 263 OFFCURVE",
"815 215 OFFCURVE",
"682 215 CURVE SMOOTH",
"490 215 LINE",
"490 499 LINE",
"682 499 LINE SMOOTH"
);
},
{
closed = 1;
nodes = (
"755 972 OFFCURVE",
"810 934 OFFCURVE",
"810 844 CURVE SMOOTH",
"810 755 OFFCURVE",
"752 714 OFFCURVE",
"632 714 CURVE SMOOTH",
"490 714 LINE",
"490 972 LINE",
"632 972 LINE SMOOTH"
);
}
);
width = 1228;
}
);
unicode = 0042;
},
{
glyphname = C;
lastChange = "2014-11-13 04:54:09 -0700";
layers = (
{
layerId = UUID0;
name = Regular;
paths = (
{
closed = 1;
nodes = (
"943 1209 OFFCURVE",
"924 1190 OFFCURVE",
"924 1144 CURVE SMOOTH",
"924 1086 LINE",
"859 1163 OFFCURVE",
"763 1209 OFFCURVE",
"634 1209 CURVE SMOOTH",
"329 1209 OFFCURVE",
"118 963 OFFCURVE",
"118 593 CURVE SMOOTH",
"118 223 OFFCURVE",
"319 -22 OFFCURVE",
"634 -22 CURVE SMOOTH",
"786 -22 OFFCURVE",
"936 21 OFFCURVE",
"1062 109 CURVE SMOOTH",
"1097 134 OFFCURVE",
"1103 167 OFFCURVE",
"1075 214 CURVE SMOOTH",
"1046 263 OFFCURVE",
"1012 260 OFFCURVE",
"985 239 CURVE SMOOTH",
"889 165 OFFCURVE",
"766 126 OFFCURVE",
"634 126 CURVE SMOOTH",
"417 126 OFFCURVE",
"276 305 OFFCURVE",
"276 593 CURVE SMOOTH",
"276 881 OFFCURVE",
"427 1061 OFFCURVE",
"644 1061 CURVE SMOOTH",
"837 1061 OFFCURVE",
"924 945 OFFCURVE",
"924 814 CURVE SMOOTH",
"924 768 OFFCURVE",
"943 749 OFFCURVE",
"999 749 CURVE SMOOTH",
"1055 749 OFFCURVE",
"1074 768 OFFCURVE",
"1074 814 CURVE SMOOTH",
"1074 1144 LINE SMOOTH",
"1074 1190 OFFCURVE",
"1055 1209 OFFCURVE",
"999 1209 CURVE SMOOTH"
);
}
);
width = 1228;
},
{
layerId = "8538028E-5D6C-4318-9676-30148CDA39CA";
name = Bold;
paths = (
{
closed = 1;
nodes = (
"921 1209 OFFCURVE",
"884 1191 OFFCURVE",
"884 1146 CURVE SMOOTH",
"884 1083 LINE",
"832 1160 OFFCURVE",
"748 1209 OFFCURVE",
"624 1209 CURVE SMOOTH",
"324 1209 OFFCURVE",
"103 974 OFFCURVE",
"103 594 CURVE SMOOTH",
"103 214 OFFCURVE",
"324 -22 OFFCURVE",
"654 -22 CURVE SMOOTH",
"796 -22 OFFCURVE",
"942 15 OFFCURVE",
"1081 84 CURVE SMOOTH",
"1124 105 OFFCURVE",
"1142 144 OFFCURVE",
"1113 225 CURVE SMOOTH",
"1084 304 OFFCURVE",
"1045 320 OFFCURVE",
"1005 300 CURVE SMOOTH",
"889 241 OFFCURVE",
"787 205 OFFCURVE",
"664 205 CURVE SMOOTH",
"477 205 OFFCURVE",
"371 346 OFFCURVE",
"371 594 CURVE SMOOTH",
"371 842 OFFCURVE",
"467 982 OFFCURVE",
"654 982 CURVE SMOOTH",
"792 982 OFFCURVE",
"864 891 OFFCURVE",
"864 762 CURVE SMOOTH",
"864 717 OFFCURVE",
"887 699 OFFCURVE",
"982 699 CURVE SMOOTH",
"1077 699 OFFCURVE",
"1114 717 OFFCURVE",
"1114 762 CURVE SMOOTH",
"1114 1146 LINE SMOOTH",
"1114 1191 OFFCURVE",
"1091 1209 OFFCURVE",
"1006 1209 CURVE SMOOTH"
);
}
);
width = 1228;
}
);
unicode = 0043;
},
{
glyphname = Ccedilla;
lastChange = "2014-11-13 06:02:38 -0700";
layers = (
{
background = {
paths = (
{
closed = 1;
nodes = (
"943 1209 OFFCURVE",
"924 1190 OFFCURVE",
"924 1144 CURVE SMOOTH",
"924 1086 LINE",
"859 1163 OFFCURVE",
"763 1209 OFFCURVE",
"634 1209 CURVE SMOOTH",
"329 1209 OFFCURVE",
"118 963 OFFCURVE",
"118 593 CURVE SMOOTH",
"118 253 OFFCURVE",
"287 19 OFFCURVE",
"559 -17 CURVE",
"559 -175 LINE SMOOTH",
"559 -213 OFFCURVE",
"580 -218 OFFCURVE",
"599 -217 CURVE SMOOTH",
"691 -210 OFFCURVE",
"744 -229 OFFCURVE",
"744 -285 CURVE SMOOTH",
"744 -327 OFFCURVE",
"707 -352 OFFCURVE",
"641 -352 CURVE SMOOTH",
"574 -352 OFFCURVE",
"500 -338 OFFCURVE",
"448 -318 CURVE SMOOTH",
"423 -308 OFFCURVE",
"400 -330 OFFCURVE",
"389 -356 CURVE SMOOTH",
"378 -382 OFFCURVE",
"380 -413 OFFCURVE",
"404 -424 CURVE SMOOTH",
"473 -456 OFFCURVE",
"562 -472 OFFCURVE",
"651 -472 CURVE SMOOTH",
"818 -472 OFFCURVE",
"900 -393 OFFCURVE",
"900 -281 CURVE SMOOTH",
"900 -187 OFFCURVE",
"832 -110 OFFCURVE",
"694 -113 CURVE",
"694 -19 LINE",
"825 -9 OFFCURVE",
"952 32 OFFCURVE",
"1062 109 CURVE SMOOTH",
"1097 134 OFFCURVE",
"1103 167 OFFCURVE",
"1075 214 CURVE SMOOTH",
"1046 263 OFFCURVE",
"1012 260 OFFCURVE",
"985 239 CURVE SMOOTH",
"889 165 OFFCURVE",
"766 126 OFFCURVE",
"634 126 CURVE SMOOTH",
"417 126 OFFCURVE",
"276 305 OFFCURVE",
"276 593 CURVE SMOOTH",
"276 881 OFFCURVE",
"427 1061 OFFCURVE",
"644 1061 CURVE SMOOTH",
"837 1061 OFFCURVE",
"924 945 OFFCURVE",
"924 814 CURVE SMOOTH",
"924 768 OFFCURVE",
"943 749 OFFCURVE",
"999 749 CURVE SMOOTH",
"1055 749 OFFCURVE",
"1074 768 OFFCURVE",
"1074 814 CURVE SMOOTH",
"1074 1144 LINE SMOOTH",
"1074 1190 OFFCURVE",
"1055 1209 OFFCURVE",
"999 1209 CURVE SMOOTH"
);
}
);
};
layerId = UUID0;
name = Regular;
paths = (
{
closed = 1;
nodes = (
"943 1209 OFFCURVE",
"924 1190 OFFCURVE",
"924 1144 CURVE SMOOTH",
"924 1086 LINE",
"859 1163 OFFCURVE",
"763 1209 OFFCURVE",
"634 1209 CURVE SMOOTH",
"329 1209 OFFCURVE",
"118 963 OFFCURVE",
"118 593 CURVE SMOOTH",
"118 253.281 OFFCURVE",
"287.447 18.9388 OFFCURVE",
"559 -17.1428 CURVE",
"559 -175 LINE SMOOTH",
"559 -213 OFFCURVE",
"580 -218 OFFCURVE",
"599 -217 CURVE SMOOTH",
"691 -210 OFFCURVE",
"744 -229 OFFCURVE",
"744 -285 CURVE SMOOTH",
"744 -327 OFFCURVE",
"707 -352 OFFCURVE",
"641 -352 CURVE SMOOTH",
"574 -352 OFFCURVE",
"500 -338 OFFCURVE",
"448 -318 CURVE SMOOTH",
"423 -308 OFFCURVE",
"400 -330 OFFCURVE",
"389 -356 CURVE SMOOTH",
"378 -382 OFFCURVE",
"380 -413 OFFCURVE",
"404 -424 CURVE SMOOTH",
"473 -456 OFFCURVE",
"562 -472 OFFCURVE",
"651 -472 CURVE SMOOTH",
"818 -472 OFFCURVE",
"900 -393 OFFCURVE",
"900 -281 CURVE SMOOTH",
"900 -187 OFFCURVE",
"832 -110 OFFCURVE",
"694 -113 CURVE",
"694 -19.7502 LINE",
"825.158 -9.87159 OFFCURVE",
"952.622 32.6088 OFFCURVE",
"1062 109 CURVE SMOOTH",
"1097 134 OFFCURVE",
"1103 167 OFFCURVE",
"1075 214 CURVE SMOOTH",
"1046 263 OFFCURVE",
"1012 260 OFFCURVE",
"985 239 CURVE SMOOTH",
"889 165 OFFCURVE",
"766 126 OFFCURVE",
"634 126 CURVE SMOOTH",
"417 126 OFFCURVE",
"276 305 OFFCURVE",
"276 593 CURVE SMOOTH",
"276 881 OFFCURVE",
"427 1061 OFFCURVE",
"644 1061 CURVE SMOOTH",
"837 1061 OFFCURVE",
"924 945 OFFCURVE",
"924 814 CURVE SMOOTH",
"924 768 OFFCURVE",
"943 749 OFFCURVE",
"999 749 CURVE SMOOTH",
"1055 749 OFFCURVE",
"1074 768 OFFCURVE",
"1074 814 CURVE SMOOTH",
"1074 1144 LINE SMOOTH",
"1074 1190 OFFCURVE",
"1055 1209 OFFCURVE",
"999 1209 CURVE SMOOTH"
);
}
);
width = 1228;
},
{
background = {
paths = (
{
closed = 1;
nodes = (
"921 1209 OFFCURVE",
"884 1191 OFFCURVE",
"884 1146 CURVE SMOOTH",
"884 1083 LINE",
"832 1160 OFFCURVE",
"748 1209 OFFCURVE",
"624 1209 CURVE SMOOTH",
"324 1209 OFFCURVE",
"103 974 OFFCURVE",
"103 594 CURVE SMOOTH",
"103 260 OFFCURVE",
"273 37 OFFCURVE",
"539 -11 CURVE",
"539 -180 LINE SMOOTH",
"539 -215 OFFCURVE",
"558 -226 OFFCURVE",
"581 -221 CURVE SMOOTH",
"641 -208 OFFCURVE",
"704 -214 OFFCURVE",
"704 -269 CURVE SMOOTH",
"704 -304 OFFCURVE",
"676 -322 OFFCURVE",
"618 -322 CURVE SMOOTH",
"551 -322 OFFCURVE",
"507 -308 OFFCURVE",
"455 -288 CURVE",
"429 -280 OFFCURVE",
"408 -302 OFFCURVE",
"391 -348 CURVE SMOOTH",
"376 -390 OFFCURVE",
"377 -420 OFFCURVE",
"402 -430 CURVE SMOOTH",
"472 -457 OFFCURVE",
"562 -472 OFFCURVE",
"661 -472 CURVE SMOOTH",
"844 -472 OFFCURVE",
"940 -402 OFFCURVE",
"940 -281 CURVE SMOOTH",
"940 -167 OFFCURVE",
"870 -88 OFFCURVE",
"714 -93 CURVE",
"714 -20 LINE",
"837 -11 OFFCURVE",
"961 24 OFFCURVE",
"1081 84 CURVE SMOOTH",
"1124 105 OFFCURVE",
"1142 144 OFFCURVE",
"1113 225 CURVE SMOOTH",
"1084 304 OFFCURVE",
"1045 320 OFFCURVE",
"1005 300 CURVE SMOOTH",
"889 241 OFFCURVE",
"787 205 OFFCURVE",
"664 205 CURVE SMOOTH",
"477 205 OFFCURVE",
"371 346 OFFCURVE",
"371 594 CURVE SMOOTH",
"371 842 OFFCURVE",
"467 982 OFFCURVE",
"654 982 CURVE SMOOTH",
"792 982 OFFCURVE",
"864 891 OFFCURVE",
"864 762 CURVE SMOOTH",
"864 717 OFFCURVE",
"887 699 OFFCURVE",
"982 699 CURVE SMOOTH",
"1077 699 OFFCURVE",
"1114 717 OFFCURVE",
"1114 762 CURVE SMOOTH",
"1114 1146 LINE SMOOTH",
"1114 1191 OFFCURVE",
"1091 1209 OFFCURVE",
"1006 1209 CURVE SMOOTH"
);
}
);
};
layerId = "8538028E-5D6C-4318-9676-30148CDA39CA";
name = Bold;
paths = (
{
closed = 1;
nodes = (
"921 1209 OFFCURVE",
"884 1191 OFFCURVE",
"884 1146 CURVE SMOOTH",
"884 1083 LINE",
"832 1160 OFFCURVE",
"748 1209 OFFCURVE",
"624 1209 CURVE SMOOTH",
"324 1209 OFFCURVE",
"103 974 OFFCURVE",
"103 594 CURVE SMOOTH",
"103 260.062 OFFCURVE",
"273.67 37.3302 OFFCURVE",
"539 -11.7607 CURVE",
"539 -180 LINE SMOOTH",
"539 -215 OFFCURVE",
"558 -226 OFFCURVE",
"581 -221 CURVE SMOOTH",
"641 -208 OFFCURVE",
"704 -214 OFFCURVE",
"704 -269 CURVE SMOOTH",
"704 -304 OFFCURVE",
"676 -322 OFFCURVE",
"618 -322 CURVE SMOOTH",
"551 -322 OFFCURVE",
"507 -308 OFFCURVE",
"455 -288 CURVE",
"429 -280 OFFCURVE",
"408 -302 OFFCURVE",
"391 -348 CURVE SMOOTH",
"376 -390 OFFCURVE",
"377 -420 OFFCURVE",
"402 -430 CURVE SMOOTH",
"472 -457 OFFCURVE",
"562 -472 OFFCURVE",
"661 -472 CURVE SMOOTH",
"844 -472 OFFCURVE",
"940 -402 OFFCURVE",
"940 -281 CURVE SMOOTH",
"940 -167 OFFCURVE",
"870 -87.9999 OFFCURVE",
"714 -92.9999 CURVE",
"714 -19.8268 LINE",
"836.848 -10.9826 OFFCURVE",
"961.51 24.685 OFFCURVE",
"1081 84 CURVE SMOOTH",
"1124 105 OFFCURVE",
"1142 144 OFFCURVE",
"1113 225 CURVE SMOOTH",
"1084 304 OFFCURVE",
"1045 320 OFFCURVE",
"1005 300 CURVE SMOOTH",
"889 241 OFFCURVE",
"787 205 OFFCURVE",
"664 205 CURVE SMOOTH",
"477 205 OFFCURVE",
"371 346 OFFCURVE",
"371 594 CURVE SMOOTH",
"371 842 OFFCURVE",
"467 982 OFFCURVE",
"654 982 CURVE SMOOTH",
"792 982 OFFCURVE",
"864 891 OFFCURVE",
"864 762 CURVE SMOOTH",
"864 717 OFFCURVE",
"887 699 OFFCURVE",
"982 699 CURVE SMOOTH",
"1077 699 OFFCURVE",
"1114 717 OFFCURVE",
"1114 762 CURVE SMOOTH",
"1114 1146 LINE SMOOTH",
"1114 1191 OFFCURVE",
"1091 1209 OFFCURVE",
"1006 1209 CURVE SMOOTH"
);
}
);
width = 1228;
}
);
unicode = 00C7;
},
{
glyphname = D;
lastChange = "2014-11-13 04:54:09 -0700";
layers = (
{
layerId = UUID0;
name = Regular;
paths = (
{
closed = 1;
nodes = (
"143 1187 LINE SMOOTH",
"98 1187 OFFCURVE",
"80 1169 OFFCURVE",
"80 1119 CURVE SMOOTH",
"80 1069 OFFCURVE",
"98 1051 OFFCURVE",
"143 1051 CURVE SMOOTH",
"255 1051 LINE",
"255 136 LINE",
"143 136 LINE SMOOTH",
"98 136 OFFCURVE",
"80 118 OFFCURVE",
"80 68 CURVE SMOOTH",
"80 18 OFFCURVE",
"98 0 OFFCURVE",
"143 0 CURVE SMOOTH",
"614 0 LINE SMOOTH",
"929 0 OFFCURVE",
"1140 223 OFFCURVE",
"1140 593 CURVE SMOOTH",
"1140 963 OFFCURVE",
"929 1187 OFFCURVE",
"614 1187 CURVE SMOOTH"
);
},
{
closed = 1;
nodes = (
"828 1051 OFFCURVE",
"982 891 OFFCURVE",
"982 593 CURVE SMOOTH",
"982 295 OFFCURVE",
"828 136 OFFCURVE",
"591 136 CURVE SMOOTH",
"405 136 LINE",
"405 1051 LINE",
"591 1051 LINE SMOOTH"
);
}
);
width = 1228;
},
{
layerId = "8538028E-5D6C-4318-9676-30148CDA39CA";
name = Bold;
paths = (
{
closed = 1;
nodes = (
"123 1187 LINE SMOOTH",
"78 1187 OFFCURVE",
"60 1169 OFFCURVE",
"60 1084 CURVE SMOOTH",
"60 999 OFFCURVE",
"78 982 OFFCURVE",
"123 982 CURVE SMOOTH",
"220 982 LINE",
"220 205 LINE",
"123 205 LINE SMOOTH",
"78 205 OFFCURVE",
"60 187 OFFCURVE",
"60 102 CURVE SMOOTH",
"60 17 OFFCURVE",
"78 0 OFFCURVE",
"123 0 CURVE SMOOTH",
"594 0 LINE SMOOTH",
"944 0 OFFCURVE",
"1155 214 OFFCURVE",
"1155 594 CURVE SMOOTH",
"1155 974 OFFCURVE",
"944 1187 OFFCURVE",
"594 1187 CURVE SMOOTH"
);
},
{
closed = 1;
nodes = (
"781 972 OFFCURVE",
"887 842 OFFCURVE",
"887 594 CURVE SMOOTH",
"887 346 OFFCURVE",
"781 215 OFFCURVE",
"574 215 CURVE SMOOTH",
"470 215 LINE",
"470 972 LINE",
"574 972 LINE SMOOTH"
);
}
);
width = 1228;
}
);
unicode = 0044;
},
{
glyphname = Eth;
lastChange = "2014-11-13 04:54:09 -0700";
layers = (
{
layerId = UUID0;
name = Regular;
paths = (
{
closed = 1;
nodes = (
"143 1187 LINE SMOOTH",
"98 1187 OFFCURVE",
"80 1169 OFFCURVE",
"80 1119 CURVE SMOOTH",
"80 1069 OFFCURVE",
"98 1051 OFFCURVE",
"143 1051 CURVE SMOOTH",
"255 1051 LINE",
"255 680 LINE",
"113 680 LINE SMOOTH",
"68 680 OFFCURVE",
"50 662 OFFCURVE",
"50 612 CURVE SMOOTH",
"50 562 OFFCURVE",
"68 544 OFFCURVE",
"113 544 CURVE SMOOTH",
"255 544 LINE",
"255 136 LINE",
"143 136 LINE SMOOTH",
"98 136 OFFCURVE",
"80 118 OFFCURVE",
"80 68 CURVE SMOOTH",
"80 18 OFFCURVE",
"98 0 OFFCURVE",
"143 0 CURVE SMOOTH",
"614 0 LINE SMOOTH",
"929 0 OFFCURVE",
"1140 223 OFFCURVE",
"1140 593 CURVE SMOOTH",
"1140 963 OFFCURVE",
"929 1187 OFFCURVE",
"614 1187 CURVE SMOOTH"
);
},
{
closed = 1;
nodes = (
"828 1051 OFFCURVE",
"982 891 OFFCURVE",
"982 593 CURVE SMOOTH",
"982 295 OFFCURVE",
"828 136 OFFCURVE",
"591 136 CURVE SMOOTH",
"405 136 LINE",
"405 544 LINE",
"595 544 LINE SMOOTH",
"640 544 OFFCURVE",
"658 562 OFFCURVE",
"658 612 CURVE SMOOTH",
"658 662 OFFCURVE",
"640 680 OFFCURVE",
"595 680 CURVE SMOOTH",
"405 680 LINE",
"405 1051 LINE",
"591 1051 LINE SMOOTH"
);
}
);
width = 1228;
},
{
layerId = "8538028E-5D6C-4318-9676-30148CDA39CA";
name = Bold;
paths = (
{
closed = 1;
nodes = (
"123 1187 LINE SMOOTH",
"78 1187 OFFCURVE",
"60 1169 OFFCURVE",
"60 1084 CURVE SMOOTH",
"60 999 OFFCURVE",
"78 982 OFFCURVE",
"123 982 CURVE SMOOTH",
"220 982 LINE",
"220 719 LINE",
"103 719 LINE SMOOTH",
"58 719 OFFCURVE",
"40 701 OFFCURVE",
"40 606 CURVE SMOOTH",
"40 511 OFFCURVE",
"58 494 OFFCURVE",
"103 494 CURVE SMOOTH",
"220 494 LINE",
"220 205 LINE",
"123 205 LINE SMOOTH",
"78 205 OFFCURVE",
"60 187 OFFCURVE",
"60 102 CURVE SMOOTH",
"60 17 OFFCURVE",
"78 0 OFFCURVE",
"123 0 CURVE SMOOTH",
"594 0 LINE SMOOTH",
"944 0 OFFCURVE",
"1155 214 OFFCURVE",
"1155 594 CURVE SMOOTH",
"1155 974 OFFCURVE",
"944 1187 OFFCURVE",
"594 1187 CURVE SMOOTH"
);
},
{
closed = 1;
nodes = (
"781 972 OFFCURVE",
"887 842 OFFCURVE",
"887 594 CURVE SMOOTH",
"887 346 OFFCURVE",
"781 215 OFFCURVE",
"574 215 CURVE SMOOTH",
"470 215 LINE",
"470 494 LINE",
"605 494 LINE SMOOTH",
"650 494 OFFCURVE",
"668 511 OFFCURVE",
"668 606 CURVE SMOOTH",
"668 701 OFFCURVE",
"650 719 OFFCURVE",
"605 719 CURVE SMOOTH",
"470 719 LINE",
"470 972 LINE",
"574 972 LINE SMOOTH"
);
}
);
width = 1228;
}
);
unicode = 00D0;
},
{
color = 9;
glyphname = E;
lastChange = "2014-11-13 04:54:09 -0700";
layers = (
{
layerId = UUID0;
name = Regular;
paths = (
{
closed = 1;
nodes = (
"143 1187 LINE SMOOTH",
"98 1187 OFFCURVE",
"80 1169 OFFCURVE",
"80 1119 CURVE SMOOTH",
"80 1069 OFFCURVE",
"98 1051 OFFCURVE",
"143 1051 CURVE SMOOTH",
"245 1051 LINE",
"245 136 LINE",
"143 136 LINE SMOOTH",
"98 136 OFFCURVE",
"80 118 OFFCURVE",
"80 68 CURVE SMOOTH",
"80 18 OFFCURVE",
"98 0 OFFCURVE",
"143 0 CURVE SMOOTH",
"1037 0 LINE SMOOTH",
"1082 0 OFFCURVE",
"1100 18 OFFCURVE",
"1100 68 CURVE SMOOTH",
"1100 365 LINE SMOOTH",
"1100 411 OFFCURVE",
"1081 430 OFFCURVE",
"1025 430 CURVE SMOOTH",
"969 430 OFFCURVE",
"950 411 OFFCURVE",
"950 365 CURVE SMOOTH",
"950 136 LINE",
"395 136 LINE",
"395 544 LINE",
"721 544 LINE",
"721 680 LINE",
"395 680 LINE",
"395 1051 LINE",
"930 1051 LINE",
"930 865 LINE SMOOTH",
"930 819 OFFCURVE",
"949 800 OFFCURVE",
"1005 800 CURVE SMOOTH",
"1061 800 OFFCURVE",
"1080 819 OFFCURVE",
"1080 865 CURVE SMOOTH",
"1080 1119 LINE SMOOTH",
"1080 1169 OFFCURVE",
"1062 1187 OFFCURVE",
"1017 1187 CURVE SMOOTH"
);
},
{
closed = 1;
nodes = (
"664 836 OFFCURVE",
"645 817 OFFCURVE",
"645 771 CURVE SMOOTH",
"645 453 LINE SMOOTH",
"645 407 OFFCURVE",
"664 388 OFFCURVE",
"720 388 CURVE SMOOTH",
"776 388 OFFCURVE",
"795 407 OFFCURVE",
"795 453 CURVE SMOOTH",
"795 771 LINE SMOOTH",
"795 817 OFFCURVE",
"776 836 OFFCURVE",
"720 836 CURVE SMOOTH"
);
}
);
width = 1228;
},
{
layerId = "8538028E-5D6C-4318-9676-30148CDA39CA";
name = Bold;
paths = (
{
closed = 1;
nodes = (
"123 1187 LINE SMOOTH",
"78 1187 OFFCURVE",
"60 1169 OFFCURVE",
"60 1084 CURVE SMOOTH",
"60 999 OFFCURVE",
"78 982 OFFCURVE",
"123 982 CURVE SMOOTH",
"220 982 LINE",
"220 205 LINE",
"123 205 LINE SMOOTH",
"78 205 OFFCURVE",
"60 187 OFFCURVE",
"60 102 CURVE SMOOTH",
"60 17 OFFCURVE",
"78 0 OFFCURVE",
"123 0 CURVE SMOOTH",
"1055 0 LINE SMOOTH",
"1101 0 OFFCURVE",
"1120 19 OFFCURVE",
"1120 65 CURVE SMOOTH",
"1120 397 LINE SMOOTH",
"1120 442 OFFCURVE",
"1096 460 OFFCURVE",
"1006 460 CURVE SMOOTH",
"916 460 OFFCURVE",
"880 442 OFFCURVE",
"880 397 CURVE SMOOTH",
"880 215 LINE",
"470 215 LINE",
"470 504 LINE",
"714 504 LINE SMOOTH",
"759 504 OFFCURVE",
"777 526 OFFCURVE",
"777 611 CURVE SMOOTH",
"777 696 OFFCURVE",
"759 719 OFFCURVE",
"714 719 CURVE SMOOTH",
"470 719 LINE",
"470 972 LINE",
"870 972 LINE",
"870 840 LINE SMOOTH",
"870 795 OFFCURVE",
"893 777 OFFCURVE",
"978 777 CURVE SMOOTH",
"1063 777 OFFCURVE",
"1100 795 OFFCURVE",
"1100 840 CURVE SMOOTH",
"1100 1122 LINE SMOOTH",
"1100 1168 OFFCURVE",
"1081 1187 OFFCURVE",
"1035 1187 CURVE SMOOTH"
);
}
);
width = 1228;
},
{
associatedMasterId = UUID0;
layerId = "2B1803A5-1FDF-466F-A59F-0FE5A19A0F1D";
name = "Regular [175]";
paths = (
{
closed = 1;
nodes = (
"143 1187 LINE SMOOTH",
"98 1187 OFFCURVE",
"80 1169 OFFCURVE",
"80 1119 CURVE SMOOTH",
"80 1069 OFFCURVE",
"98 1051 OFFCURVE",
"143 1051 CURVE SMOOTH",
"245 1051 LINE",
"245 136 LINE",
"143 136 LINE SMOOTH",
"98 136 OFFCURVE",
"80 118 OFFCURVE",
"80 68 CURVE SMOOTH",
"80 18 OFFCURVE",
"98 0 OFFCURVE",
"143 0 CURVE SMOOTH",
"1037 0 LINE SMOOTH",
"1082 0 OFFCURVE",
"1100 18 OFFCURVE",
"1100 68 CURVE SMOOTH",
"1100 365 LINE SMOOTH",
"1100 411 OFFCURVE",
"1081 430 OFFCURVE",
"1025 430 CURVE SMOOTH",
"969 430 OFFCURVE",
"950 411 OFFCURVE",
"950 365 CURVE SMOOTH",
"950 136 LINE",
"395 136 LINE",
"395 544 LINE",
"745 544 LINE",
"790 544 OFFCURVE",
"808 562 OFFCURVE",
"808 612 CURVE SMOOTH",
"808 662 OFFCURVE",
"790 680 OFFCURVE",
"745 680 CURVE",
"395 680 LINE",
"395 1051 LINE",
"930 1051 LINE",
"930 865 LINE SMOOTH",
"930 819 OFFCURVE",
"949 800 OFFCURVE",
"1005 800 CURVE SMOOTH",
"1061 800 OFFCURVE",
"1080 819 OFFCURVE",
"1080 865 CURVE SMOOTH",
"1080 1119 LINE SMOOTH",
"1080 1169 OFFCURVE",
"1062 1187 OFFCURVE",
"1017 1187 CURVE SMOOTH"
);
}
);
width = 1228;
},
{
associatedMasterId = "8538028E-5D6C-4318-9676-30148CDA39CA";
layerId = "9A9C2E21-8164-43EA-83C1-A103A1521FB3";
name = "Bold [175]";
paths = (
{
closed = 1;
nodes = (
"123 1187 LINE SMOOTH",
"78 1187 OFFCURVE",
"60 1169 OFFCURVE",
"60 1084 CURVE SMOOTH",
"60 999 OFFCURVE",
"78 982 OFFCURVE",
"123 982 CURVE SMOOTH",
"220 982 LINE",
"220 205 LINE",
"123 205 LINE SMOOTH",
"78 205 OFFCURVE",
"60 187 OFFCURVE",
"60 102 CURVE SMOOTH",
"60 17 OFFCURVE",
"78 0 OFFCURVE",
"123 0 CURVE SMOOTH",
"1055 0 LINE SMOOTH",
"1101 0 OFFCURVE",
"1120 19 OFFCURVE",
"1120 65 CURVE SMOOTH",
"1120 417 LINE SMOOTH",
"1120 462 OFFCURVE",
"1096 480 OFFCURVE",
"1006 480 CURVE SMOOTH",
"916 480 OFFCURVE",
"880 462 OFFCURVE",
"880 417 CURVE SMOOTH",
"880 215 LINE",
"470 215 LINE",
"470 504 LINE",
"714 504 LINE SMOOTH",
"759 504 OFFCURVE",
"777 526 OFFCURVE",
"777 611 CURVE SMOOTH",
"777 696 OFFCURVE",
"759 719 OFFCURVE",
"714 719 CURVE SMOOTH",
"470 719 LINE",
"470 972 LINE",
"870 972 LINE",
"870 820 LINE SMOOTH",
"870 775 OFFCURVE",
"893 757 OFFCURVE",
"978 757 CURVE SMOOTH",
"1063 757 OFFCURVE",
"1100 775 OFFCURVE",
"1100 820 CURVE SMOOTH",
"1100 1122 LINE SMOOTH",
"1100 1168 OFFCURVE",
"1081 1187 OFFCURVE",
"1035 1187 CURVE SMOOTH"
);
}
);
width = 1228;
}
);
unicode = 0045;
},
{
glyphname = Eogonek;
lastChange = "2014-11-13 04:54:09 -0700";
layers = (
{
background = {
paths = (
{
closed = 1;
nodes = (
"245 136 LINE",
"143 136 LINE SMOOTH",
"98 136 OFFCURVE",
"80 118 OFFCURVE",
"80 68 CURVE SMOOTH",
"80 18 OFFCURVE",
"98 0 OFFCURVE",
"143 0 CURVE SMOOTH",
"855 0 LINE",
"755 -88 OFFCURVE",
"691 -179 OFFCURVE",
"691 -281 CURVE SMOOTH",
"691 -397 OFFCURVE",
"767 -472 OFFCURVE",
"891 -472 CURVE SMOOTH",
"953 -472 OFFCURVE",
"1009 -462 OFFCURVE",
"1055 -446 CURVE SMOOTH",
"1084 -436 OFFCURVE",
"1093 -415 OFFCURVE",
"1087 -374 CURVE SMOOTH",
"1082 -337 OFFCURVE",
"1063 -322 OFFCURVE",
"1037 -326 CURVE SMOOTH",
"1002 -332 OFFCURVE",
"963 -336 OFFCURVE",
"924 -336 CURVE SMOOTH",
"879 -336 OFFCURVE",
"847 -310 OFFCURVE",
"847 -261 CURVE SMOOTH",
"847 -188 OFFCURVE",
"894 -110 OFFCURVE",
"1013 0 CURVE",
"1037 0 LINE SMOOTH",
"1082 0 OFFCURVE",
"1100 18 OFFCURVE",
"1100 68 CURVE SMOOTH",
"1100 365 LINE SMOOTH",
"1100 411 OFFCURVE",
"1081 430 OFFCURVE",
"1025 430 CURVE SMOOTH",
"969 430 OFFCURVE",
"950 411 OFFCURVE",
"950 365 CURVE SMOOTH",
"950 136 LINE",
"395 136 LINE",
"395 544 LINE",
"645 544 LINE",
"645 453 LINE SMOOTH",
"645 407 OFFCURVE",
"664 388 OFFCURVE",
"720 388 CURVE SMOOTH",
"776 388 OFFCURVE",
"795 407 OFFCURVE",
"795 453 CURVE SMOOTH",
"795 771 LINE SMOOTH",
"795 817 OFFCURVE",
"776 836 OFFCURVE",
"720 836 CURVE SMOOTH",
"664 836 OFFCURVE",
"645 817 OFFCURVE",
"645 771 CURVE SMOOTH",
"645 680 LINE",
"395 680 LINE",
"395 1051 LINE",
"930 1051 LINE",
"930 865 LINE SMOOTH",
"930 819 OFFCURVE",
"949 800 OFFCURVE",
"1005 800 CURVE SMOOTH",
"1061 800 OFFCURVE",
"1080 819 OFFCURVE",
"1080 865 CURVE SMOOTH",
"1080 1119 LINE SMOOTH",
"1080 1169 OFFCURVE",
"1062 1187 OFFCURVE",
"1017 1187 CURVE SMOOTH",
"143 1187 LINE SMOOTH",
"98 1187 OFFCURVE",
"80 1169 OFFCURVE",
"80 1119 CURVE SMOOTH",
"80 1069 OFFCURVE",
"98 1051 OFFCURVE",
"143 1051 CURVE SMOOTH",
"245 1051 LINE"
);
}
);
};
components = (
{
name = E;
transform = "{1, 0, 0, 1, 0, 0}";
},
{
name = ogonek;
transform = "{1, 0, 0, 1, 280, 0}";
}
);
layerId = UUID0;
name = Regular;
width = 1228;
},
{
background = {
paths = (
{
closed = 1;
nodes = (
"220 205 LINE",
"123 205 LINE SMOOTH",
"78 205 OFFCURVE",
"60 187 OFFCURVE",
"60 102 CURVE SMOOTH",
"60 17 OFFCURVE",
"78 0 OFFCURVE",
"123 0 CURVE SMOOTH",
"814 0 LINE",
"708 -72 OFFCURVE",
"629 -154 OFFCURVE",
"629 -269 CURVE SMOOTH",
"629 -402 OFFCURVE",
"719 -472 OFFCURVE",
"875 -472 CURVE SMOOTH",
"948 -472 OFFCURVE",
"1024 -459 OFFCURVE",
"1091 -438 CURVE SMOOTH",
"1119 -429 OFFCURVE",
"1132 -399 OFFCURVE",
"1128 -353 CURVE SMOOTH",
"1124 -307 OFFCURVE",
"1106 -281 OFFCURVE",
"1080 -285 CURVE SMOOTH",
"1037 -292 OFFCURVE",
"999 -298 OFFCURVE",
"960 -298 CURVE SMOOTH",
"903 -298 OFFCURVE",
"872 -278 OFFCURVE",
"872 -231 CURVE SMOOTH",
"872 -163 OFFCURVE",
"933 -84 OFFCURVE",
"1031 0 CURVE",
"1055 0 LINE SMOOTH",
"1101 0 OFFCURVE",
"1120 19 OFFCURVE",
"1120 65 CURVE SMOOTH",
"1120 417 LINE SMOOTH",
"1120 462 OFFCURVE",
"1096 480 OFFCURVE",
"1006 480 CURVE SMOOTH",
"916 480 OFFCURVE",
"880 462 OFFCURVE",
"880 417 CURVE SMOOTH",
"880 215 LINE",
"470 215 LINE",
"470 504 LINE",
"714 504 LINE SMOOTH",
"759 504 OFFCURVE",
"777 526 OFFCURVE",
"777 611 CURVE SMOOTH",
"777 696 OFFCURVE",
"759 719 OFFCURVE",
"714 719 CURVE SMOOTH",
"470 719 LINE",
"470 972 LINE",
"870 972 LINE",
"870 820 LINE SMOOTH",
"870 775 OFFCURVE",
"893 757 OFFCURVE",
"978 757 CURVE SMOOTH",
"1063 757 OFFCURVE",
"1100 775 OFFCURVE",
"1100 820 CURVE SMOOTH",
"1100 1122 LINE SMOOTH",
"1100 1168 OFFCURVE",
"1081 1187 OFFCURVE",
"1035 1187 CURVE SMOOTH",
"123 1187 LINE SMOOTH",
"78 1187 OFFCURVE",
"60 1169 OFFCURVE",
"60 1084 CURVE SMOOTH",
"60 999 OFFCURVE",
"78 982 OFFCURVE",
"123 982 CURVE SMOOTH",
"220 982 LINE"
);
}
);
};
components = (
{
name = E;
transform = "{1, 0, 0, 1, 0, 0}";
},
{
name = ogonek;
transform = "{1, 0, 0, 1, 280, 0}";
}
);
layerId = "8538028E-5D6C-4318-9676-30148CDA39CA";
name = Bold;
width = 1228;
}
);
unicode = 0118;
},
{
color = 9;
glyphname = F;
lastChange = "2014-11-13 04:54:09 -0700";
layers = (
{
layerId = UUID0;
name = Regular;
paths = (
{
closed = 1;
nodes = (
"143 1187 LINE SMOOTH",
"98 1187 OFFCURVE",
"80 1169 OFFCURVE",
"80 1119 CURVE SMOOTH",
"80 1069 OFFCURVE",
"98 1051 OFFCURVE",
"143 1051 CURVE SMOOTH",
"275 1051 LINE",
"275 136 LINE",
"143 136 LINE SMOOTH",
"98 136 OFFCURVE",
"80 118 OFFCURVE",
"80 68 CURVE SMOOTH",
"80 18 OFFCURVE",
"98 0 OFFCURVE",
"143 0 CURVE SMOOTH",
"657 0 LINE SMOOTH",
"702 0 OFFCURVE",
"720 18 OFFCURVE",
"720 68 CURVE SMOOTH",
"720 118 OFFCURVE",
"702 136 OFFCURVE",
"657 136 CURVE SMOOTH",
"425 136 LINE",
"425 524 LINE",
"751 524 LINE",
"751 660 LINE",
"425 660 LINE",
"425 1051 LINE",
"960 1051 LINE",
"960 855 LINE SMOOTH",
"960 809 OFFCURVE",
"979 790 OFFCURVE",
"1035 790 CURVE SMOOTH",
"1091 790 OFFCURVE",
"1110 809 OFFCURVE",
"1110 855 CURVE SMOOTH",
"1110 1119 LINE SMOOTH",
"1110 1169 OFFCURVE",
"1092 1187 OFFCURVE",
"1047 1187 CURVE SMOOTH"
);
},
{
closed = 1;
nodes = (
"694 816 OFFCURVE",
"675 797 OFFCURVE",
"675 751 CURVE",
"675 433 LINE",
"675 387 OFFCURVE",
"694 368 OFFCURVE",
"750 368 CURVE SMOOTH",
"806 368 OFFCURVE",
"825 387 OFFCURVE",
"825 433 CURVE SMOOTH",
"825 751 LINE SMOOTH",
"825 797 OFFCURVE",
"806 816 OFFCURVE",
"750 816 CURVE SMOOTH"
);
}
);
width = 1228;
},
{
layerId = "8538028E-5D6C-4318-9676-30148CDA39CA";
name = Bold;
paths = (
{
closed = 1;
nodes = (
"143 1187 LINE SMOOTH",
"98 1187 OFFCURVE",
"80 1169 OFFCURVE",
"80 1084 CURVE SMOOTH",
"80 999 OFFCURVE",
"98 982 OFFCURVE",
"143 982 CURVE SMOOTH",
"270 982 LINE",
"270 205 LINE",
"143 205 LINE SMOOTH",
"98 205 OFFCURVE",
"80 187 OFFCURVE",
"80 102 CURVE SMOOTH",
"80 17 OFFCURVE",
"98 0 OFFCURVE",
"143 0 CURVE SMOOTH",
"737 0 LINE SMOOTH",
"782 0 OFFCURVE",
"800 17 OFFCURVE",
"800 102 CURVE SMOOTH",
"800 187 OFFCURVE",
"782 205 OFFCURVE",
"737 205 CURVE SMOOTH",
"520 205 LINE",
"520 442 LINE",
"824 442 LINE SMOOTH",
"869 442 OFFCURVE",
"887 464 OFFCURVE",
"887 549 CURVE SMOOTH",
"887 634 OFFCURVE",
"869 657 OFFCURVE",
"824 657 CURVE SMOOTH",
"520 657 LINE",
"520 972 LINE",
"890 972 LINE",
"890 860 LINE SMOOTH",
"890 815 OFFCURVE",
"913 797 OFFCURVE",
"998 797 CURVE SMOOTH",
"1083 797 OFFCURVE",
"1120 815 OFFCURVE",
"1120 860 CURVE SMOOTH",
"1120 1122 LINE SMOOTH",
"1120 1168 OFFCURVE",
"1101 1187 OFFCURVE",
"1055 1187 CURVE SMOOTH"
);
}
);
width = 1228;
},
{
associatedMasterId = UUID0;
layerId = "6F5A11B2-C36C-4722-9FBC-9E6C645C0232";
name = "Regular [175]";
paths = (
{
closed = 1;
nodes = (
"143 1187 LINE SMOOTH",
"98 1187 OFFCURVE",
"80 1169 OFFCURVE",
"80 1119 CURVE SMOOTH",
"80 1069 OFFCURVE",
"98 1051 OFFCURVE",
"143 1051 CURVE SMOOTH",
"275 1051 LINE",
"275 136 LINE",
"143 136 LINE SMOOTH",
"98 136 OFFCURVE",
"80 118 OFFCURVE",
"80 68 CURVE SMOOTH",
"80 18 OFFCURVE",
"98 0 OFFCURVE",
"143 0 CURVE SMOOTH",
"657 0 LINE SMOOTH",
"702 0 OFFCURVE",
"720 18 OFFCURVE",
"720 68 CURVE SMOOTH",
"720 118 OFFCURVE",
"702 136 OFFCURVE",
"657 136 CURVE SMOOTH",
"425 136 LINE",
"425 524 LINE",
"775 524 LINE SMOOTH",
"820 524 OFFCURVE",
"838 542 OFFCURVE",
"838 592 CURVE SMOOTH",
"838 642 OFFCURVE",
"820 660 OFFCURVE",
"775 660 CURVE SMOOTH",
"425 660 LINE",
"425 1051 LINE",
"960 1051 LINE",
"960 855 LINE SMOOTH",
"960 809 OFFCURVE",
"979 790 OFFCURVE",
"1035 790 CURVE SMOOTH",
"1091 790 OFFCURVE",
"1110 809 OFFCURVE",
"1110 855 CURVE SMOOTH",
"1110 1119 LINE SMOOTH",
"1110 1169 OFFCURVE",
"1092 1187 OFFCURVE",
"1047 1187 CURVE SMOOTH"
);
}
);
width = 1228;
},
{
associatedMasterId = "8538028E-5D6C-4318-9676-30148CDA39CA";
layerId = "06411AF9-0A4C-43DE-B9CC-EEB73B2AC6A6";
name = "Bold [175]";
paths = (
{
closed = 1;
nodes = (
"123 1187 LINE SMOOTH",
"78 1187 OFFCURVE",
"60 1169 OFFCURVE",
"60 1084 CURVE SMOOTH",
"60 999 OFFCURVE",
"78 982 OFFCURVE",
"123 982 CURVE SMOOTH",
"250 982 LINE",
"250 205 LINE",
"123 205 LINE SMOOTH",
"78 205 OFFCURVE",
"60 187 OFFCURVE",
"60 102 CURVE SMOOTH",
"60 17 OFFCURVE",
"78 0 OFFCURVE",
"123 0 CURVE SMOOTH",
"717 0 LINE SMOOTH",
"762 0 OFFCURVE",
"780 17 OFFCURVE",
"780 102 CURVE SMOOTH",
"780 187 OFFCURVE",
"762 205 OFFCURVE",
"717 205 CURVE SMOOTH",
"500 205 LINE",
"500 452 LINE",
"804 452 LINE SMOOTH",
"849 452 OFFCURVE",
"867 474 OFFCURVE",
"867 559 CURVE SMOOTH",
"867 644 OFFCURVE",
"849 667 OFFCURVE",
"804 667 CURVE SMOOTH",
"500 667 LINE",
"500 972 LINE",
"890 972 LINE",
"890 820 LINE SMOOTH",
"890 775 OFFCURVE",
"913 757 OFFCURVE",
"998 757 CURVE SMOOTH",
"1083 757 OFFCURVE",
"1120 775 OFFCURVE",
"1120 820 CURVE SMOOTH",
"1120 1122 LINE SMOOTH",
"1120 1168 OFFCURVE",
"1101 1187 OFFCURVE",
"1055 1187 CURVE SMOOTH"
);
}
);
width = 1228;
}
);
unicode = 0046;
},
{
glyphname = G;
lastChange = "2014-11-13 04:54:09 -0700";
layers = (
{
layerId = UUID0;
name = Regular;
paths = (
{
closed = 1;
nodes = (
"923 410 LINE",
"923 183 LINE",
"836 143 OFFCURVE",
"737 126 OFFCURVE",
"624 126 CURVE SMOOTH",
"402 126 OFFCURVE",
"256 305 OFFCURVE",
"256 593 CURVE SMOOTH",
"256 881 OFFCURVE",
"412 1061 OFFCURVE",
"634 1061 CURVE SMOOTH",
"813 1061 OFFCURVE",
"912 974 OFFCURVE",
"912 854 CURVE SMOOTH",
"912 808 OFFCURVE",
"931 789 OFFCURVE",
"987 789 CURVE SMOOTH",
"1043 789 OFFCURVE",
"1062 808 OFFCURVE",
"1062 854 CURVE SMOOTH",
"1062 1144 LINE SMOOTH",
"1062 1190 OFFCURVE",
"1043 1209 OFFCURVE",
"987 1209 CURVE SMOOTH",
"931 1209 OFFCURVE",
"912 1190 OFFCURVE",
"912 1144 CURVE SMOOTH",
"912 1095 LINE",
"848 1167 OFFCURVE",
"752 1209 OFFCURVE",
"624 1209 CURVE SMOOTH",
"319 1209 OFFCURVE",
"98 963 OFFCURVE",
"98 593 CURVE SMOOTH",
"98 223 OFFCURVE",
"309 -22 OFFCURVE",
"624 -22 CURVE SMOOTH",
"778 -22 OFFCURVE",
"927 11 OFFCURVE",
"1037 74 CURVE SMOOTH",
"1060 87 OFFCURVE",
"1073 111 OFFCURVE",
"1073 143 CURVE SMOOTH",
"1073 410 LINE",
"1105 410 LINE SMOOTH",
"1150 410 OFFCURVE",
"1168 428 OFFCURVE",
"1168 478 CURVE SMOOTH",
"1168 528 OFFCURVE",
"1150 546 OFFCURVE",
"1105 546 CURVE SMOOTH",
"676 546 LINE SMOOTH",
"631 546 OFFCURVE",
"613 528 OFFCURVE",
"613 478 CURVE SMOOTH",
"613 428 OFFCURVE",
"631 410 OFFCURVE",
"676 410 CURVE SMOOTH"
);
}
);
width = 1228;
},
{
layerId = "8538028E-5D6C-4318-9676-30148CDA39CA";
name = Bold;
paths = (
{
closed = 1;
nodes = (
"844 402 LINE",
"844 235 LINE",
"778 215 OFFCURVE",
"707 205 OFFCURVE",
"634 205 CURVE SMOOTH",
"447 205 OFFCURVE",
"341 346 OFFCURVE",
"341 594 CURVE SMOOTH",
"341 842 OFFCURVE",
"437 982 OFFCURVE",
"624 982 CURVE SMOOTH",
"768 982 OFFCURVE",
"834 914 OFFCURVE",
"834 802 CURVE SMOOTH",
"834 757 OFFCURVE",
"857 739 OFFCURVE",
"952 739 CURVE SMOOTH",
"1047 739 OFFCURVE",
"1084 757 OFFCURVE",
"1084 802 CURVE SMOOTH",
"1084 1146 LINE SMOOTH",
"1084 1191 OFFCURVE",
"1061 1209 OFFCURVE",
"976 1209 CURVE SMOOTH",
"891 1209 OFFCURVE",
"854 1191 OFFCURVE",
"854 1146 CURVE SMOOTH",
"854 1091 LINE",
"802 1164 OFFCURVE",
"718 1209 OFFCURVE",
"594 1209 CURVE SMOOTH",
"294 1209 OFFCURVE",
"73 974 OFFCURVE",
"73 594 CURVE SMOOTH",
"73 214 OFFCURVE",
"294 -22 OFFCURVE",
"624 -22 CURVE SMOOTH",
"779 -22 OFFCURVE",
"932 9 OFFCURVE",
"1058 74 CURVE SMOOTH",
"1081 86 OFFCURVE",
"1094 111 OFFCURVE",
"1094 143 CURVE SMOOTH",
"1094 402 LINE",
"1125 402 LINE SMOOTH",
"1170 402 OFFCURVE",
"1188 419 OFFCURVE",
"1188 504 CURVE SMOOTH",
"1188 589 OFFCURVE",
"1170 607 OFFCURVE",
"1125 607 CURVE SMOOTH",
"651 607 LINE SMOOTH",
"606 607 OFFCURVE",
"588 589 OFFCURVE",
"588 504 CURVE SMOOTH",
"588 419 OFFCURVE",
"606 402 OFFCURVE",
"651 402 CURVE SMOOTH"
);
}
);
width = 1228;
}
);
unicode = 0047;
},
{
glyphname = H;
lastChange = "2014-11-13 04:54:09 -0700";
layers = (
{
layerId = UUID0;
name = Regular;
paths = (
{
closed = 1;
nodes = (
"771 1187 LINE SMOOTH",
"726 1187 OFFCURVE",
"708 1169 OFFCURVE",
"708 1119 CURVE SMOOTH",
"708 1069 OFFCURVE",
"726 1051 OFFCURVE",
"771 1051 CURVE SMOOTH",
"863 1051 LINE",
"863 680 LINE",
"365 680 LINE",
"365 1051 LINE",
"457 1051 LINE SMOOTH",
"502 1051 OFFCURVE",
"520 1069 OFFCURVE",
"520 1119 CURVE SMOOTH",
"520 1169 OFFCURVE",
"502 1187 OFFCURVE",
"457 1187 CURVE SMOOTH",
"143 1187 LINE SMOOTH",
"98 1187 OFFCURVE",
"80 1169 OFFCURVE",
"80 1119 CURVE SMOOTH",
"80 1069 OFFCURVE",
"98 1051 OFFCURVE",
"143 1051 CURVE SMOOTH",
"215 1051 LINE",
"215 136 LINE",
"143 136 LINE SMOOTH",
"98 136 OFFCURVE",
"80 118 OFFCURVE",
"80 68 CURVE SMOOTH",
"80 18 OFFCURVE",
"98 0 OFFCURVE",
"143 0 CURVE SMOOTH",
"457 0 LINE SMOOTH",
"502 0 OFFCURVE",
"520 18 OFFCURVE",
"520 68 CURVE SMOOTH",
"520 118 OFFCURVE",
"502 136 OFFCURVE",
"457 136 CURVE SMOOTH",
"365 136 LINE",
"365 544 LINE",
"863 544 LINE",
"863 136 LINE",
"771 136 LINE SMOOTH",
"726 136 OFFCURVE",
"708 118 OFFCURVE",
"708 68 CURVE SMOOTH",
"708 18 OFFCURVE",
"726 0 OFFCURVE",
"771 0 CURVE SMOOTH",
"1085 0 LINE SMOOTH",
"1130 0 OFFCURVE",
"1148 18 OFFCURVE",
"1148 68 CURVE SMOOTH",
"1148 118 OFFCURVE",
"1130 136 OFFCURVE",
"1085 136 CURVE SMOOTH",
"1013 136 LINE",
"1013 1051 LINE",
"1085 1051 LINE SMOOTH",
"1130 1051 OFFCURVE",
"1148 1069 OFFCURVE",
"1148 1119 CURVE SMOOTH",
"1148 1169 OFFCURVE",
"1130 1187 OFFCURVE",
"1085 1187 CURVE SMOOTH"
);
}
);
width = 1228;
},
{
layerId = "8538028E-5D6C-4318-9676-30148CDA39CA";
name = Bold;
paths = (
{
closed = 1;
nodes = (
"741 1187 LINE SMOOTH",
"696 1187 OFFCURVE",
"678 1169 OFFCURVE",
"678 1084 CURVE SMOOTH",
"678 999 OFFCURVE",
"696 982 OFFCURVE",
"741 982 CURVE SMOOTH",
"808 982 LINE",
"808 719 LINE",
"420 719 LINE",
"420 982 LINE",
"487 982 LINE SMOOTH",
"532 982 OFFCURVE",
"550 999 OFFCURVE",
"550 1084 CURVE SMOOTH",
"550 1169 OFFCURVE",
"532 1187 OFFCURVE",
"487 1187 CURVE SMOOTH",
"113 1187 LINE SMOOTH",
"68 1187 OFFCURVE",
"50 1169 OFFCURVE",
"50 1084 CURVE SMOOTH",
"50 999 OFFCURVE",
"68 982 OFFCURVE",
"113 982 CURVE SMOOTH",
"170 982 LINE",
"170 205 LINE",
"113 205 LINE SMOOTH",
"68 205 OFFCURVE",
"50 187 OFFCURVE",
"50 102 CURVE SMOOTH",
"50 17 OFFCURVE",
"68 0 OFFCURVE",
"113 0 CURVE SMOOTH",
"487 0 LINE SMOOTH",
"532 0 OFFCURVE",
"550 17 OFFCURVE",
"550 102 CURVE SMOOTH",
"550 187 OFFCURVE",
"532 205 OFFCURVE",
"487 205 CURVE SMOOTH",
"420 205 LINE",
"420 504 LINE",
"808 504 LINE",
"808 205 LINE",
"741 205 LINE SMOOTH",
"696 205 OFFCURVE",
"678 187 OFFCURVE",
"678 102 CURVE SMOOTH",
"678 17 OFFCURVE",
"696 0 OFFCURVE",
"741 0 CURVE SMOOTH",
"1115 0 LINE SMOOTH",
"1160 0 OFFCURVE",
"1178 17 OFFCURVE",
"1178 102 CURVE SMOOTH",
"1178 187 OFFCURVE",
"1160 205 OFFCURVE",
"1115 205 CURVE SMOOTH",
"1058 205 LINE",
"1058 982 LINE",
"1115 982 LINE SMOOTH",
"1160 982 OFFCURVE",
"1178 999 OFFCURVE",
"1178 1084 CURVE SMOOTH",
"1178 1169 OFFCURVE",
"1160 1187 OFFCURVE",
"1115 1187 CURVE SMOOTH"
);
}
);
width = 1228;
}
);
unicode = 0048;
},
{
color = (0,243,255,1);
glyphname = Hbar;
lastChange = "2014-11-13 04:54:09 -0700";
layers = (
{
layerId = UUID0;
name = Regular;
paths = (
{
closed = 1;
nodes = (
"771 1187 LINE SMOOTH",
"726 1187 OFFCURVE",
"708 1169 OFFCURVE",
"708 1119 CURVE SMOOTH",
"708 1069 OFFCURVE",
"726 1051 OFFCURVE",
"771 1051 CURVE SMOOTH",
"863 1051 LINE",
"863 924 LINE",
"365 924 LINE",
"365 1051 LINE",
"457 1051 LINE SMOOTH",
"502 1051 OFFCURVE",
"520 1069 OFFCURVE",
"520 1119 CURVE SMOOTH",
"520 1169 OFFCURVE",
"502 1187 OFFCURVE",
"457 1187 CURVE SMOOTH",
"143 1187 LINE SMOOTH",
"98 1187 OFFCURVE",
"80 1169 OFFCURVE",
"80 1119 CURVE SMOOTH",
"80 1069 OFFCURVE",
"98 1051 OFFCURVE",
"143 1051 CURVE SMOOTH",
"215 1051 LINE",
"215 924 LINE",
"93 924 LINE SMOOTH",
"48 924 OFFCURVE",
"30 906 OFFCURVE",
"30 856 CURVE SMOOTH",
"30 806 OFFCURVE",
"48 788 OFFCURVE",
"93 788 CURVE SMOOTH",
"215 788 LINE",
"215 136 LINE",
"143 136 LINE SMOOTH",
"98 136 OFFCURVE",
"80 118 OFFCURVE",
"80 68 CURVE SMOOTH",
"80 18 OFFCURVE",
"98 0 OFFCURVE",
"143 0 CURVE SMOOTH",
"457 0 LINE SMOOTH",
"502 0 OFFCURVE",
"520 18 OFFCURVE",
"520 68 CURVE SMOOTH",
"520 118 OFFCURVE",
"502 136 OFFCURVE",
"457 136 CURVE SMOOTH",
"365 136 LINE",
"365 544 LINE",
"863 544 LINE",
"863 136 LINE",
"771 136 LINE SMOOTH",
"726 136 OFFCURVE",
"708 118 OFFCURVE",
"708 68 CURVE SMOOTH",
"708 18 OFFCURVE",
"726 0 OFFCURVE",
"771 0 CURVE SMOOTH",
"1085 0 LINE SMOOTH",
"1130 0 OFFCURVE",
"1148 18 OFFCURVE",
"1148 68 CURVE SMOOTH",
"1148 118 OFFCURVE",
"1130 136 OFFCURVE",
"1085 136 CURVE SMOOTH",
"1013 136 LINE",
"1013 788 LINE",
"1135 788 LINE SMOOTH",
"1180 788 OFFCURVE",
"1198 806 OFFCURVE",
"1198 856 CURVE SMOOTH",
"1198 906 OFFCURVE",
"1180 924 OFFCURVE",
"1135 924 CURVE SMOOTH",
"1013 924 LINE",
"1013 1051 LINE",
"1085 1051 LINE SMOOTH",
"1130 1051 OFFCURVE",
"1148 1069 OFFCURVE",
"1148 1119 CURVE SMOOTH",
"1148 1169 OFFCURVE",
"1130 1187 OFFCURVE",
"1085 1187 CURVE SMOOTH"
);
},
{
closed = 1;
nodes = (
"863 680 LINE",
"365 680 LINE",
"365 788 LINE",
"863 788 LINE"
);
}
);
width = 1228;
},
{
layerId = "8538028E-5D6C-4318-9676-30148CDA39CA";
name = Bold;
paths = (
{
closed = 1;
nodes = (
"741 1187 LINE SMOOTH",
"696 1187 OFFCURVE",
"678 1169 OFFCURVE",
"678 1084 CURVE SMOOTH",
"678 999 OFFCURVE",
"696 982 OFFCURVE",
"741 982 CURVE SMOOTH",
"808 982 LINE",
"808 904 LINE",
"420 904 LINE",
"420 982 LINE",
"487 982 LINE SMOOTH",
"532 982 OFFCURVE",
"550 999 OFFCURVE",
"550 1084 CURVE SMOOTH",
"550 1169 OFFCURVE",
"532 1187 OFFCURVE",
"487 1187 CURVE SMOOTH",
"113 1187 LINE SMOOTH",
"68 1187 OFFCURVE",
"50 1169 OFFCURVE",
"50 1084 CURVE SMOOTH",
"50 999 OFFCURVE",
"68 982 OFFCURVE",
"113 982 CURVE SMOOTH",
"170 982 LINE",
"170 904 LINE",
"93 904 LINE SMOOTH",
"48 904 OFFCURVE",
"30 886 OFFCURVE",
"30 836 CURVE SMOOTH",
"30 786 OFFCURVE",
"48 768 OFFCURVE",
"93 768 CURVE SMOOTH",
"170 768 LINE",
"170 205 LINE",
"113 205 LINE SMOOTH",
"68 205 OFFCURVE",
"50 187 OFFCURVE",
"50 102 CURVE SMOOTH",
"50 17 OFFCURVE",
"68 0 OFFCURVE",
"113 0 CURVE SMOOTH",
"487 0 LINE SMOOTH",
"532 0 OFFCURVE",
"550 17 OFFCURVE",
"550 102 CURVE SMOOTH",
"550 187 OFFCURVE",
"532 205 OFFCURVE",
"487 205 CURVE SMOOTH",
"420 205 LINE",
"420 464 LINE",
"808 464 LINE",
"808 205 LINE",
"741 205 LINE SMOOTH",
"696 205 OFFCURVE",
"678 187 OFFCURVE",
"678 102 CURVE SMOOTH",
"678 17 OFFCURVE",
"696 0 OFFCURVE",
"741 0 CURVE SMOOTH",
"1115 0 LINE SMOOTH",
"1160 0 OFFCURVE",
"1178 17 OFFCURVE",
"1178 102 CURVE SMOOTH",
"1178 187 OFFCURVE",
"1160 205 OFFCURVE",
"1115 205 CURVE SMOOTH",
"1058 205 LINE",
"1058 768 LINE",
"1135 768 LINE SMOOTH",
"1180 768 OFFCURVE",
"1198 786 OFFCURVE",
"1198 836 CURVE SMOOTH",
"1198 886 OFFCURVE",
"1180 904 OFFCURVE",
"1135 904 CURVE SMOOTH",
"1058 904 LINE",
"1058 982 LINE",
"1115 982 LINE SMOOTH",
"1160 982 OFFCURVE",
"1178 999 OFFCURVE",
"1178 1084 CURVE SMOOTH",
"1178 1169 OFFCURVE",
"1160 1187 OFFCURVE",
"1115 1187 CURVE SMOOTH"
);
},
{
closed = 1;
nodes = (
"808 679 LINE",
"420 679 LINE",
"420 768 LINE",
"808 768 LINE"
);
}
);
width = 1228;
}
);
unicode = 0126;
},
{
glyphname = I;
lastChange = "2014-11-13 04:54:09 -0700";
layers = (
{
layerId = UUID0;
name = Regular;
paths = (
{
closed = 1;
nodes = (
"539 136 LINE",
"263 136 LINE SMOOTH",
"218 136 OFFCURVE",
"200 118 OFFCURVE",
"200 68 CURVE SMOOTH",
"200 18 OFFCURVE",
"218 0 OFFCURVE",
"263 0 CURVE SMOOTH",
"965 0 LINE SMOOTH",
"1010 0 OFFCURVE",
"1028 18 OFFCURVE",
"1028 68 CURVE SMOOTH",
"1028 118 OFFCURVE",
"1010 136 OFFCURVE",
"965 136 CURVE SMOOTH",
"689 136 LINE",
"689 1051 LINE",
"945 1051 LINE SMOOTH",
"990 1051 OFFCURVE",
"1008 1069 OFFCURVE",
"1008 1119 CURVE SMOOTH",
"1008 1169 OFFCURVE",
"990 1187 OFFCURVE",
"945 1187 CURVE SMOOTH",
"283 1187 LINE SMOOTH",
"238 1187 OFFCURVE",
"220 1169 OFFCURVE",
"220 1119 CURVE SMOOTH",
"220 1069 OFFCURVE",
"238 1051 OFFCURVE",
"283 1051 CURVE SMOOTH",
"539 1051 LINE"
);
}
);
width = 1228;
},
{
layerId = "8538028E-5D6C-4318-9676-30148CDA39CA";
name = Bold;
paths = (
{
closed = 1;
nodes = (
"489 205 LINE",
"233 205 LINE SMOOTH",
"188 205 OFFCURVE",
"170 187 OFFCURVE",
"170 102 CURVE SMOOTH",
"170 17 OFFCURVE",
"188 0 OFFCURVE",
"233 0 CURVE SMOOTH",
"995 0 LINE SMOOTH",
"1040 0 OFFCURVE",
"1058 17 OFFCURVE",
"1058 102 CURVE SMOOTH",
"1058 187 OFFCURVE",
"1040 205 OFFCURVE",
"995 205 CURVE SMOOTH",
"739 205 LINE",
"739 982 LINE",
"975 982 LINE SMOOTH",
"1020 982 OFFCURVE",
"1038 999 OFFCURVE",
"1038 1084 CURVE SMOOTH",
"1038 1169 OFFCURVE",
"1020 1187 OFFCURVE",
"975 1187 CURVE SMOOTH",
"253 1187 LINE SMOOTH",
"208 1187 OFFCURVE",
"190 1169 OFFCURVE",
"190 1084 CURVE SMOOTH",
"190 999 OFFCURVE",
"208 982 OFFCURVE",
"253 982 CURVE SMOOTH",
"489 982 LINE"
);
}
);
width = 1228;
}
);
unicode = 0049;
},
{
glyphname = IJ;
lastChange = "2014-11-13 04:54:09 -0700";
layers = (
{
layerId = UUID0;
name = Regular;
paths = (
{
closed = 1;
nodes = (
"783 1187 LINE SMOOTH",
"738 1187 OFFCURVE",
"720 1169 OFFCURVE",
"720 1119 CURVE SMOOTH",
"720 1069 OFFCURVE",
"738 1051 OFFCURVE",
"783 1051 CURVE SMOOTH",
"924 1051 LINE",
"924 263 LINE SMOOTH",
"924 167 OFFCURVE",
"888 126 OFFCURVE",
"805 126 CURVE SMOOTH",
"767 126 OFFCURVE",
"732 136 OFFCURVE",
"705 161 CURVE",
"705 415 LINE SMOOTH",
"705 461 OFFCURVE",
"686 480 OFFCURVE",
"630 480 CURVE SMOOTH",
"574 480 OFFCURVE",
"555 461 OFFCURVE",
"555 415 CURVE SMOOTH",
"555 130 LINE SMOOTH",
"555 107 OFFCURVE",
"560 90 OFFCURVE",
"571 79 CURVE SMOOTH",
"629 19 OFFCURVE",
"713 -22 OFFCURVE",
"804 -22 CURVE SMOOTH",
"993 -22 OFFCURVE",
"1074 74 OFFCURVE",
"1074 233 CURVE SMOOTH",
"1074 1051 LINE",
"1145 1051 LINE SMOOTH",
"1190 1051 OFFCURVE",
"1208 1069 OFFCURVE",
"1208 1119 CURVE SMOOTH",
"1208 1169 OFFCURVE",
"1190 1187 OFFCURVE",
"1145 1187 CURVE SMOOTH"
);
},
{
closed = 1;
nodes = (
"93 1187 LINE SMOOTH",
"48 1187 OFFCURVE",
"30 1169 OFFCURVE",
"30 1119 CURVE SMOOTH",
"30 1069 OFFCURVE",
"48 1051 OFFCURVE",
"93 1051 CURVE SMOOTH",
"179 1051 LINE",
"179 136 LINE",
"83 136 LINE SMOOTH",
"38 136 OFFCURVE",
"20 118 OFFCURVE",
"20 68 CURVE SMOOTH",
"20 18 OFFCURVE",
"38 0 OFFCURVE",
"83 0 CURVE SMOOTH",
"425 0 LINE SMOOTH",
"470 0 OFFCURVE",
"488 18 OFFCURVE",
"488 68 CURVE SMOOTH",
"488 118 OFFCURVE",
"470 136 OFFCURVE",
"425 136 CURVE SMOOTH",
"329 136 LINE",
"329 1051 LINE",
"415 1051 LINE SMOOTH",
"460 1051 OFFCURVE",
"478 1069 OFFCURVE",
"478 1119 CURVE SMOOTH",
"478 1169 OFFCURVE",
"460 1187 OFFCURVE",
"415 1187 CURVE SMOOTH"
);
}
);
width = 1228;
},
{
layerId = "8538028E-5D6C-4318-9676-30148CDA39CA";
name = Bold;
paths = (
{
closed = 1;
nodes = (
"733 1187 LINE SMOOTH",
"688 1187 OFFCURVE",
"670 1169 OFFCURVE",
"670 1084 CURVE SMOOTH",
"670 999 OFFCURVE",
"688 982 OFFCURVE",
"733 982 CURVE SMOOTH",
"889 982 LINE",
"889 313 LINE SMOOTH",
"889 239 OFFCURVE",
"869 205 OFFCURVE",
"815 205 CURVE SMOOTH",
"785 205 OFFCURVE",
"763 211 OFFCURVE",
"739 222 CURVE",
"739 435 LINE SMOOTH",
"739 480 OFFCURVE",
"715 498 OFFCURVE",
"625 498 CURVE SMOOTH",
"535 498 OFFCURVE",
"499 480 OFFCURVE",
"499 435 CURVE SMOOTH",
"499 108 LINE SMOOTH",
"499 85 OFFCURVE",
"505 67 OFFCURVE",
"518 59 CURVE SMOOTH",
"601 9 OFFCURVE",
"717 -22 OFFCURVE",
"818 -22 CURVE SMOOTH",
"1034 -22 OFFCURVE",
"1139 82 OFFCURVE",
"1139 293 CURVE SMOOTH",
"1139 982 LINE",
"1185 982 LINE SMOOTH",
"1230 982 OFFCURVE",
"1248 999 OFFCURVE",
"1248 1084 CURVE SMOOTH",
"1248 1169 OFFCURVE",
"1230 1187 OFFCURVE",
"1185 1187 CURVE SMOOTH"
);
},
{
closed = 1;
nodes = (
"43 1187 LINE SMOOTH",
"-2 1187 OFFCURVE",
"-20 1169 OFFCURVE",
"-20 1084 CURVE SMOOTH",
"-20 999 OFFCURVE",
"-2 982 OFFCURVE",
"43 982 CURVE SMOOTH",
"89 982 LINE",
"89 205 LINE",
"33 205 LINE SMOOTH",
"-12 205 OFFCURVE",
"-30 187 OFFCURVE",
"-30 102 CURVE SMOOTH",
"-30 17 OFFCURVE",
"-12 0 OFFCURVE",
"33 0 CURVE SMOOTH",
"395 0 LINE SMOOTH",
"440 0 OFFCURVE",
"458 17 OFFCURVE",
"458 102 CURVE SMOOTH",
"458 187 OFFCURVE",
"440 205 OFFCURVE",
"395 205 CURVE SMOOTH",
"339 205 LINE",
"339 982 LINE",
"385 982 LINE SMOOTH",
"430 982 OFFCURVE",
"448 999 OFFCURVE",
"448 1084 CURVE SMOOTH",
"448 1169 OFFCURVE",
"430 1187 OFFCURVE",
"385 1187 CURVE SMOOTH"
);
}
);
width = 1228;
}
);
unicode = 0132;
},
{
color = (0,243,255,1);
glyphname = Iogonek;
lastChange = "2014-11-13 04:54:09 -0700";
layers = (
{
background = {
paths = (
{
closed = 1;
nodes = (
"539 136 LINE",
"263 136 LINE SMOOTH",
"218 136 OFFCURVE",
"200 118 OFFCURVE",
"200 68 CURVE SMOOTH",
"200 18 OFFCURVE",
"218 0 OFFCURVE",
"263 0 CURVE SMOOTH",
"535 0 LINE",
"435 -88 OFFCURVE",
"371 -179 OFFCURVE",
"371 -281 CURVE SMOOTH",
"371 -397 OFFCURVE",
"447 -472 OFFCURVE",
"571 -472 CURVE SMOOTH",
"633 -472 OFFCURVE",
"689 -462 OFFCURVE",
"735 -446 CURVE SMOOTH",
"764 -436 OFFCURVE",
"773 -415 OFFCURVE",
"767 -374 CURVE SMOOTH",
"762 -337 OFFCURVE",
"743 -322 OFFCURVE",
"717 -326 CURVE SMOOTH",
"682 -332 OFFCURVE",
"643 -336 OFFCURVE",
"604 -336 CURVE SMOOTH",
"559 -336 OFFCURVE",
"527 -310 OFFCURVE",
"527 -261 CURVE SMOOTH",
"527 -188 OFFCURVE",
"574 -110 OFFCURVE",
"693 0 CURVE",
"965 0 LINE SMOOTH",
"1010 0 OFFCURVE",
"1028 18 OFFCURVE",
"1028 68 CURVE SMOOTH",
"1028 118 OFFCURVE",
"1010 136 OFFCURVE",
"965 136 CURVE SMOOTH",
"689 136 LINE",
"689 1051 LINE",
"945 1051 LINE SMOOTH",
"990 1051 OFFCURVE",
"1008 1069 OFFCURVE",
"1008 1119 CURVE SMOOTH",
"1008 1169 OFFCURVE",
"990 1187 OFFCURVE",
"945 1187 CURVE SMOOTH",
"283 1187 LINE SMOOTH",
"238 1187 OFFCURVE",
"220 1169 OFFCURVE",
"220 1119 CURVE SMOOTH",
"220 1069 OFFCURVE",
"238 1051 OFFCURVE",
"283 1051 CURVE SMOOTH",
"539 1051 LINE"
);
}
);
};
components = (
{
name = I;
transform = "{1, 0, 0, 1, 0, 0}";
},
{
name = ogonek;
transform = "{1, 0, 0, 1, -40, 0}";
}
);
layerId = UUID0;
name = Regular;
width = 1228;
},
{
background = {
paths = (
{
closed = 1;
nodes = (
"489 205 LINE",
"233 205 LINE SMOOTH",
"188 205 OFFCURVE",
"170 187 OFFCURVE",
"170 102 CURVE SMOOTH",
"170 17 OFFCURVE",
"188 0 OFFCURVE",
"233 0 CURVE SMOOTH",
"504 0 LINE",
"398 -72 OFFCURVE",
"319 -154 OFFCURVE",
"319 -269 CURVE SMOOTH",
"319 -402 OFFCURVE",
"409 -472 OFFCURVE",
"565 -472 CURVE SMOOTH",
"638 -472 OFFCURVE",
"714 -459 OFFCURVE",
"781 -438 CURVE SMOOTH",
"809 -429 OFFCURVE",
"822 -399 OFFCURVE",
"818 -353 CURVE SMOOTH",
"814 -307 OFFCURVE",
"796 -281 OFFCURVE",
"770 -285 CURVE SMOOTH",
"727 -292 OFFCURVE",
"689 -298 OFFCURVE",
"650 -298 CURVE SMOOTH",
"593 -298 OFFCURVE",
"562 -278 OFFCURVE",
"562 -231 CURVE SMOOTH",
"562 -163 OFFCURVE",
"623 -84 OFFCURVE",
"721 0 CURVE",
"995 0 LINE SMOOTH",
"1040 0 OFFCURVE",
"1058 17 OFFCURVE",
"1058 102 CURVE SMOOTH",
"1058 187 OFFCURVE",
"1040 205 OFFCURVE",
"995 205 CURVE SMOOTH",
"739 205 LINE",
"739 982 LINE",
"975 982 LINE SMOOTH",
"1020 982 OFFCURVE",
"1038 999 OFFCURVE",
"1038 1084 CURVE SMOOTH",
"1038 1169 OFFCURVE",
"1020 1187 OFFCURVE",
"975 1187 CURVE SMOOTH",
"253 1187 LINE SMOOTH",
"208 1187 OFFCURVE",
"190 1169 OFFCURVE",
"190 1084 CURVE SMOOTH",
"190 999 OFFCURVE",
"208 982 OFFCURVE",
"253 982 CURVE SMOOTH",
"489 982 LINE"
);
}
);
};
components = (
{
name = I;
transform = "{1, 0, 0, 1, 0, 0}";
},
{
name = ogonek;
transform = "{1, 0, 0, 1, -30, 0}";
}
);
layerId = "8538028E-5D6C-4318-9676-30148CDA39CA";
name = Bold;
width = 1228;
}
);
unicode = 012E;
},
{
glyphname = J;
lastChange = "2014-11-13 04:54:09 -0700";
layers = (
{
layerId = UUID0;
name = Regular;
paths = (
{
closed = 1;
nodes = (
"744 1051 LINE",
"744 363 LINE SMOOTH",
"744 205 OFFCURVE",
"672 126 OFFCURVE",
"495 126 CURVE SMOOTH",
"398 126 OFFCURVE",
"320 152 OFFCURVE",
"265 201 CURVE",
"265 465 LINE SMOOTH",
"265 511 OFFCURVE",
"246 530 OFFCURVE",
"190 530 CURVE SMOOTH",
"134 530 OFFCURVE",
"115 511 OFFCURVE",
"115 465 CURVE SMOOTH",
"115 180 LINE SMOOTH",
"115 157 OFFCURVE",
"121 141 OFFCURVE",
"131 129 CURVE SMOOTH",
"212 40 OFFCURVE",
"336 -22 OFFCURVE",
"494 -22 CURVE SMOOTH",
"754 -22 OFFCURVE",
"894 98 OFFCURVE",
"894 333 CURVE SMOOTH",
"894 1051 LINE",
"1095 1051 LINE SMOOTH",
"1140 1051 OFFCURVE",
"1158 1069 OFFCURVE",
"1158 1119 CURVE SMOOTH",
"1158 1169 OFFCURVE",
"1140 1187 OFFCURVE",
"1095 1187 CURVE SMOOTH",
"403 1187 LINE SMOOTH",
"358 1187 OFFCURVE",
"340 1169 OFFCURVE",
"340 1119 CURVE SMOOTH",
"340 1069 OFFCURVE",
"358 1051 OFFCURVE",
"403 1051 CURVE SMOOTH"
);
}
);
width = 1228;
},
{
layerId = "8538028E-5D6C-4318-9676-30148CDA39CA";
name = Bold;
paths = (
{
closed = 1;
nodes = (
"679 982 LINE",
"679 383 LINE SMOOTH",
"679 260 OFFCURVE",
"623 205 OFFCURVE",
"515 205 CURVE SMOOTH",
"452 205 OFFCURVE",
"396 216 OFFCURVE",
"349 239 CURVE",
"349 499 LINE SMOOTH",
"349 544 OFFCURVE",
"326 562 OFFCURVE",
"231 562 CURVE SMOOTH",
"136 562 OFFCURVE",
"99 544 OFFCURVE",
"99 499 CURVE SMOOTH",
"99 175 LINE SMOOTH",
"99 152 OFFCURVE",
"104 136 OFFCURVE",
"115 125 CURVE SMOOTH",
"218 27 OFFCURVE",
"348 -22 OFFCURVE",
"504 -22 CURVE SMOOTH",
"781 -22 OFFCURVE",
"929 105 OFFCURVE",
"929 363 CURVE SMOOTH",
"929 982 LINE",
"1115 982 LINE SMOOTH",
"1160 982 OFFCURVE",
"1178 999 OFFCURVE",
"1178 1084 CURVE SMOOTH",
"1178 1169 OFFCURVE",
"1160 1187 OFFCURVE",
"1115 1187 CURVE SMOOTH",
"373 1187 LINE SMOOTH",
"328 1187 OFFCURVE",
"310 1169 OFFCURVE",
"310 1084 CURVE SMOOTH",
"310 999 OFFCURVE",
"328 982 OFFCURVE",
"373 982 CURVE SMOOTH"
);
}
);
width = 1228;
}
);
unicode = 004A;
},
{
glyphname = K;
lastChange = "2014-11-13 04:54:09 -0700";
layers = (
{
layerId = UUID0;
name = Regular;
paths = (
{
closed = 1;
nodes = (
"255 136 LINE",
"143 136 LINE SMOOTH",
"98 136 OFFCURVE",
"80 118 OFFCURVE",
"80 68 CURVE SMOOTH",
"80 18 OFFCURVE",
"98 0 OFFCURVE",
"143 0 CURVE SMOOTH",
"567 0 LINE SMOOTH",
"612 0 OFFCURVE",
"630 18 OFFCURVE",
"630 68 CURVE SMOOTH",
"630 118 OFFCURVE",
"612 136 OFFCURVE",
"567 136 CURVE SMOOTH",
"405 136 LINE",
"405 444 LINE",
"435 473 LINE SMOOTH",
"476 513 OFFCURVE",
"531 532 OFFCURVE",
"585 532 CURVE SMOOTH",
"647 532 OFFCURVE",
"696 506 OFFCURVE",
"728 460 CURVE SMOOTH",
"786 377 OFFCURVE",
"817 245 OFFCURVE",
"871 139 CURVE SMOOTH",
"923 37 OFFCURVE",
"984 0 OFFCURVE",
"1043 0 CURVE SMOOTH",
"1125 0 LINE SMOOTH",
"1170 0 OFFCURVE",
"1188 18 OFFCURVE",
"1188 68 CURVE SMOOTH",
"1188 118 OFFCURVE",
"1170 136 OFFCURVE",
"1125 136 CURVE SMOOTH",
"1097 136 LINE SMOOTH",
"1059 136 OFFCURVE",
"1031 164 OFFCURVE",
"1007 208 CURVE SMOOTH",
"958 297 OFFCURVE",
"924 449 OFFCURVE",
"848 547 CURVE SMOOTH",
"786 626 OFFCURVE",
"705 652 OFFCURVE",
"615 646 CURVE",
"1038 1051 LINE",
"1095 1051 LINE SMOOTH",
"1140 1051 OFFCURVE",
"1158 1069 OFFCURVE",
"1158 1119 CURVE SMOOTH",
"1158 1169 OFFCURVE",
"1140 1187 OFFCURVE",
"1095 1187 CURVE SMOOTH",
"771 1187 LINE SMOOTH",
"726 1187 OFFCURVE",
"708 1169 OFFCURVE",
"708 1119 CURVE SMOOTH",
"708 1069 OFFCURVE",
"726 1051 OFFCURVE",
"771 1051 CURVE SMOOTH",
"839 1051 LINE",
"405 630 LINE",
"405 1051 LINE",
"497 1051 LINE SMOOTH",
"542 1051 OFFCURVE",
"560 1069 OFFCURVE",
"560 1119 CURVE SMOOTH",
"560 1169 OFFCURVE",
"542 1187 OFFCURVE",
"497 1187 CURVE SMOOTH",
"143 1187 LINE SMOOTH",
"98 1187 OFFCURVE",
"80 1169 OFFCURVE",
"80 1119 CURVE SMOOTH",
"80 1069 OFFCURVE",
"98 1051 OFFCURVE",
"143 1051 CURVE SMOOTH",
"255 1051 LINE"
);
}
);
width = 1228;
},
{
layerId = "8538028E-5D6C-4318-9676-30148CDA39CA";
name = Bold;
paths = (
{
closed = 1;
nodes = (
"220 205 LINE",
"113 205 LINE SMOOTH",
"68 205 OFFCURVE",
"50 187 OFFCURVE",
"50 102 CURVE SMOOTH",
"50 17 OFFCURVE",
"68 0 OFFCURVE",
"113 0 CURVE SMOOTH",
"585 0 LINE SMOOTH",
"630 0 OFFCURVE",
"648 17 OFFCURVE",
"648 102 CURVE SMOOTH",
"648 187 OFFCURVE",
"630 205 OFFCURVE",
"585 205 CURVE SMOOTH",
"470 205 LINE",
"470 381 LINE",
"521 431 LINE SMOOTH",
"545 454 OFFCURVE",
"572 465 OFFCURVE",
"600 465 CURVE SMOOTH",
"646 465 OFFCURVE",
"690 432 OFFCURVE",
"724 381 CURVE SMOOTH",
"766 317 OFFCURVE",
"802 221 OFFCURVE",
"844 142 CURVE SMOOTH",
"885 65 OFFCURVE",
"937 0 OFFCURVE",
"1026 0 CURVE SMOOTH",
"1165 0 LINE SMOOTH",
"1210 0 OFFCURVE",
"1228 17 OFFCURVE",
"1228 102 CURVE SMOOTH",
"1228 187 OFFCURVE",
"1210 205 OFFCURVE",
"1165 205 CURVE SMOOTH",
"1155 205 LINE SMOOTH",
"1112 205 OFFCURVE",
"1081 236 OFFCURVE",
"1054 282 CURVE SMOOTH",
"1011 354 OFFCURVE",
"977 453 OFFCURVE",
"919 535 CURVE SMOOTH",
"875 598 OFFCURVE",
"813 637 OFFCURVE",
"737 641 CURVE",
"1087 982 LINE",
"1130 982 LINE SMOOTH",
"1175 982 OFFCURVE",
"1193 999 OFFCURVE",
"1193 1084 CURVE SMOOTH",
"1193 1169 OFFCURVE",
"1175 1187 OFFCURVE",
"1130 1187 CURVE SMOOTH",
"741 1187 LINE SMOOTH",
"696 1187 OFFCURVE",
"678 1169 OFFCURVE",
"678 1084 CURVE SMOOTH",
"678 999 OFFCURVE",
"696 982 OFFCURVE",
"741 982 CURVE SMOOTH",
"794 982 LINE",
"470 662 LINE",
"470 982 LINE",
"517 982 LINE SMOOTH",
"562 982 OFFCURVE",
"580 999 OFFCURVE",
"580 1084 CURVE SMOOTH",
"580 1169 OFFCURVE",
"562 1187 OFFCURVE",
"517 1187 CURVE SMOOTH",
"113 1187 LINE SMOOTH",
"68 1187 OFFCURVE",
"50 1169 OFFCURVE",
"50 1084 CURVE SMOOTH",
"50 999 OFFCURVE",
"68 982 OFFCURVE",
"113 982 CURVE SMOOTH",
"220 982 LINE"
);
}
);
width = 1228;
}
);
unicode = 004B;
},
{
glyphname = L;
lastChange = "2014-11-13 04:54:09 -0700";
layers = (
{
layerId = UUID0;
name = Regular;
paths = (
{
closed = 1;
nodes = (
"305 136 LINE",
"143 136 LINE SMOOTH",
"98 136 OFFCURVE",
"80 118 OFFCURVE",
"80 68 CURVE SMOOTH",
"80 18 OFFCURVE",
"98 0 OFFCURVE",
"143 0 CURVE SMOOTH",
"1037 0 LINE SMOOTH",
"1082 0 OFFCURVE",
"1100 18 OFFCURVE",
"1100 68 CURVE SMOOTH",
"1100 465 LINE SMOOTH",
"1100 511 OFFCURVE",
"1081 530 OFFCURVE",
"1025 530 CURVE SMOOTH",
"969 530 OFFCURVE",
"950 511 OFFCURVE",
"950 465 CURVE SMOOTH",
"950 136 LINE",
"455 136 LINE",
"455 1051 LINE",
"697 1051 LINE SMOOTH",
"742 1051 OFFCURVE",
"760 1069 OFFCURVE",
"760 1119 CURVE SMOOTH",
"760 1169 OFFCURVE",
"742 1187 OFFCURVE",
"697 1187 CURVE SMOOTH",
"143 1187 LINE SMOOTH",
"98 1187 OFFCURVE",
"80 1169 OFFCURVE",
"80 1119 CURVE SMOOTH",
"80 1069 OFFCURVE",
"98 1051 OFFCURVE",
"143 1051 CURVE SMOOTH",
"305 1051 LINE"
);
}
);
width = 1228;
},
{
layerId = "8538028E-5D6C-4318-9676-30148CDA39CA";
name = Bold;
paths = (
{
closed = 1;
nodes = (
"269 205 LINE",
"123 205 LINE SMOOTH",
"78 205 OFFCURVE",
"60 187 OFFCURVE",
"60 102 CURVE SMOOTH",
"60 17 OFFCURVE",
"78 0 OFFCURVE",
"123 0 CURVE SMOOTH",
"1055 0 LINE SMOOTH",
"1101 0 OFFCURVE",
"1120 19 OFFCURVE",
"1120 65 CURVE SMOOTH",
"1120 527 LINE SMOOTH",
"1120 572 OFFCURVE",
"1097 590 OFFCURVE",
"1002 590 CURVE SMOOTH",
"907 590 OFFCURVE",
"870 572 OFFCURVE",
"870 527 CURVE SMOOTH",
"870 215 LINE",
"519 215 LINE",
"519 982 LINE",
"737 982 LINE SMOOTH",
"782 982 OFFCURVE",
"800 999 OFFCURVE",
"800 1084 CURVE SMOOTH",
"800 1169 OFFCURVE",
"782 1187 OFFCURVE",
"737 1187 CURVE SMOOTH",
"123 1187 LINE SMOOTH",
"78 1187 OFFCURVE",
"60 1169 OFFCURVE",
"60 1084 CURVE SMOOTH",
"60 999 OFFCURVE",
"78 982 OFFCURVE",
"123 982 CURVE SMOOTH",
"269 982 LINE"
);
}
);
width = 1228;
}
);
unicode = 004C;
},
{
color = 1;
glyphname = Ldot;
lastChange = "2014-11-13 04:54:09 -0700";
layers = (
{
layerId = UUID0;
name = Regular;
paths = (
{
closed = 1;
nodes = (
"143 1187 LINE SMOOTH",
"98 1187 OFFCURVE",
"80 1169 OFFCURVE",
"80 1119 CURVE SMOOTH",
"80 1069 OFFCURVE",
"98 1051 OFFCURVE",
"143 1051 CURVE SMOOTH",
"305 1051 LINE",
"305 136 LINE",
"143 136 LINE SMOOTH",
"98 136 OFFCURVE",
"80 118 OFFCURVE",
"80 68 CURVE SMOOTH",
"80 18 OFFCURVE",
"98 0 OFFCURVE",
"143 0 CURVE SMOOTH",
"1037 0 LINE SMOOTH",
"1082 0 OFFCURVE",
"1100 18 OFFCURVE",
"1100 68 CURVE SMOOTH",
"1100 465 LINE SMOOTH",
"1100 511 OFFCURVE",
"1081 530 OFFCURVE",
"1025 530 CURVE SMOOTH",
"969 530 OFFCURVE",
"950 511 OFFCURVE",
"950 465 CURVE SMOOTH",
"950 136 LINE",
"455 136 LINE",
"455 1051 LINE",
"697 1051 LINE SMOOTH",
"742 1051 OFFCURVE",
"760 1069 OFFCURVE",
"760 1119 CURVE SMOOTH",
"760 1169 OFFCURVE",
"742 1187 OFFCURVE",
"697 1187 CURVE SMOOTH"
);
},
{
closed = 1;
nodes = (
"666 851 OFFCURVE",
"603 788 OFFCURVE",
"603 710 CURVE SMOOTH",
"603 632 OFFCURVE",
"666 569 OFFCURVE",
"744 569 CURVE SMOOTH",
"822 569 OFFCURVE",
"885 632 OFFCURVE",
"885 710 CURVE SMOOTH",
"885 788 OFFCURVE",
"822 851 OFFCURVE",
"744 851 CURVE SMOOTH"
);
}
);
width = 1228;
},
{
layerId = "8538028E-5D6C-4318-9676-30148CDA39CA";
name = Bold;
paths = (
{
closed = 1;
nodes = (
"123 1187 LINE SMOOTH",
"78 1187 OFFCURVE",
"60 1169 OFFCURVE",
"60 1084 CURVE SMOOTH",
"60 999 OFFCURVE",
"78 982 OFFCURVE",
"123 982 CURVE SMOOTH",
"269 982 LINE",
"269 205 LINE",
"123 205 LINE SMOOTH",
"78 205 OFFCURVE",
"60 187 OFFCURVE",
"60 102 CURVE SMOOTH",
"60 17 OFFCURVE",
"78 0 OFFCURVE",
"123 0 CURVE SMOOTH",
"1055 0 LINE SMOOTH",
"1101 0 OFFCURVE",
"1120 19 OFFCURVE",
"1120 65 CURVE SMOOTH",
"1120 397 LINE SMOOTH",
"1120 442 OFFCURVE",
"1097 460 OFFCURVE",
"1002 460 CURVE SMOOTH",
"907 460 OFFCURVE",
"870 442 OFFCURVE",
"870 397 CURVE SMOOTH",
"870 215 LINE",
"519 215 LINE",
"519 982 LINE",
"737 982 LINE SMOOTH",
"782 982 OFFCURVE",
"800 999 OFFCURVE",
"800 1084 CURVE SMOOTH",
"800 1169 OFFCURVE",
"782 1187 OFFCURVE",
"737 1187 CURVE SMOOTH"
);
},
{
closed = 1;
nodes = (
"715 896 OFFCURVE",
"634 815 OFFCURVE",
"634 716 CURVE SMOOTH",
"634 617 OFFCURVE",
"715 536 OFFCURVE",
"814 536 CURVE SMOOTH",
"913 536 OFFCURVE",
"994 617 OFFCURVE",
"994 716 CURVE SMOOTH",
"994 815 OFFCURVE",
"913 896 OFFCURVE",
"814 896 CURVE SMOOTH"
);
}
);
width = 1228;
}
);
unicode = 013F;
},
{
color = (0,243,255,1);
glyphname = Lslash;
lastChange = "2014-11-13 04:54:09 -0700";
layers = (
{
layerId = UUID0;
name = Regular;
paths = (
{
closed = 1;
nodes = (
"305 136 LINE",
"143 136 LINE SMOOTH",
"98 136 OFFCURVE",
"80 118 OFFCURVE",
"80 68 CURVE SMOOTH",
"80 18 OFFCURVE",
"98 0 OFFCURVE",
"143 0 CURVE SMOOTH",
"1037 0 LINE SMOOTH",
"1082 0 OFFCURVE",
"1100 18 OFFCURVE",
"1100 68 CURVE SMOOTH",
"1100 465 LINE SMOOTH",
"1100 511 OFFCURVE",
"1081 530 OFFCURVE",
"1025 530 CURVE SMOOTH",
"969 530 OFFCURVE",
"950 511 OFFCURVE",
"950 465 CURVE SMOOTH",
"950 136 LINE",
"455 136 LINE",
"455 550 LINE",
"738 743 LINE SMOOTH",
"775 768 OFFCURVE",
"780 793 OFFCURVE",
"752 834 CURVE SMOOTH",
"724 876 OFFCURVE",
"698 880 OFFCURVE",
"661 855 CURVE SMOOTH",
"455 715 LINE",
"455 1051 LINE",
"697 1051 LINE SMOOTH",
"742 1051 OFFCURVE",
"760 1069 OFFCURVE",
"760 1119 CURVE SMOOTH",
"760 1169 OFFCURVE",
"742 1187 OFFCURVE",
"697 1187 CURVE SMOOTH",
"143 1187 LINE SMOOTH",
"98 1187 OFFCURVE",
"80 1169 OFFCURVE",
"80 1119 CURVE SMOOTH",
"80 1069 OFFCURVE",
"98 1051 OFFCURVE",
"143 1051 CURVE SMOOTH",
"305 1051 LINE",
"305 613 LINE",
"92 468 LINE SMOOTH",
"55 443 OFFCURVE",
"50 418 OFFCURVE",
"78 377 CURVE SMOOTH",
"106 335 OFFCURVE",
"132 331 OFFCURVE",
"169 356 CURVE SMOOTH",
"305 448 LINE"
);
}
);
width = 1228;
},
{
layerId = "8538028E-5D6C-4318-9676-30148CDA39CA";
name = Bold;
paths = (
{
closed = 1;
nodes = (
"269 205 LINE",
"123 205 LINE SMOOTH",
"78 205 OFFCURVE",
"60 187 OFFCURVE",
"60 102 CURVE SMOOTH",
"60 17 OFFCURVE",
"78 0 OFFCURVE",
"123 0 CURVE SMOOTH",
"1055 0 LINE SMOOTH",
"1101 0 OFFCURVE",
"1120 19 OFFCURVE",
"1120 65 CURVE SMOOTH",
"1120 527 LINE SMOOTH",
"1120 572 OFFCURVE",
"1097 590 OFFCURVE",
"1002 590 CURVE SMOOTH",
"907 590 OFFCURVE",
"870 572 OFFCURVE",
"870 527 CURVE SMOOTH",
"870 215 LINE",
"519 215 LINE",
"519 536 LINE",
"795 700 LINE SMOOTH",
"833 723 OFFCURVE",
"840 747 OFFCURVE",
"797 820 CURVE SMOOTH",
"753 893 OFFCURVE",
"729 899 OFFCURVE",
"690 876 CURVE SMOOTH",
"519 774 LINE",
"519 982 LINE",
"737 982 LINE SMOOTH",
"782 982 OFFCURVE",
"800 999 OFFCURVE",
"800 1084 CURVE SMOOTH",
"800 1169 OFFCURVE",
"782 1187 OFFCURVE",
"737 1187 CURVE SMOOTH",
"123 1187 LINE SMOOTH",
"78 1187 OFFCURVE",
"60 1169 OFFCURVE",
"60 1084 CURVE SMOOTH",
"60 999 OFFCURVE",
"78 982 OFFCURVE",
"123 982 CURVE SMOOTH",
"269 982 LINE",
"269 626 LINE",
"35 487 LINE SMOOTH",
"-4 464 OFFCURVE",
"-10 439 OFFCURVE",
"33 366 CURVE SMOOTH",
"77 293 OFFCURVE",
"101 288 OFFCURVE",
"139 311 CURVE SMOOTH",
"269 388 LINE"
);
}
);
width = 1228;
}
);
unicode = 0141;
},
{
glyphname = M;
lastChange = "2014-11-13 04:54:09 -0700";
layers = (
{
layerId = UUID0;
name = Regular;
paths = (
{
closed = 1;
nodes = (
"894 1187 LINE SMOOTH",
"862 1187 OFFCURVE",
"843 1177 OFFCURVE",
"835 1154 CURVE SMOOTH",
"614 545 LINE",
"392 1154 LINE SMOOTH",
"384 1177 OFFCURVE",
"366 1187 OFFCURVE",
"334 1187 CURVE SMOOTH",
"123 1187 LINE SMOOTH",
"78 1187 OFFCURVE",
"60 1169 OFFCURVE",
"60 1119 CURVE SMOOTH",
"60 1069 OFFCURVE",
"78 1051 OFFCURVE",
"123 1051 CURVE SMOOTH",
"172 1051 LINE",
"147 136 LINE",
"93 136 LINE SMOOTH",
"48 136 OFFCURVE",
"30 118 OFFCURVE",
"30 68 CURVE SMOOTH",
"30 18 OFFCURVE",
"48 0 OFFCURVE",
"93 0 CURVE SMOOTH",
"407 0 LINE SMOOTH",
"452 0 OFFCURVE",
"470 18 OFFCURVE",
"470 68 CURVE SMOOTH",
"470 118 OFFCURVE",
"452 136 OFFCURVE",
"407 136 CURVE SMOOTH",
"296 136 LINE",
"317 955 LINE",
"522 385 LINE SMOOTH",
"539 338 OFFCURVE",
"567 320 OFFCURVE",
"614 320 CURVE SMOOTH",
"661 320 OFFCURVE",
"689 338 OFFCURVE",
"706 385 CURVE SMOOTH",
"910 955 LINE",
"932 136 LINE",
"821 136 LINE SMOOTH",
"776 136 OFFCURVE",
"758 118 OFFCURVE",
"758 68 CURVE SMOOTH",
"758 18 OFFCURVE",
"776 0 OFFCURVE",
"821 0 CURVE SMOOTH",
"1135 0 LINE SMOOTH",
"1180 0 OFFCURVE",
"1198 18 OFFCURVE",
"1198 68 CURVE SMOOTH",
"1198 118 OFFCURVE",
"1180 136 OFFCURVE",
"1135 136 CURVE SMOOTH",
"1081 136 LINE",
"1055 1051 LINE",
"1105 1051 LINE SMOOTH",
"1150 1051 OFFCURVE",
"1168 1069 OFFCURVE",
"1168 1119 CURVE SMOOTH",
"1168 1169 OFFCURVE",
"1150 1187 OFFCURVE",
"1105 1187 CURVE SMOOTH"
);
}
);
width = 1228;
},
{
layerId = "8538028E-5D6C-4318-9676-30148CDA39CA";
name = Bold;
paths = (
{
closed = 1;
nodes = (
"850 1187 LINE SMOOTH",
"823 1187 OFFCURVE",
"805 1180 OFFCURVE",
"796 1156 CURVE SMOOTH",
"614 665 LINE",
"431 1156 LINE SMOOTH",
"422 1180 OFFCURVE",
"404 1187 OFFCURVE",
"377 1187 CURVE SMOOTH",
"93 1187 LINE SMOOTH",
"48 1187 OFFCURVE",
"30 1169 OFFCURVE",
"30 1084 CURVE SMOOTH",
"30 999 OFFCURVE",
"48 982 OFFCURVE",
"93 982 CURVE SMOOTH",
"147 982 LINE",
"132 205 LINE",
"73 205 LINE SMOOTH",
"28 205 OFFCURVE",
"10 187 OFFCURVE",
"10 102 CURVE SMOOTH",
"10 17 OFFCURVE",
"28 0 OFFCURVE",
"73 0 CURVE SMOOTH",
"447 0 LINE SMOOTH",
"492 0 OFFCURVE",
"510 17 OFFCURVE",
"510 102 CURVE SMOOTH",
"510 187 OFFCURVE",
"492 205 OFFCURVE",
"447 205 CURVE SMOOTH",
"354 205 LINE",
"360 794 LINE",
"512 389 LINE SMOOTH",
"530 343 OFFCURVE",
"558 325 OFFCURVE",
"615 325 CURVE SMOOTH",
"672 325 OFFCURVE",
"699 343 OFFCURVE",
"716 389 CURVE SMOOTH",
"867 797 LINE",
"873 205 LINE",
"781 205 LINE SMOOTH",
"736 205 OFFCURVE",
"718 187 OFFCURVE",
"718 102 CURVE SMOOTH",
"718 17 OFFCURVE",
"736 0 OFFCURVE",
"781 0 CURVE SMOOTH",
"1155 0 LINE SMOOTH",
"1200 0 OFFCURVE",
"1218 17 OFFCURVE",
"1218 102 CURVE SMOOTH",
"1218 187 OFFCURVE",
"1200 205 OFFCURVE",
"1155 205 CURVE SMOOTH",
"1095 205 LINE",
"1081 982 LINE",
"1135 982 LINE SMOOTH",
"1180 982 OFFCURVE",
"1198 999 OFFCURVE",
"1198 1084 CURVE SMOOTH",
"1198 1169 OFFCURVE",
"1180 1187 OFFCURVE",
"1135 1187 CURVE SMOOTH"
);
}
);
width = 1228;
}
);
unicode = 004D;
},
{
glyphname = N;
lastChange = "2014-11-13 04:54:09 -0700";
layers = (
{
layerId = UUID0;
name = Regular;
paths = (
{
closed = 1;
nodes = (
"771 1187 LINE SMOOTH",
"726 1187 OFFCURVE",
"708 1169 OFFCURVE",
"708 1119 CURVE SMOOTH",
"708 1069 OFFCURVE",
"726 1051 OFFCURVE",
"771 1051 CURVE SMOOTH",
"888 1051 LINE",
"888 311 LINE",
"414 1159 LINE SMOOTH",
"403 1178 OFFCURVE",
"386 1187 OFFCURVE",
"357 1187 CURVE SMOOTH",
"133 1187 LINE SMOOTH",
"88 1187 OFFCURVE",
"70 1169 OFFCURVE",
"70 1119 CURVE SMOOTH",
"70 1069 OFFCURVE",
"88 1051 OFFCURVE",
"133 1051 CURVE SMOOTH",
"210 1051 LINE",
"210 136 LINE",
"143 136 LINE SMOOTH",
"98 136 OFFCURVE",
"80 118 OFFCURVE",
"80 68 CURVE SMOOTH",
"80 18 OFFCURVE",
"98 0 OFFCURVE",
"143 0 CURVE SMOOTH",
"497 0 LINE SMOOTH",
"542 0 OFFCURVE",
"560 18 OFFCURVE",
"560 68 CURVE SMOOTH",
"560 118 OFFCURVE",
"542 136 OFFCURVE",
"497 136 CURVE SMOOTH",
"360 136 LINE",
"360 960 LINE",
"879 33 LINE SMOOTH",
"899 -2 OFFCURVE",
"925 -22 OFFCURVE",
"963 -22 CURVE SMOOTH",
"1015 -22 OFFCURVE",
"1038 2 OFFCURVE",
"1038 37 CURVE SMOOTH",
"1038 1051 LINE",
"1095 1051 LINE SMOOTH",
"1140 1051 OFFCURVE",
"1158 1069 OFFCURVE",
"1158 1119 CURVE SMOOTH",
"1158 1169 OFFCURVE",
"1140 1187 OFFCURVE",
"1095 1187 CURVE SMOOTH"
);
}
);
width = 1228;
},
{
layerId = "8538028E-5D6C-4318-9676-30148CDA39CA";
name = Bold;
paths = (
{
closed = 1;
nodes = (
"760 1187 LINE SMOOTH",
"715 1187 OFFCURVE",
"697 1169 OFFCURVE",
"697 1084 CURVE SMOOTH",
"697 999 OFFCURVE",
"715 982 OFFCURVE",
"760 982 CURVE SMOOTH",
"848 982 LINE",
"848 473 LINE",
"433 1160 LINE SMOOTH",
"421 1180 OFFCURVE",
"402 1187 OFFCURVE",
"377 1187 CURVE SMOOTH",
"113 1187 LINE SMOOTH",
"68 1187 OFFCURVE",
"50 1169 OFFCURVE",
"50 1084 CURVE SMOOTH",
"50 999 OFFCURVE",
"68 982 OFFCURVE",
"113 982 CURVE SMOOTH",
"180 982 LINE",
"180 205 LINE",
"113 205 LINE SMOOTH",
"68 205 OFFCURVE",
"50 187 OFFCURVE",
"50 102 CURVE SMOOTH",
"50 17 OFFCURVE",
"68 0 OFFCURVE",
"113 0 CURVE SMOOTH",
"517 0 LINE SMOOTH",
"562 0 OFFCURVE",
"580 17 OFFCURVE",
"580 102 CURVE SMOOTH",
"580 187 OFFCURVE",
"562 205 OFFCURVE",
"517 205 CURVE SMOOTH",
"410 205 LINE",
"410 776 LINE",
"860 31 LINE SMOOTH",
"881 -3 OFFCURVE",
"903 -22 OFFCURVE",
"968 -22 CURVE SMOOTH",
"1052 -22 OFFCURVE",
"1078 2 OFFCURVE",
"1078 44 CURVE SMOOTH",
"1078 982 LINE",
"1135 982 LINE SMOOTH",
"1180 982 OFFCURVE",
"1198 999 OFFCURVE",
"1198 1084 CURVE SMOOTH",
"1198 1169 OFFCURVE",
"1180 1187 OFFCURVE",
"1135 1187 CURVE SMOOTH"
);
}
);
width = 1228;
}
);
unicode = 004E;
},
{
color = 3;
glyphname = Eng;
lastChange = "2014-11-13 04:54:09 -0700";
layers = (
{
components = (
{
name = N;
transform = "{1, 0, 0, 1, 0, 0}";
}
);
layerId = UUID0;
name = Regular;
paths = (
{
closed = 1;
nodes = (
"888 193 LINE",
"888 -112 LINE SMOOTH",
"888 -225 OFFCURVE",
"848 -269 OFFCURVE",
"766 -269 CURVE SMOOTH",
"706 -269 OFFCURVE",
"642 -251 OFFCURVE",
"589 -229 CURVE SMOOTH",
"560 -217 OFFCURVE",
"529 -217 OFFCURVE",
"506 -270 CURVE SMOOTH",
"484 -320 OFFCURVE",
"496 -348 OFFCURVE",
"534 -365 CURVE SMOOTH",
"602 -395 OFFCURVE",
"685 -415 OFFCURVE",
"765 -415 CURVE SMOOTH",
"941 -415 OFFCURVE",
"1038 -319 OFFCURVE",
"1038 -140 CURVE SMOOTH",
"1038 193 LINE"
);
}
);
width = 1228;
},
{
components = (
{
name = N;
transform = "{1, 0, 0, 1, 0, 0}";
}
);
layerId = "8538028E-5D6C-4318-9676-30148CDA39CA";
name = Bold;
paths = (
{
closed = 1;
nodes = (
"828 331 LINE",
"828 -44 LINE SMOOTH",
"828 -140 OFFCURVE",
"790 -178 OFFCURVE",
"709 -178 CURVE SMOOTH",
"672 -178 OFFCURVE",
"616 -167 OFFCURVE",
"568 -152 CURVE SMOOTH",
"527 -139 OFFCURVE",
"495 -158 OFFCURVE",
"474 -240 CURVE SMOOTH",
"453 -324 OFFCURVE",
"463 -358 OFFCURVE",
"507 -375 CURVE SMOOTH",
"575 -401 OFFCURVE",
"651 -415 OFFCURVE",
"716 -415 CURVE SMOOTH",
"955 -415 OFFCURVE",
"1078 -297 OFFCURVE",
"1078 -60 CURVE SMOOTH",
"1078 331 LINE"
);
}
);
width = 1228;
}
);
unicode = 014A;
},
{
glyphname = O;
lastChange = "2014-11-13 04:54:09 -0700";
layers = (
{
layerId = UUID0;
name = Regular;
paths = (
{
closed = 1;
nodes = (
"299 1209 OFFCURVE",
"88 963 OFFCURVE",
"88 593 CURVE SMOOTH",
"88 223 OFFCURVE",
"299 -22 OFFCURVE",
"614 -22 CURVE SMOOTH",
"929 -22 OFFCURVE",
"1140 223 OFFCURVE",
"1140 593 CURVE SMOOTH",
"1140 963 OFFCURVE",
"929 1209 OFFCURVE",
"614 1209 CURVE SMOOTH"
);
},
{
closed = 1;
nodes = (
"836 1061 OFFCURVE",
"982 881 OFFCURVE",
"982 593 CURVE SMOOTH",
"982 305 OFFCURVE",
"836 126 OFFCURVE",
"614 126 CURVE SMOOTH",
"392 126 OFFCURVE",
"246 305 OFFCURVE",
"246 593 CURVE SMOOTH",
"246 881 OFFCURVE",
"392 1061 OFFCURVE",
"614 1061 CURVE SMOOTH"
);
}
);
width = 1228;
},
{
layerId = "8538028E-5D6C-4318-9676-30148CDA39CA";
name = Bold;
paths = (
{
closed = 1;
nodes = (
"284 1209 OFFCURVE",
"63 974 OFFCURVE",
"63 594 CURVE SMOOTH",
"63 214 OFFCURVE",
"284 -22 OFFCURVE",
"614 -22 CURVE SMOOTH",
"944 -22 OFFCURVE",
"1165 214 OFFCURVE",
"1165 594 CURVE SMOOTH",
"1165 974 OFFCURVE",
"944 1209 OFFCURVE",
"614 1209 CURVE SMOOTH"
);
},
{
closed = 1;
nodes = (
"801 982 OFFCURVE",
"897 842 OFFCURVE",
"897 594 CURVE SMOOTH",
"897 346 OFFCURVE",
"801 205 OFFCURVE",
"614 205 CURVE SMOOTH",
"427 205 OFFCURVE",
"331 346 OFFCURVE",
"331 594 CURVE SMOOTH",
"331 842 OFFCURVE",
"427 982 OFFCURVE",
"614 982 CURVE SMOOTH"
);
}
);
width = 1228;
}
);
unicode = 004F;
},
{
color = (0,243,255,1);
glyphname = Oslash;
lastChange = "2014-11-13 04:54:09 -0700";
layers = (
{
components = (
{
name = O;
transform = "{1, 0, 0, 1, 0, 0}";
}
);
layerId = UUID0;
name = Regular;
paths = (
{
closed = 1;
nodes = (
"991 1220 OFFCURVE",
"962 1217 OFFCURVE",
"936 1179 CURVE SMOOTH",
"177 90 LINE SMOOTH",
"151 52 OFFCURVE",
"157 25 OFFCURVE",
"198 -3 CURVE SMOOTH",
"238 -31 OFFCURVE",
"266 -28 OFFCURVE",
"292 10 CURVE SMOOTH",
"1051 1099 LINE SMOOTH",
"1077 1136 OFFCURVE",
"1071 1164 OFFCURVE",
"1031 1192 CURVE SMOOTH"
);
}
);
width = 1228;
},
{
components = (
{
name = O;
transform = "{1, 0, 0, 1, 0, 0}";
}
);
layerId = "8538028E-5D6C-4318-9676-30148CDA39CA";
name = Bold;
paths = (
{
closed = 1;
nodes = (
"961 1221 OFFCURVE",
"937 1217 OFFCURVE",
"911 1180 CURVE SMOOTH",
"165 114 LINE SMOOTH",
"139 77 OFFCURVE",
"144 52 OFFCURVE",
"206 9 CURVE SMOOTH",
"267 -34 OFFCURVE",
"292 -30 OFFCURVE",
"318 7 CURVE SMOOTH",
"1063 1073 LINE SMOOTH",
"1089 1110 OFFCURVE",
"1084 1135 OFFCURVE",
"1023 1178 CURVE SMOOTH"
);
}
);
width = 1228;
}
);
unicode = 00D8;
},
{
glyphname = OE;
lastChange = "2014-11-13 04:54:09 -0700";
layers = (
{
layerId = UUID0;
name = Regular;
paths = (
{
closed = 1;
nodes = (
"574 1187 LINE SMOOTH",
"264 1187 OFFCURVE",
"62 963 OFFCURVE",
"62 593 CURVE SMOOTH",
"62 223 OFFCURVE",
"264 0 OFFCURVE",
"574 0 CURVE SMOOTH",
"1075 0 LINE SMOOTH",
"1120 0 OFFCURVE",
"1138 18 OFFCURVE",
"1138 68 CURVE SMOOTH",
"1138 365 LINE SMOOTH",
"1138 411 OFFCURVE",
"1119 430 OFFCURVE",
"1063 430 CURVE SMOOTH",
"1007 430 OFFCURVE",
"988 411 OFFCURVE",
"988 365 CURVE SMOOTH",
"988 136 LINE",
"716 136 LINE",
"716 549 LINE",
"908 549 LINE SMOOTH",
"953 549 OFFCURVE",
"971 567 OFFCURVE",
"971 617 CURVE SMOOTH",
"971 667 OFFCURVE",
"953 685 OFFCURVE",
"908 685 CURVE SMOOTH",
"716 685 LINE",
"716 1051 LINE",
"976 1051 LINE",
"976 865 LINE SMOOTH",
"976 819 OFFCURVE",
"995 800 OFFCURVE",
"1051 800 CURVE SMOOTH",
"1107 800 OFFCURVE",
"1126 819 OFFCURVE",
"1126 865 CURVE SMOOTH",
"1126 1119 LINE SMOOTH",
"1126 1169 OFFCURVE",
"1108 1187 OFFCURVE",
"1063 1187 CURVE SMOOTH"
);
},
{
closed = 1;
nodes = (
"566 136 LINE",
"357 144 OFFCURVE",
"220 302 OFFCURVE",
"220 593 CURVE SMOOTH",
"220 884 OFFCURVE",
"357 1043 OFFCURVE",
"566 1050 CURVE"
);
}
);
width = 1228;
},
{
layerId = "8538028E-5D6C-4318-9676-30148CDA39CA";
name = Bold;
paths = (
{
closed = 1;
nodes = (
"594 1187 LINE",
"264 1187 OFFCURVE",
"63 974 OFFCURVE",
"63 594 CURVE SMOOTH",
"63 214 OFFCURVE",
"264 0 OFFCURVE",
"594 0 CURVE SMOOTH",
"1105 0 LINE SMOOTH",
"1151 0 OFFCURVE",
"1170 19 OFFCURVE",
"1170 65 CURVE SMOOTH",
"1170 387 LINE SMOOTH",
"1170 432 OFFCURVE",
"1151 450 OFFCURVE",
"1066 450 CURVE SMOOTH",
"981 450 OFFCURVE",
"950 432 OFFCURVE",
"950 387 CURVE SMOOTH",
"950 205 LINE",
"770 205 LINE",
"770 514 LINE",
"884 514 LINE SMOOTH",
"929 514 OFFCURVE",
"947 536 OFFCURVE",
"947 621 CURVE SMOOTH",
"947 706 OFFCURVE",
"929 729 OFFCURVE",
"884 729 CURVE SMOOTH",
"770 729 LINE",
"770 982 LINE",
"940 982 LINE",
"940 850 LINE SMOOTH",
"940 805 OFFCURVE",
"958 787 OFFCURVE",
"1038 787 CURVE SMOOTH",
"1118 787 OFFCURVE",
"1150 805 OFFCURVE",
"1150 850 CURVE SMOOTH",
"1150 1122 LINE SMOOTH",
"1150 1168 OFFCURVE",
"1131 1187 OFFCURVE",
"1085 1187 CURVE SMOOTH"
);
},
{
closed = 1;
nodes = (
"540 215 LINE",
"403 226 OFFCURVE",
"303 348 OFFCURVE",
"303 594 CURVE SMOOTH",
"303 840 OFFCURVE",
"403 961 OFFCURVE",
"540 972 CURVE"
);
}
);
width = 1228;
}
);
unicode = 0152;
},
{
glyphname = P;
lastChange = "2014-11-13 04:54:09 -0700";
layers = (
{
layerId = UUID0;
name = Regular;
paths = (
{
closed = 1;
nodes = (
"305 136 LINE",
"143 136 LINE SMOOTH",
"98 136 OFFCURVE",
"80 118 OFFCURVE",
"80 68 CURVE SMOOTH",
"80 18 OFFCURVE",
"98 0 OFFCURVE",
"143 0 CURVE SMOOTH",
"695 0 LINE SMOOTH",
"740 0 OFFCURVE",
"758 18 OFFCURVE",
"758 68 CURVE SMOOTH",
"758 118 OFFCURVE",
"740 136 OFFCURVE",
"695 136 CURVE SMOOTH",
"455 136 LINE",
"455 433 LINE",
"690 433 LINE SMOOTH",
"960 433 OFFCURVE",
"1112 583 OFFCURVE",
"1112 808 CURVE SMOOTH",
"1112 1034 OFFCURVE",
"960 1187 OFFCURVE",
"690 1187 CURVE SMOOTH",
"143 1187 LINE SMOOTH",
"98 1187 OFFCURVE",
"80 1169 OFFCURVE",
"80 1119 CURVE SMOOTH",
"80 1069 OFFCURVE",
"98 1051 OFFCURVE",
"143 1051 CURVE SMOOTH",
"305 1051 LINE"
);
},
{
closed = 1;
nodes = (
"455 569 LINE",
"455 1051 LINE",
"669 1051 LINE SMOOTH",
"856 1051 OFFCURVE",
"954 959 OFFCURVE",
"954 808 CURVE SMOOTH",
"954 659 OFFCURVE",
"856 569 OFFCURVE",
"669 569 CURVE SMOOTH"
);
}
);
width = 1228;
},
{
layerId = "8538028E-5D6C-4318-9676-30148CDA39CA";
name = Bold;
paths = (
{
closed = 1;
nodes = (
"270 205 LINE",
"123 205 LINE SMOOTH",
"78 205 OFFCURVE",
"60 187 OFFCURVE",
"60 102 CURVE SMOOTH",
"60 17 OFFCURVE",
"78 0 OFFCURVE",
"123 0 CURVE SMOOTH",
"737 0 LINE SMOOTH",
"782 0 OFFCURVE",
"800 17 OFFCURVE",
"800 102 CURVE SMOOTH",
"800 187 OFFCURVE",
"782 205 OFFCURVE",
"737 205 CURVE SMOOTH",
"520 205 LINE",
"520 382 LINE",
"670 382 LINE SMOOTH",
"980 382 OFFCURVE",
"1137 528 OFFCURVE",
"1137 785 CURVE SMOOTH",
"1137 1042 OFFCURVE",
"980 1187 OFFCURVE",
"670 1187 CURVE SMOOTH",
"123 1187 LINE SMOOTH",
"78 1187 OFFCURVE",
"60 1169 OFFCURVE",
"60 1084 CURVE SMOOTH",
"60 999 OFFCURVE",
"78 982 OFFCURVE",
"123 982 CURVE SMOOTH",
"270 982 LINE"
);
},
{
closed = 1;
nodes = (
"520 597 LINE",
"520 972 LINE",
"639 972 LINE SMOOTH",
"796 972 OFFCURVE",
"879 914 OFFCURVE",
"879 785 CURVE SMOOTH",
"879 656 OFFCURVE",
"796 597 OFFCURVE",
"639 597 CURVE SMOOTH"
);
}
);
width = 1228;
}
);
unicode = 0050;
},
{
glyphname = Thorn;
lastChange = "2014-11-13 04:54:09 -0700";
layers = (
{
layerId = UUID0;
name = Regular;
paths = (
{
closed = 1;
nodes = (
"329 136 LINE",
"173 136 LINE SMOOTH",
"128 136 OFFCURVE",
"110 118 OFFCURVE",
"110 68 CURVE SMOOTH",
"110 18 OFFCURVE",
"128 0 OFFCURVE",
"173 0 CURVE SMOOTH",
"695 0 LINE SMOOTH",
"740 0 OFFCURVE",
"758 18 OFFCURVE",
"758 68 CURVE SMOOTH",
"758 118 OFFCURVE",
"740 136 OFFCURVE",
"695 136 CURVE SMOOTH",
"479 136 LINE",
"479 273 LINE",
"710 273 LINE SMOOTH",
"950 273 OFFCURVE",
"1072 413 OFFCURVE",
"1072 598 CURVE SMOOTH",
"1072 784 OFFCURVE",
"950 927 OFFCURVE",
"710 927 CURVE SMOOTH",
"479 927 LINE",
"479 1051 LINE",
"695 1051 LINE SMOOTH",
"740 1051 OFFCURVE",
"758 1069 OFFCURVE",
"758 1119 CURVE SMOOTH",
"758 1169 OFFCURVE",
"740 1187 OFFCURVE",
"695 1187 CURVE SMOOTH",
"173 1187 LINE SMOOTH",
"128 1187 OFFCURVE",
"110 1169 OFFCURVE",
"110 1119 CURVE SMOOTH",
"110 1069 OFFCURVE",
"128 1051 OFFCURVE",
"173 1051 CURVE SMOOTH",
"329 1051 LINE"
);
},
{
closed = 1;
nodes = (
"479 409 LINE",
"479 791 LINE",
"689 791 LINE SMOOTH",
"846 791 OFFCURVE",
"914 709 OFFCURVE",
"914 598 CURVE SMOOTH",
"914 479 OFFCURVE",
"836 409 OFFCURVE",
"689 409 CURVE SMOOTH"
);
}
);
width = 1228;
},
{
layerId = "8538028E-5D6C-4318-9676-30148CDA39CA";
name = Bold;
paths = (
{
closed = 1;
nodes = (
"330 205 LINE",
"183 205 LINE SMOOTH",
"138 205 OFFCURVE",
"120 187 OFFCURVE",
"120 102 CURVE SMOOTH",
"120 17 OFFCURVE",
"138 0 OFFCURVE",
"183 0 CURVE SMOOTH",
"767 0 LINE SMOOTH",
"812 0 OFFCURVE",
"830 17 OFFCURVE",
"830 102 CURVE SMOOTH",
"830 187 OFFCURVE",
"812 205 OFFCURVE",
"767 205 CURVE SMOOTH",
"580 205 LINE",
"580 291 LINE",
"720 291 LINE SMOOTH",
"970 291 OFFCURVE",
"1087 407 OFFCURVE",
"1087 594 CURVE SMOOTH",
"1087 781 OFFCURVE",
"970 896 OFFCURVE",
"720 896 CURVE SMOOTH",
"580 896 LINE",
"580 982 LINE",
"767 982 LINE SMOOTH",
"812 982 OFFCURVE",
"830 999 OFFCURVE",
"830 1084 CURVE SMOOTH",
"830 1169 OFFCURVE",
"812 1187 OFFCURVE",
"767 1187 CURVE SMOOTH",
"183 1187 LINE SMOOTH",
"138 1187 OFFCURVE",
"120 1169 OFFCURVE",
"120 1084 CURVE SMOOTH",
"120 999 OFFCURVE",
"138 982 OFFCURVE",
"183 982 CURVE SMOOTH",
"330 982 LINE"
);
},
{
closed = 1;
nodes = (
"580 496 LINE",
"580 691 LINE",
"689 691 LINE SMOOTH",
"786 691 OFFCURVE",
"829 663 OFFCURVE",
"829 594 CURVE SMOOTH",
"829 525 OFFCURVE",
"786 496 OFFCURVE",
"689 496 CURVE SMOOTH"
);
}
);
width = 1228;
}
);
unicode = 00DE;
},
{
color = 4;
glyphname = Q;
lastChange = "2014-11-13 04:54:09 -0700";
layers = (
{
layerId = UUID0;
name = Regular;
paths = (
{
closed = 1;
nodes = (
"299 1209 OFFCURVE",
"88 978 OFFCURVE",
"88 618 CURVE SMOOTH",
"88 339 OFFCURVE",
"214 139 OFFCURVE",
"417 62 CURVE",
"237 -142 LINE SMOOTH",
"220 -161 OFFCURVE",
"228 -192 OFFCURVE",
"254 -226 CURVE SMOOTH",
"280 -261 OFFCURVE",
"311 -280 OFFCURVE",
"337 -269 CURVE SMOOTH",
"425 -232 OFFCURVE",
"502 -220 OFFCURVE",
"562 -220 CURVE SMOOTH",
"676 -220 OFFCURVE",
"761 -258 OFFCURVE",
"853 -258 CURVE SMOOTH",
"916 -258 OFFCURVE",
"983 -240 OFFCURVE",
"1065 -179 CURVE SMOOTH",
"1095 -157 OFFCURVE",
"1091 -121 OFFCURVE",
"1070 -86 CURVE SMOOTH",
"1048 -49 OFFCURVE",
"1016 -31 OFFCURVE",
"993 -48 CURVE",
"933 -92 OFFCURVE",
"882 -105 OFFCURVE",
"833 -105 CURVE SMOOTH",
"757 -105 OFFCURVE",
"686 -73 OFFCURVE",
"593 -73 CURVE SMOOTH",
"546 -73 OFFCURVE",
"494 -81 OFFCURVE",
"433 -105 CURVE",
"562 30 LINE",
"574 29 OFFCURVE",
"594 28 OFFCURVE",
"614 28 CURVE SMOOTH",
"929 28 OFFCURVE",
"1140 258 OFFCURVE",
"1140 618 CURVE SMOOTH",
"1140 978 OFFCURVE",
"929 1209 OFFCURVE",
"614 1209 CURVE SMOOTH"
);
},
{
closed = 1;
nodes = (
"836 1061 OFFCURVE",
"982 896 OFFCURVE",
"982 618 CURVE SMOOTH",
"982 340 OFFCURVE",
"836 176 OFFCURVE",
"614 176 CURVE SMOOTH",
"392 176 OFFCURVE",
"246 340 OFFCURVE",
"246 618 CURVE SMOOTH",
"246 896 OFFCURVE",
"392 1061 OFFCURVE",
"614 1061 CURVE SMOOTH"
);
}
);
width = 1228;
},
{
layerId = "8538028E-5D6C-4318-9676-30148CDA39CA";
name = Bold;
paths = (
{
closed = 1;
nodes = (
"284 1209 OFFCURVE",
"63 984 OFFCURVE",
"63 634 CURVE SMOOTH",
"63 371 OFFCURVE",
"188 178 OFFCURVE",
"390 98 CURVE",
"202 -102 LINE SMOOTH",
"175 -130 OFFCURVE",
"184 -182 OFFCURVE",
"207 -223 CURVE SMOOTH",
"230 -265 OFFCURVE",
"268 -297 OFFCURVE",
"297 -284 CURVE SMOOTH",
"382 -248 OFFCURVE",
"461 -237 OFFCURVE",
"526 -237 CURVE SMOOTH",
"660 -237 OFFCURVE",
"770 -281 OFFCURVE",
"882 -281 CURVE SMOOTH",
"953 -281 OFFCURVE",
"1025 -263 OFFCURVE",
"1105 -204 CURVE SMOOTH",
"1148 -172 OFFCURVE",
"1148 -122 OFFCURVE",
"1121 -67 CURVE SMOOTH",
"1096 -15 OFFCURVE",
"1054 14 OFFCURVE",
"1016 -6 CURVE SMOOTH",
"958 -37 OFFCURVE",
"909 -46 OFFCURVE",
"863 -46 CURVE SMOOTH",
"783 -46 OFFCURVE",
"711 -17 OFFCURVE",
"619 -17 CURVE SMOOTH",
"573 -17 OFFCURVE",
"522 -24 OFFCURVE",
"463 -46 CURVE",
"569 60 LINE",
"579 59 OFFCURVE",
"597 58 OFFCURVE",
"614 58 CURVE SMOOTH",
"944 58 OFFCURVE",
"1165 284 OFFCURVE",
"1165 634 CURVE SMOOTH",
"1165 984 OFFCURVE",
"944 1209 OFFCURVE",
"614 1209 CURVE SMOOTH"
);
},
{
closed = 1;
nodes = (
"801 982 OFFCURVE",
"897 852 OFFCURVE",
"897 634 CURVE SMOOTH",
"897 416 OFFCURVE",
"801 285 OFFCURVE",
"614 285 CURVE SMOOTH",
"427 285 OFFCURVE",
"331 416 OFFCURVE",
"331 634 CURVE SMOOTH",
"331 852 OFFCURVE",
"427 982 OFFCURVE",
"614 982 CURVE SMOOTH"
);
}
);
width = 1228;
}
);
unicode = 0051;
},
{
color = 0;
glyphname = R;
lastChange = "2014-11-13 04:54:09 -0700";
layers = (
{
background = {
paths = (
{
closed = 0;
nodes = (
"595 482 LINE SMOOTH",
"657 482 OFFCURVE",
"706 456 OFFCURVE",
"738 410 CURVE SMOOTH",
"796 327 OFFCURVE",
"817 245 OFFCURVE",
"871 139 CURVE SMOOTH",
"923 37 OFFCURVE",
"984 0 OFFCURVE",
"1043 0 CURVE SMOOTH",
"1125 0 LINE SMOOTH",
"1170 0 OFFCURVE",
"1188 18 OFFCURVE",
"1188 68 CURVE SMOOTH",
"1188 118 OFFCURVE",
"1170 136 OFFCURVE",
"1125 136 CURVE SMOOTH",
"1097 136 LINE SMOOTH",
"1059 136 OFFCURVE",
"1031 164 OFFCURVE",
"1007 208 CURVE SMOOTH",
"958 297 OFFCURVE",
"934 399 OFFCURVE",
"858 497 CURVE SMOOTH",
"796 576 OFFCURVE",
"715 602 OFFCURVE",
"625 596 CURVE"
);
}
);
};
layerId = UUID0;
name = Regular;
paths = (
{
closed = 1;
nodes = (
"143 1187 LINE SMOOTH",
"98 1187 OFFCURVE",
"80 1169 OFFCURVE",
"80 1119 CURVE SMOOTH",
"80 1069 OFFCURVE",
"98 1051 OFFCURVE",
"143 1051 CURVE SMOOTH",
"265 1051 LINE",
"265 136 LINE",
"143 136 LINE SMOOTH",
"98 136 OFFCURVE",
"80 118 OFFCURVE",
"80 68 CURVE SMOOTH",
"80 18 OFFCURVE",
"98 0 OFFCURVE",
"143 0 CURVE SMOOTH",
"545 0 LINE SMOOTH",
"590 0 OFFCURVE",
"608 18 OFFCURVE",
"608 68 CURVE SMOOTH",
"608 118 OFFCURVE",
"590 136 OFFCURVE",
"545 136 CURVE SMOOTH",
"415 136 LINE",
"415 515 LINE",
"477 515 LINE SMOOTH",
"599 515 OFFCURVE",
"672 489 OFFCURVE",
"742 401 CURVE SMOOTH",
"799 330 OFFCURVE",
"846 227 OFFCURVE",
"899 139 CURVE SMOOTH",
"962 35 OFFCURVE",
"1018 0 OFFCURVE",
"1075 0 CURVE SMOOTH",
"1145 0 LINE SMOOTH",
"1190 0 OFFCURVE",
"1208 18 OFFCURVE",
"1208 68 CURVE SMOOTH",
"1208 118 OFFCURVE",
"1190 136 OFFCURVE",
"1145 136 CURVE SMOOTH",
"1126 136 LINE SMOOTH",
"1085 136 OFFCURVE",
"1053 171 OFFCURVE",
"1021 224 CURVE SMOOTH",
"976 299 OFFCURVE",
"927 404 OFFCURVE",
"859 479 CURVE SMOOTH",
"833 508 OFFCURVE",
"803 533 OFFCURVE",
"769 549 CURVE",
"938 587 OFFCURVE",
"1046 696 OFFCURVE",
"1046 850 CURVE SMOOTH",
"1046 1051 OFFCURVE",
"904 1187 OFFCURVE",
"649 1187 CURVE SMOOTH"
);
},
{
closed = 1;
nodes = (
"793 1051 OFFCURVE",
"888 979 OFFCURVE",
"888 850 CURVE SMOOTH",
"888 708 OFFCURVE",
"784 651 OFFCURVE",
"618 651 CURVE SMOOTH",
"415 651 LINE",
"415 1051 LINE",
"628 1051 LINE SMOOTH"
);
}
);
width = 1228;
},
{
layerId = "8538028E-5D6C-4318-9676-30148CDA39CA";
name = Bold;
paths = (
{
closed = 1;
nodes = (
"123 1187 LINE SMOOTH",
"78 1187 OFFCURVE",
"60 1169 OFFCURVE",
"60 1084 CURVE SMOOTH",
"60 999 OFFCURVE",
"78 982 OFFCURVE",
"123 982 CURVE SMOOTH",
"230 982 LINE",
"230 205 LINE",
"123 205 LINE SMOOTH",
"78 205 OFFCURVE",
"60 187 OFFCURVE",
"60 102 CURVE SMOOTH",
"60 17 OFFCURVE",
"78 0 OFFCURVE",
"123 0 CURVE SMOOTH",
"597 0 LINE SMOOTH",
"642 0 OFFCURVE",
"660 17 OFFCURVE",
"660 102 CURVE SMOOTH",
"660 187 OFFCURVE",
"642 205 OFFCURVE",
"597 205 CURVE SMOOTH",
"480 205 LINE",
"480 461 LINE",
"518 461 LINE SMOOTH",
"624 461 OFFCURVE",
"679 433 OFFCURVE",
"728 364 CURVE SMOOTH",
"779 292 OFFCURVE",
"808 209 OFFCURVE",
"851 139 CURVE SMOOTH",
"909 44 OFFCURVE",
"971 0 OFFCURVE",
"1058 0 CURVE SMOOTH",
"1165 0 LINE SMOOTH",
"1210 0 OFFCURVE",
"1228 17 OFFCURVE",
"1228 102 CURVE SMOOTH",
"1228 187 OFFCURVE",
"1210 205 OFFCURVE",
"1165 205 CURVE SMOOTH",
"1146 205 LINE SMOOTH",
"1109 205 OFFCURVE",
"1082 232 OFFCURVE",
"1057 271 CURVE SMOOTH",
"1020 329 OFFCURVE",
"987 414 OFFCURVE",
"928 476 CURVE SMOOTH",
"906 499 OFFCURVE",
"880 519 OFFCURVE",
"849 533 CURVE",
"1003 572 OFFCURVE",
"1087 665 OFFCURVE",
"1087 824 CURVE SMOOTH",
"1087 1061 OFFCURVE",
"930 1187 OFFCURVE",
"650 1187 CURVE SMOOTH"
);
},
{
closed = 1;
nodes = (
"766 972 OFFCURVE",
"829 923 OFFCURVE",
"829 824 CURVE SMOOTH",
"829 725 OFFCURVE",
"766 676 OFFCURVE",
"629 676 CURVE SMOOTH",
"480 676 LINE",
"480 972 LINE",
"629 972 LINE SMOOTH"
);
}
);
width = 1228;
}
);
unicode = 0052;
},
{
glyphname = S;
lastChange = "2014-11-13 04:54:09 -0700";
layers = (
{
layerId = UUID0;
name = Regular;
paths = (
{
closed = 1;
nodes = (
"308 121 LINE",
"392 27 OFFCURVE",
"509 -22 OFFCURVE",
"642 -22 CURVE SMOOTH",
"916 -22 OFFCURVE",
"1065 121 OFFCURVE",
"1065 327 CURVE SMOOTH",
"1065 506 OFFCURVE",
"972 591 OFFCURVE",
"852 640 CURVE SMOOTH",
"703 700 OFFCURVE",
"514 703 OFFCURVE",
"408 756 CURVE SMOOTH",
"359 781 OFFCURVE",
"327 816 OFFCURVE",
"327 873 CURVE SMOOTH",
"327 985 OFFCURVE",
"409 1061 OFFCURVE",
"558 1061 CURVE SMOOTH",
"704 1061 OFFCURVE",
"826 998 OFFCURVE",
"891 875 CURVE SMOOTH",
"901 857 OFFCURVE",
"919 849 OFFCURVE",
"943 849 CURVE SMOOTH",
"999 849 OFFCURVE",
"1018 868 OFFCURVE",
"1018 914 CURVE SMOOTH",
"1018 1144 LINE SMOOTH",
"1018 1190 OFFCURVE",
"999 1209 OFFCURVE",
"943 1209 CURVE SMOOTH",
"887 1209 OFFCURVE",
"868 1190 OFFCURVE",
"868 1144 CURVE SMOOTH",
"868 1083 LINE",
"792 1158 OFFCURVE",
"678 1209 OFFCURVE",
"558 1209 CURVE SMOOTH",
"331 1209 OFFCURVE",
"169 1082 OFFCURVE",
"169 873 CURVE SMOOTH",
"169 732 OFFCURVE",
"240 658 OFFCURVE",
"338 614 CURVE SMOOTH",
"474 553 OFFCURVE",
"662 547 OFFCURVE",
"784 495 CURVE SMOOTH",
"858 463 OFFCURVE",
"907 415 OFFCURVE",
"907 327 CURVE SMOOTH",
"907 209 OFFCURVE",
"817 126 OFFCURVE",
"642 126 CURVE SMOOTH",
"467 126 OFFCURVE",
"345 212 OFFCURVE",
"291 366 CURVE SMOOTH",
"281 394 OFFCURVE",
"262 408 OFFCURVE",
"233 408 CURVE SMOOTH",
"177 408 OFFCURVE",
"158 389 OFFCURVE",
"158 343 CURVE SMOOTH",
"158 43 LINE SMOOTH",
"158 -3 OFFCURVE",
"177 -22 OFFCURVE",
"233 -22 CURVE SMOOTH",
"289 -22 OFFCURVE",
"308 -3 OFFCURVE",
"308 43 CURVE SMOOTH"
);
}
);
width = 1228;
},
{
layerId = "8538028E-5D6C-4318-9676-30148CDA39CA";
name = Bold;
paths = (
{
closed = 1;
nodes = (
"389 79 LINE",
"465 13 OFFCURVE",
"561 -22 OFFCURVE",
"672 -22 CURVE SMOOTH",
"951 -22 OFFCURVE",
"1087 128 OFFCURVE",
"1087 344 CURVE SMOOTH",
"1087 508 OFFCURVE",
"1019 601 OFFCURVE",
"927 657 CURVE SMOOTH",
"786 743 OFFCURVE",
"586 742 OFFCURVE",
"482 783 CURVE SMOOTH",
"439 800 OFFCURVE",
"412 823 OFFCURVE",
"412 863 CURVE SMOOTH",
"412 939 OFFCURVE",
"469 996 OFFCURVE",
"568 996 CURVE SMOOTH",
"700 996 OFFCURVE",
"799 937 OFFCURVE",
"860 841 CURVE SMOOTH",
"874 820 OFFCURVE",
"897 809 OFFCURVE",
"942 809 CURVE SMOOTH",
"1007 809 OFFCURVE",
"1034 827 OFFCURVE",
"1034 872 CURVE SMOOTH",
"1034 1146 LINE SMOOTH",
"1034 1191 OFFCURVE",
"1001 1209 OFFCURVE",
"916 1209 CURVE SMOOTH",
"831 1209 OFFCURVE",
"804 1191 OFFCURVE",
"804 1146 CURVE SMOOTH",
"804 1109 LINE",
"738 1173 OFFCURVE",
"646 1209 OFFCURVE",
"538 1209 CURVE SMOOTH",
"306 1209 OFFCURVE",
"149 1059 OFFCURVE",
"149 846 CURVE SMOOTH",
"149 696 OFFCURVE",
"218 616 OFFCURVE",
"311 567 CURVE SMOOTH",
"447 496 OFFCURVE",
"636 493 OFFCURVE",
"742 441 CURVE SMOOTH",
"791 417 OFFCURVE",
"822 383 OFFCURVE",
"822 327 CURVE SMOOTH",
"822 244 OFFCURVE",
"761 191 OFFCURVE",
"642 191 CURVE SMOOTH",
"507 191 OFFCURVE",
"409 263 OFFCURVE",
"338 398 CURVE SMOOTH",
"323 427 OFFCURVE",
"298 438 OFFCURVE",
"251 438 CURVE SMOOTH",
"186 438 OFFCURVE",
"159 420 OFFCURVE",
"159 375 CURVE SMOOTH",
"159 41 LINE SMOOTH",
"159 -4 OFFCURVE",
"192 -22 OFFCURVE",
"277 -22 CURVE SMOOTH",
"362 -22 OFFCURVE",
"389 -4 OFFCURVE",
"389 41 CURVE SMOOTH"
);
}
);
width = 1228;
}
);
unicode = 0053;
},
{
color = (0,243,255,1);
glyphname = Scedilla;
lastChange = "2014-11-13 04:54:09 -0700";
layers = (
{
layerId = UUID0;
name = Regular;
paths = (
{
closed = 1;
nodes = (
"549 -175 LINE SMOOTH",
"549 -213 OFFCURVE",
"570 -218 OFFCURVE",
"589 -217 CURVE SMOOTH",
"681 -210 OFFCURVE",
"734 -229 OFFCURVE",
"734 -285 CURVE SMOOTH",
"734 -327 OFFCURVE",
"697 -352 OFFCURVE",
"631 -352 CURVE SMOOTH",
"564 -352 OFFCURVE",
"490 -338 OFFCURVE",
"438 -318 CURVE SMOOTH",
"413 -308 OFFCURVE",
"390 -330 OFFCURVE",
"379 -356 CURVE SMOOTH",
"368 -382 OFFCURVE",
"370 -413 OFFCURVE",
"394 -424 CURVE SMOOTH",
"463 -456 OFFCURVE",
"552 -472 OFFCURVE",
"641 -472 CURVE SMOOTH",
"808 -472 OFFCURVE",
"890 -393 OFFCURVE",
"890 -281 CURVE SMOOTH",
"890 -187 OFFCURVE",
"822 -110 OFFCURVE",
"684 -113 CURVE",
"684 -21 LINE",
"931 -7 OFFCURVE",
"1065 132 OFFCURVE",
"1065 327 CURVE SMOOTH",
"1065 506 OFFCURVE",
"972 591 OFFCURVE",
"852 640 CURVE SMOOTH",
"703 700 OFFCURVE",
"514 703 OFFCURVE",
"408 756 CURVE SMOOTH",
"359 781 OFFCURVE",
"327 816 OFFCURVE",
"327 873 CURVE SMOOTH",
"327 985 OFFCURVE",
"409 1061 OFFCURVE",
"558 1061 CURVE SMOOTH",
"704 1061 OFFCURVE",
"826 998 OFFCURVE",
"891 875 CURVE SMOOTH",
"901 857 OFFCURVE",
"919 849 OFFCURVE",
"943 849 CURVE SMOOTH",
"999 849 OFFCURVE",
"1018 868 OFFCURVE",
"1018 914 CURVE SMOOTH",
"1018 1144 LINE SMOOTH",
"1018 1190 OFFCURVE",
"999 1209 OFFCURVE",
"943 1209 CURVE SMOOTH",
"887 1209 OFFCURVE",
"868 1190 OFFCURVE",
"868 1144 CURVE SMOOTH",
"868 1083 LINE",
"792 1158 OFFCURVE",
"678 1209 OFFCURVE",
"558 1209 CURVE SMOOTH",
"331 1209 OFFCURVE",
"169 1082 OFFCURVE",
"169 873 CURVE SMOOTH",
"169 732 OFFCURVE",
"240 658 OFFCURVE",
"338 614 CURVE SMOOTH",
"474 553 OFFCURVE",
"662 547 OFFCURVE",
"784 495 CURVE SMOOTH",
"858 463 OFFCURVE",
"907 415 OFFCURVE",
"907 327 CURVE SMOOTH",
"907 209 OFFCURVE",
"817 126 OFFCURVE",
"642 126 CURVE SMOOTH",
"467 126 OFFCURVE",
"345 212 OFFCURVE",
"291 366 CURVE SMOOTH",
"281 394 OFFCURVE",
"262 408 OFFCURVE",
"233 408 CURVE SMOOTH",
"177 408 OFFCURVE",
"158 389 OFFCURVE",
"158 343 CURVE SMOOTH",
"158 43 LINE SMOOTH",
"158 -3 OFFCURVE",
"177 -22 OFFCURVE",
"233 -22 CURVE SMOOTH",
"289 -22 OFFCURVE",
"308 -3 OFFCURVE",
"308 43 CURVE SMOOTH",
"308 121 LINE",
"372 49 OFFCURVE",
"454 4 OFFCURVE",
"549 -13 CURVE"
);
}
);
width = 1228;
},
{
layerId = "8538028E-5D6C-4318-9676-30148CDA39CA";
name = Bold;
paths = (
{
closed = 1;
nodes = (
"389 79 LINE",
"430 43 OFFCURVE",
"477 17 OFFCURVE",
"529 0 CURVE",
"529 -180 LINE SMOOTH",
"529 -215 OFFCURVE",
"548 -226 OFFCURVE",
"571 -221 CURVE SMOOTH",
"631 -208 OFFCURVE",
"694 -214 OFFCURVE",
"694 -269 CURVE SMOOTH",
"694 -304 OFFCURVE",
"666 -322 OFFCURVE",
"608 -322 CURVE SMOOTH",
"541 -322 OFFCURVE",
"497 -308 OFFCURVE",
"445 -288 CURVE",
"419 -280 OFFCURVE",
"398 -302 OFFCURVE",
"381 -348 CURVE SMOOTH",
"366 -390 OFFCURVE",
"367 -420 OFFCURVE",
"392 -430 CURVE SMOOTH",
"462 -457 OFFCURVE",
"552 -472 OFFCURVE",
"651 -472 CURVE SMOOTH",
"834 -472 OFFCURVE",
"930 -402 OFFCURVE",
"930 -281 CURVE SMOOTH",
"930 -167 OFFCURVE",
"860 -88 OFFCURVE",
"704 -93 CURVE",
"704 -21 LINE",
"961 -10 OFFCURVE",
"1087 136 OFFCURVE",
"1087 344 CURVE SMOOTH",
"1087 508 OFFCURVE",
"1019 601 OFFCURVE",
"927 657 CURVE SMOOTH",
"786 743 OFFCURVE",
"586 742 OFFCURVE",
"482 783 CURVE SMOOTH",
"439 800 OFFCURVE",
"412 823 OFFCURVE",
"412 863 CURVE SMOOTH",
"412 939 OFFCURVE",
"469 996 OFFCURVE",
"568 996 CURVE SMOOTH",
"700 996 OFFCURVE",
"799 937 OFFCURVE",
"860 841 CURVE SMOOTH",
"874 820 OFFCURVE",
"897 809 OFFCURVE",
"942 809 CURVE SMOOTH",
"1007 809 OFFCURVE",
"1034 827 OFFCURVE",
"1034 872 CURVE SMOOTH",
"1034 1146 LINE SMOOTH",
"1034 1191 OFFCURVE",
"1001 1209 OFFCURVE",
"916 1209 CURVE SMOOTH",
"831 1209 OFFCURVE",
"804 1191 OFFCURVE",
"804 1146 CURVE SMOOTH",
"804 1109 LINE",
"738 1173 OFFCURVE",
"646 1209 OFFCURVE",
"538 1209 CURVE SMOOTH",
"306 1209 OFFCURVE",
"149 1059 OFFCURVE",
"149 846 CURVE SMOOTH",
"149 696 OFFCURVE",
"218 616 OFFCURVE",
"311 567 CURVE SMOOTH",
"447 496 OFFCURVE",
"636 493 OFFCURVE",
"742 441 CURVE SMOOTH",
"791 417 OFFCURVE",
"822 383 OFFCURVE",
"822 327 CURVE SMOOTH",
"822 244 OFFCURVE",
"761 191 OFFCURVE",
"642 191 CURVE SMOOTH",
"507 191 OFFCURVE",
"409 263 OFFCURVE",
"338 398 CURVE SMOOTH",
"323 427 OFFCURVE",
"298 438 OFFCURVE",
"251 438 CURVE SMOOTH",
"186 438 OFFCURVE",
"159 420 OFFCURVE",
"159 375 CURVE SMOOTH",
"159 41 LINE SMOOTH",
"159 -4 OFFCURVE",
"192 -22 OFFCURVE",
"277 -22 CURVE SMOOTH",
"362 -22 OFFCURVE",
"389 -4 OFFCURVE",
"389 41 CURVE SMOOTH"
);
}
);
width = 1228;
}
);
unicode = 015E;
},
{
glyphname = T;
lastChange = "2014-11-13 04:54:09 -0700";
layers = (
{
layerId = UUID0;
name = Regular;
paths = (
{
closed = 1;
nodes = (
"185 1187 LINE SMOOTH",
"140 1187 OFFCURVE",
"122 1169 OFFCURVE",
"122 1119 CURVE SMOOTH",
"122 742 LINE SMOOTH",
"122 696 OFFCURVE",
"141 677 OFFCURVE",
"197 677 CURVE SMOOTH",
"253 677 OFFCURVE",
"272 696 OFFCURVE",
"272 742 CURVE SMOOTH",
"272 1051 LINE",
"539 1051 LINE",
"539 136 LINE",
"303 136 LINE SMOOTH",
"258 136 OFFCURVE",
"240 118 OFFCURVE",
"240 68 CURVE SMOOTH",
"240 18 OFFCURVE",
"258 0 OFFCURVE",
"303 0 CURVE SMOOTH",
"925 0 LINE SMOOTH",
"970 0 OFFCURVE",
"988 18 OFFCURVE",
"988 68 CURVE SMOOTH",
"988 118 OFFCURVE",
"970 136 OFFCURVE",
"925 136 CURVE SMOOTH",
"689 136 LINE",
"689 1051 LINE",
"956 1051 LINE",
"956 742 LINE SMOOTH",
"956 696 OFFCURVE",
"975 677 OFFCURVE",
"1031 677 CURVE SMOOTH",
"1087 677 OFFCURVE",
"1106 696 OFFCURVE",
"1106 742 CURVE SMOOTH",
"1106 1119 LINE SMOOTH",
"1106 1169 OFFCURVE",
"1088 1187 OFFCURVE",
"1043 1187 CURVE SMOOTH"
);
}
);
width = 1228;
},
{
layerId = "8538028E-5D6C-4318-9676-30148CDA39CA";
name = Bold;
paths = (
{
closed = 1;
nodes = (
"163 1187 LINE SMOOTH",
"117 1187 OFFCURVE",
"98 1168 OFFCURVE",
"98 1122 CURVE SMOOTH",
"98 700 LINE SMOOTH",
"98 655 OFFCURVE",
"121 637 OFFCURVE",
"196 637 CURVE SMOOTH",
"271 637 OFFCURVE",
"308 655 OFFCURVE",
"308 700 CURVE SMOOTH",
"308 972 LINE",
"489 972 LINE",
"489 205 LINE",
"273 205 LINE SMOOTH",
"228 205 OFFCURVE",
"210 187 OFFCURVE",
"210 102 CURVE SMOOTH",
"210 17 OFFCURVE",
"228 0 OFFCURVE",
"273 0 CURVE SMOOTH",
"955 0 LINE SMOOTH",
"1000 0 OFFCURVE",
"1018 17 OFFCURVE",
"1018 102 CURVE SMOOTH",
"1018 187 OFFCURVE",
"1000 205 OFFCURVE",
"955 205 CURVE SMOOTH",
"739 205 LINE",
"739 972 LINE",
"920 972 LINE",
"920 700 LINE SMOOTH",
"920 655 OFFCURVE",
"943 637 OFFCURVE",
"1018 637 CURVE SMOOTH",
"1093 637 OFFCURVE",
"1130 655 OFFCURVE",
"1130 700 CURVE SMOOTH",
"1130 1122 LINE SMOOTH",
"1130 1168 OFFCURVE",
"1111 1187 OFFCURVE",
"1065 1187 CURVE SMOOTH"
);
}
);
width = 1228;
}
);
unicode = 0054;
},
{
color = (0,243,255,1);
glyphname = Tbar;
lastChange = "2014-11-13 04:54:09 -0700";
layers = (
{
layerId = UUID0;
name = Regular;
paths = (
{
closed = 1;
nodes = (
"333 586 LINE SMOOTH",
"288 586 OFFCURVE",
"270 568 OFFCURVE",
"270 518 CURVE SMOOTH",
"270 468 OFFCURVE",
"288 450 OFFCURVE",
"333 450 CURVE SMOOTH",
"539 450 LINE",
"539 136 LINE",
"303 136 LINE SMOOTH",
"258 136 OFFCURVE",
"240 118 OFFCURVE",
"240 68 CURVE SMOOTH",
"240 18 OFFCURVE",
"258 0 OFFCURVE",
"303 0 CURVE SMOOTH",
"925 0 LINE SMOOTH",
"970 0 OFFCURVE",
"988 18 OFFCURVE",
"988 68 CURVE SMOOTH",
"988 118 OFFCURVE",
"970 136 OFFCURVE",
"925 136 CURVE SMOOTH",
"689 136 LINE",
"689 450 LINE",
"895 450 LINE SMOOTH",
"940 450 OFFCURVE",
"958 468 OFFCURVE",
"958 518 CURVE SMOOTH",
"958 568 OFFCURVE",
"940 586 OFFCURVE",
"895 586 CURVE SMOOTH",
"689 586 LINE",
"689 1051 LINE",
"956 1051 LINE",
"956 742 LINE SMOOTH",
"956 696 OFFCURVE",
"975 677 OFFCURVE",
"1031 677 CURVE SMOOTH",
"1087 677 OFFCURVE",
"1106 696 OFFCURVE",
"1106 742 CURVE SMOOTH",
"1106 1119 LINE SMOOTH",
"1106 1169 OFFCURVE",
"1088 1187 OFFCURVE",
"1043 1187 CURVE SMOOTH",
"185 1187 LINE SMOOTH",
"140 1187 OFFCURVE",
"122 1169 OFFCURVE",
"122 1119 CURVE SMOOTH",
"122 742 LINE SMOOTH",
"122 696 OFFCURVE",
"141 677 OFFCURVE",
"197 677 CURVE SMOOTH",
"253 677 OFFCURVE",
"272 696 OFFCURVE",
"272 742 CURVE SMOOTH",
"272 1051 LINE",
"539 1051 LINE",
"539 586 LINE"
);
}
);
width = 1228;
},
{
layerId = "8538028E-5D6C-4318-9676-30148CDA39CA";
name = Bold;
paths = (
{
closed = 1;
nodes = (
"333 565 LINE SMOOTH",
"288 565 OFFCURVE",
"270 547 OFFCURVE",
"270 462 CURVE SMOOTH",
"270 377 OFFCURVE",
"288 360 OFFCURVE",
"333 360 CURVE SMOOTH",
"489 360 LINE",
"489 205 LINE",
"273 205 LINE SMOOTH",
"228 205 OFFCURVE",
"210 187 OFFCURVE",
"210 102 CURVE SMOOTH",
"210 17 OFFCURVE",
"228 0 OFFCURVE",
"273 0 CURVE SMOOTH",
"955 0 LINE SMOOTH",
"1000 0 OFFCURVE",
"1018 17 OFFCURVE",
"1018 102 CURVE SMOOTH",
"1018 187 OFFCURVE",
"1000 205 OFFCURVE",
"955 205 CURVE SMOOTH",
"739 205 LINE",
"739 360 LINE",
"895 360 LINE SMOOTH",
"940 360 OFFCURVE",
"958 377 OFFCURVE",
"958 462 CURVE SMOOTH",
"958 547 OFFCURVE",
"940 565 OFFCURVE",
"895 565 CURVE SMOOTH",
"739 565 LINE",
"739 972 LINE",
"920 972 LINE",
"920 700 LINE SMOOTH",
"920 655 OFFCURVE",
"943 637 OFFCURVE",
"1018 637 CURVE SMOOTH",
"1093 637 OFFCURVE",
"1130 655 OFFCURVE",
"1130 700 CURVE SMOOTH",
"1130 1122 LINE SMOOTH",
"1130 1168 OFFCURVE",
"1111 1187 OFFCURVE",
"1065 1187 CURVE SMOOTH",
"163 1187 LINE SMOOTH",
"117 1187 OFFCURVE",
"98 1168 OFFCURVE",
"98 1122 CURVE SMOOTH",
"98 700 LINE SMOOTH",
"98 655 OFFCURVE",
"121 637 OFFCURVE",
"196 637 CURVE SMOOTH",
"271 637 OFFCURVE",
"308 655 OFFCURVE",
"308 700 CURVE SMOOTH",
"308 972 LINE",
"489 972 LINE",
"489 565 LINE"
);
}
);
width = 1228;
}
);
unicode = 0166;
},
{
glyphname = U;
lastChange = "2014-11-13 04:54:09 -0700";
layers = (
{
layerId = UUID0;
name = Regular;
paths = (
{
closed = 1;
nodes = (
"195 1051 LINE",
"195 393 LINE SMOOTH",
"195 108 OFFCURVE",
"354 -22 OFFCURVE",
"614 -22 CURVE SMOOTH",
"874 -22 OFFCURVE",
"1033 108 OFFCURVE",
"1033 393 CURVE SMOOTH",
"1033 1051 LINE",
"1095 1051 LINE SMOOTH",
"1140 1051 OFFCURVE",
"1158 1069 OFFCURVE",
"1158 1119 CURVE SMOOTH",
"1158 1169 OFFCURVE",
"1140 1187 OFFCURVE",
"1095 1187 CURVE SMOOTH",
"771 1187 LINE SMOOTH",
"726 1187 OFFCURVE",
"708 1169 OFFCURVE",
"708 1119 CURVE SMOOTH",
"708 1069 OFFCURVE",
"726 1051 OFFCURVE",
"771 1051 CURVE SMOOTH",
"883 1051 LINE",
"883 413 LINE SMOOTH",
"883 205 OFFCURVE",
"796 126 OFFCURVE",
"614 126 CURVE SMOOTH",
"432 126 OFFCURVE",
"345 205 OFFCURVE",
"345 413 CURVE SMOOTH",
"345 1051 LINE",
"457 1051 LINE SMOOTH",
"502 1051 OFFCURVE",
"520 1069 OFFCURVE",
"520 1119 CURVE SMOOTH",
"520 1169 OFFCURVE",
"502 1187 OFFCURVE",
"457 1187 CURVE SMOOTH",
"133 1187 LINE SMOOTH",
"88 1187 OFFCURVE",
"70 1169 OFFCURVE",
"70 1119 CURVE SMOOTH",
"70 1069 OFFCURVE",
"88 1051 OFFCURVE",
"133 1051 CURVE SMOOTH"
);
}
);
width = 1228;
},
{
layerId = "8538028E-5D6C-4318-9676-30148CDA39CA";
name = Bold;
paths = (
{
closed = 1;
nodes = (
"160 982 LINE",
"160 413 LINE SMOOTH",
"160 133 OFFCURVE",
"334 -22 OFFCURVE",
"614 -22 CURVE SMOOTH",
"894 -22 OFFCURVE",
"1068 133 OFFCURVE",
"1068 413 CURVE SMOOTH",
"1068 982 LINE",
"1115 982 LINE SMOOTH",
"1160 982 OFFCURVE",
"1178 999 OFFCURVE",
"1178 1084 CURVE SMOOTH",
"1178 1169 OFFCURVE",
"1160 1187 OFFCURVE",
"1115 1187 CURVE SMOOTH",
"741 1187 LINE SMOOTH",
"696 1187 OFFCURVE",
"678 1169 OFFCURVE",
"678 1084 CURVE SMOOTH",
"678 999 OFFCURVE",
"696 982 OFFCURVE",
"741 982 CURVE SMOOTH",
"818 982 LINE",
"818 433 LINE SMOOTH",
"818 273 OFFCURVE",
"733 205 OFFCURVE",
"614 205 CURVE SMOOTH",
"495 205 OFFCURVE",
"410 273 OFFCURVE",
"410 433 CURVE SMOOTH",
"410 982 LINE",
"487 982 LINE SMOOTH",
"532 982 OFFCURVE",
"550 999 OFFCURVE",
"550 1084 CURVE SMOOTH",
"550 1169 OFFCURVE",
"532 1187 OFFCURVE",
"487 1187 CURVE SMOOTH",
"113 1187 LINE SMOOTH",
"68 1187 OFFCURVE",
"50 1169 OFFCURVE",
"50 1084 CURVE SMOOTH",
"50 999 OFFCURVE",
"68 982 OFFCURVE",
"113 982 CURVE SMOOTH"
);
}
);
width = 1228;
}
);
unicode = 0055;
},
{
color = (0,243,255,1);
glyphname = Uogonek;
lastChange = "2014-11-13 04:54:09 -0700";
layers = (
{
components = (
{
name = U;
transform = "{1, 0, 0, 1, 0, 0}";
},
{
name = ogonek;
transform = "{1, 0, 0, 1, 80, 0}";
}
);
layerId = UUID0;
name = Regular;
width = 1228;
},
{
background = {
paths = (
{
closed = 1;
nodes = (
"160 982 LINE",
"160 413 LINE SMOOTH",
"160 146 OFFCURVE",
"318 -7 OFFCURVE",
"575 -21 CURVE",
"484 -88 OFFCURVE",
"419 -165 OFFCURVE",
"419 -269 CURVE SMOOTH",
"419 -402 OFFCURVE",
"509 -472 OFFCURVE",
"665 -472 CURVE SMOOTH",
"738 -472 OFFCURVE",
"814 -459 OFFCURVE",
"881 -438 CURVE SMOOTH",
"909 -429 OFFCURVE",
"922 -399 OFFCURVE",
"918 -353 CURVE SMOOTH",
"914 -307 OFFCURVE",
"896 -281 OFFCURVE",
"870 -285 CURVE SMOOTH",
"827 -292 OFFCURVE",
"789 -298 OFFCURVE",
"750 -298 CURVE SMOOTH",
"693 -298 OFFCURVE",
"662 -278 OFFCURVE",
"662 -231 CURVE SMOOTH",
"662 -156 OFFCURVE",
"737 -67 OFFCURVE",
"855 28 CURVE",
"990 94 OFFCURVE",
"1068 226 OFFCURVE",
"1068 413 CURVE SMOOTH",
"1068 982 LINE",
"1115 982 LINE SMOOTH",
"1160 982 OFFCURVE",
"1178 999 OFFCURVE",
"1178 1084 CURVE SMOOTH",
"1178 1169 OFFCURVE",
"1160 1187 OFFCURVE",
"1115 1187 CURVE SMOOTH",
"741 1187 LINE SMOOTH",
"696 1187 OFFCURVE",
"678 1169 OFFCURVE",
"678 1084 CURVE SMOOTH",
"678 999 OFFCURVE",
"696 982 OFFCURVE",
"741 982 CURVE SMOOTH",
"818 982 LINE",
"818 433 LINE SMOOTH",
"818 273 OFFCURVE",
"733 205 OFFCURVE",
"614 205 CURVE SMOOTH",
"495 205 OFFCURVE",
"410 273 OFFCURVE",
"410 433 CURVE SMOOTH",
"410 982 LINE",
"487 982 LINE SMOOTH",
"532 982 OFFCURVE",
"550 999 OFFCURVE",
"550 1084 CURVE SMOOTH",
"550 1169 OFFCURVE",
"532 1187 OFFCURVE",
"487 1187 CURVE SMOOTH",
"113 1187 LINE SMOOTH",
"68 1187 OFFCURVE",
"50 1169 OFFCURVE",
"50 1084 CURVE SMOOTH",
"50 999 OFFCURVE",
"68 982 OFFCURVE",
"113 982 CURVE SMOOTH"
);
}
);
};
components = (
{
name = U;
transform = "{1, 0, 0, 1, 0, 0}";
},
{
name = ogonek;
transform = "{1, 0, 0, 1, 70, 0}";
}
);
layerId = "8538028E-5D6C-4318-9676-30148CDA39CA";
name = Bold;
width = 1228;
}
);
unicode = 0172;
},
{
color = 4;
glyphname = V;
lastChange = "2014-11-13 04:54:09 -0700";
layers = (
{
layerId = UUID0;
name = Regular;
paths = (
{
closed = 1;
nodes = (
"149 1051 LINE",
"505 43 LINE SMOOTH",
"521 -3 OFFCURVE",
"554 -22 OFFCURVE",
"611 -22 CURVE SMOOTH",
"668 -22 OFFCURVE",
"702 -4 OFFCURVE",
"719 43 CURVE SMOOTH",
"1078 1051 LINE",
"1155 1051 LINE SMOOTH",
"1200 1051 OFFCURVE",
"1218 1069 OFFCURVE",
"1218 1119 CURVE SMOOTH",
"1218 1169 OFFCURVE",
"1200 1187 OFFCURVE",
"1155 1187 CURVE SMOOTH",
"821 1187 LINE SMOOTH",
"776 1187 OFFCURVE",
"758 1169 OFFCURVE",
"758 1119 CURVE SMOOTH",
"758 1069 OFFCURVE",
"776 1051 OFFCURVE",
"821 1051 CURVE SMOOTH",
"921 1051 LINE",
"612 167 LINE",
"306 1051 LINE",
"447 1051 LINE SMOOTH",
"492 1051 OFFCURVE",
"510 1069 OFFCURVE",
"510 1119 CURVE SMOOTH",
"510 1169 OFFCURVE",
"492 1187 OFFCURVE",
"447 1187 CURVE SMOOTH",
"73 1187 LINE SMOOTH",
"28 1187 OFFCURVE",
"10 1169 OFFCURVE",
"10 1119 CURVE SMOOTH",
"10 1069 OFFCURVE",
"28 1051 OFFCURVE",
"73 1051 CURVE SMOOTH"
);
}
);
width = 1228;
},
{
layerId = "8538028E-5D6C-4318-9676-30148CDA39CA";
name = Bold;
paths = (
{
closed = 1;
nodes = (
"130 982 LINE",
"480 43 LINE SMOOTH",
"497 -3 OFFCURVE",
"528 -22 OFFCURVE",
"611 -22 CURVE SMOOTH",
"694 -22 OFFCURVE",
"726 -4 OFFCURVE",
"744 43 CURVE SMOOTH",
"1107 982 LINE",
"1175 982 LINE SMOOTH",
"1220 982 OFFCURVE",
"1238 999 OFFCURVE",
"1238 1084 CURVE SMOOTH",
"1238 1169 OFFCURVE",
"1220 1187 OFFCURVE",
"1175 1187 CURVE SMOOTH",
"771 1187 LINE SMOOTH",
"726 1187 OFFCURVE",
"708 1169 OFFCURVE",
"708 1084 CURVE SMOOTH",
"708 999 OFFCURVE",
"726 982 OFFCURVE",
"771 982 CURVE SMOOTH",
"842 982 LINE",
"613 369 LINE",
"398 982 LINE",
"487 982 LINE SMOOTH",
"532 982 OFFCURVE",
"550 999 OFFCURVE",
"550 1084 CURVE SMOOTH",
"550 1169 OFFCURVE",
"532 1187 OFFCURVE",
"487 1187 CURVE SMOOTH",
"53 1187 LINE SMOOTH",
"8 1187 OFFCURVE",
"-10 1169 OFFCURVE",
"-10 1084 CURVE SMOOTH",
"-10 999 OFFCURVE",
"8 982 OFFCURVE",
"53 982 CURVE SMOOTH"
);
}
);
width = 1228;
}
);
unicode = 0056;
},
{
glyphname = W;
lastChange = "2014-11-13 04:54:09 -0700";
layers = (
{
layerId = UUID0;
name = Regular;
paths = (
{
closed = 1;
nodes = (
"851 1187 LINE SMOOTH",
"806 1187 OFFCURVE",
"788 1169 OFFCURVE",
"788 1119 CURVE SMOOTH",
"788 1069 OFFCURVE",
"806 1051 OFFCURVE",
"851 1051 CURVE SMOOTH",
"975 1051 LINE",
"871 250 LINE",
"684 845 LINE SMOOTH",
"676 871 OFFCURVE",
"655 885 OFFCURVE",
"611 885 CURVE SMOOTH",
"568 885 OFFCURVE",
"547 864 OFFCURVE",
"539 838 CURVE SMOOTH",
"351 250 LINE",
"251 1051 LINE",
"397 1051 LINE SMOOTH",
"442 1051 OFFCURVE",
"460 1069 OFFCURVE",
"460 1119 CURVE SMOOTH",
"460 1169 OFFCURVE",
"442 1187 OFFCURVE",
"397 1187 CURVE SMOOTH",
"53 1187 LINE SMOOTH",
"8 1187 OFFCURVE",
"-10 1169 OFFCURVE",
"-10 1119 CURVE SMOOTH",
"-10 1069 OFFCURVE",
"8 1051 OFFCURVE",
"53 1051 CURVE SMOOTH",
"102 1051 LINE",
"235 43 LINE SMOOTH",
"241 -5 OFFCURVE",
"268 -22 OFFCURVE",
"319 -22 CURVE SMOOTH",
"370 -22 OFFCURVE",
"408 -3 OFFCURVE",
"423 43 CURVE SMOOTH",
"610 624 LINE",
"795 43 LINE SMOOTH",
"809 -3 OFFCURVE",
"846 -22 OFFCURVE",
"897 -22 CURVE SMOOTH",
"948 -22 OFFCURVE",
"976 -6 OFFCURVE",
"983 43 CURVE SMOOTH",
"1121 1051 LINE",
"1175 1051 LINE SMOOTH",
"1220 1051 OFFCURVE",
"1238 1069 OFFCURVE",
"1238 1119 CURVE SMOOTH",
"1238 1169 OFFCURVE",
"1220 1187 OFFCURVE",
"1175 1187 CURVE SMOOTH"
);
}
);
width = 1228;
},
{
layerId = "8538028E-5D6C-4318-9676-30148CDA39CA";
name = Bold;
paths = (
{
closed = 1;
nodes = (
"811 1187 LINE SMOOTH",
"766 1187 OFFCURVE",
"748 1169 OFFCURVE",
"748 1084 CURVE SMOOTH",
"748 999 OFFCURVE",
"766 982 OFFCURVE",
"811 982 CURVE SMOOTH",
"914 982 LINE",
"860 398 LINE",
"713 833 LINE",
"705 859 OFFCURVE",
"682 873 OFFCURVE",
"613 873 CURVE SMOOTH",
"545 873 OFFCURVE",
"527 852 OFFCURVE",
"519 826 CURVE",
"373 398 LINE",
"320 982 LINE",
"437 982 LINE SMOOTH",
"482 982 OFFCURVE",
"500 999 OFFCURVE",
"500 1084 CURVE SMOOTH",
"500 1169 OFFCURVE",
"482 1187 OFFCURVE",
"437 1187 CURVE SMOOTH",
"43 1187 LINE SMOOTH",
"-2 1187 OFFCURVE",
"-20 1169 OFFCURVE",
"-20 1084 CURVE SMOOTH",
"-20 999 OFFCURVE",
"-2 982 OFFCURVE",
"43 982 CURVE SMOOTH",
"93 982 LINE",
"190 43 LINE SMOOTH",
"195 -5 OFFCURVE",
"218 -22 OFFCURVE",
"309 -22 CURVE SMOOTH",
"400 -22 OFFCURVE",
"432 -3 OFFCURVE",
"448 43 CURVE SMOOTH",
"610 514 LINE",
"770 43 LINE SMOOTH",
"785 -2 OFFCURVE",
"816 -22 OFFCURVE",
"907 -22 CURVE SMOOTH",
"998 -22 OFFCURVE",
"1023 -6 OFFCURVE",
"1028 43 CURVE SMOOTH",
"1129 982 LINE",
"1185 982 LINE SMOOTH",
"1230 982 OFFCURVE",
"1248 999 OFFCURVE",
"1248 1084 CURVE SMOOTH",
"1248 1169 OFFCURVE",
"1230 1187 OFFCURVE",
"1185 1187 CURVE SMOOTH"
);
}
);
width = 1228;
}
);
unicode = 0057;
},
{
glyphname = X;
lastChange = "2014-11-13 04:54:09 -0700";
layers = (
{
layerId = UUID0;
name = Regular;
paths = (
{
closed = 1;
nodes = (
"175 136 LINE",
"113 136 LINE SMOOTH",
"68 136 OFFCURVE",
"50 118 OFFCURVE",
"50 68 CURVE SMOOTH",
"50 18 OFFCURVE",
"68 0 OFFCURVE",
"113 0 CURVE SMOOTH",
"437 0 LINE SMOOTH",
"482 0 OFFCURVE",
"500 18 OFFCURVE",
"500 68 CURVE SMOOTH",
"500 118 OFFCURVE",
"482 136 OFFCURVE",
"437 136 CURVE SMOOTH",
"354 136 LINE",
"615 501 LINE",
"870 136 LINE",
"761 136 LINE SMOOTH",
"716 136 OFFCURVE",
"698 118 OFFCURVE",
"698 68 CURVE SMOOTH",
"698 18 OFFCURVE",
"716 0 OFFCURVE",
"761 0 CURVE SMOOTH",
"1115 0 LINE SMOOTH",
"1160 0 OFFCURVE",
"1178 18 OFFCURVE",
"1178 68 CURVE SMOOTH",
"1178 118 OFFCURVE",
"1160 136 OFFCURVE",
"1115 136 CURVE SMOOTH",
"1057 136 LINE",
"711 617 LINE",
"1020 1051 LINE",
"1085 1051 LINE SMOOTH",
"1130 1051 OFFCURVE",
"1148 1069 OFFCURVE",
"1148 1119 CURVE SMOOTH",
"1148 1169 OFFCURVE",
"1130 1187 OFFCURVE",
"1085 1187 CURVE SMOOTH",
"781 1187 LINE SMOOTH",
"736 1187 OFFCURVE",
"718 1169 OFFCURVE",
"718 1119 CURVE SMOOTH",
"718 1069 OFFCURVE",
"736 1051 OFFCURVE",
"781 1051 CURVE SMOOTH",
"841 1051 LINE",
"619 735 LINE",
"398 1051 LINE",
"487 1051 LINE SMOOTH",
"532 1051 OFFCURVE",
"550 1069 OFFCURVE",
"550 1119 CURVE SMOOTH",
"550 1169 OFFCURVE",
"532 1187 OFFCURVE",
"487 1187 CURVE SMOOTH",
"143 1187 LINE SMOOTH",
"98 1187 OFFCURVE",
"80 1169 OFFCURVE",
"80 1119 CURVE SMOOTH",
"80 1069 OFFCURVE",
"98 1051 OFFCURVE",
"143 1051 CURVE SMOOTH",
"212 1051 LINE",
"524 619 LINE"
);
}
);
width = 1228;
},
{
layerId = "8538028E-5D6C-4318-9676-30148CDA39CA";
name = Bold;
paths = (
{
closed = 1;
nodes = (
"155 205 LINE",
"93 205 LINE SMOOTH",
"48 205 OFFCURVE",
"30 187 OFFCURVE",
"30 102 CURVE SMOOTH",
"30 17 OFFCURVE",
"48 0 OFFCURVE",
"93 0 CURVE SMOOTH",
"477 0 LINE SMOOTH",
"522 0 OFFCURVE",
"540 17 OFFCURVE",
"540 102 CURVE SMOOTH",
"540 187 OFFCURVE",
"522 205 OFFCURVE",
"477 205 CURVE SMOOTH",
"439 205 LINE",
"610 449 LINE",
"783 205 LINE",
"731 205 LINE SMOOTH",
"686 205 OFFCURVE",
"668 187 OFFCURVE",
"668 102 CURVE SMOOTH",
"668 17 OFFCURVE",
"686 0 OFFCURVE",
"731 0 CURVE SMOOTH",
"1135 0 LINE SMOOTH",
"1180 0 OFFCURVE",
"1198 17 OFFCURVE",
"1198 102 CURVE SMOOTH",
"1198 187 OFFCURVE",
"1180 205 OFFCURVE",
"1135 205 CURVE SMOOTH",
"1074 205 LINE",
"783 604 LINE",
"1049 982 LINE",
"1105 982 LINE SMOOTH",
"1150 982 OFFCURVE",
"1168 999 OFFCURVE",
"1168 1084 CURVE SMOOTH",
"1168 1169 OFFCURVE",
"1150 1187 OFFCURVE",
"1105 1187 CURVE SMOOTH",
"741 1187 LINE SMOOTH",
"696 1187 OFFCURVE",
"678 1169 OFFCURVE",
"678 1084 CURVE SMOOTH",
"678 999 OFFCURVE",
"696 982 OFFCURVE",
"741 982 CURVE SMOOTH",
"765 982 LINE",
"620 773 LINE",
"474 982 LINE",
"517 982 LINE SMOOTH",
"562 982 OFFCURVE",
"580 999 OFFCURVE",
"580 1084 CURVE SMOOTH",
"580 1169 OFFCURVE",
"562 1187 OFFCURVE",
"517 1187 CURVE SMOOTH",
"123 1187 LINE SMOOTH",
"78 1187 OFFCURVE",
"60 1169 OFFCURVE",
"60 1084 CURVE SMOOTH",
"60 999 OFFCURVE",
"78 982 OFFCURVE",
"123 982 CURVE SMOOTH",
"183 982 LINE",
"446 615 LINE"
);
}
);
width = 1228;
}
);
unicode = 0058;
},
{
glyphname = Y;
lastChange = "2014-11-13 04:54:09 -0700";
layers = (
{
layerId = UUID0;
name = Regular;
paths = (
{
closed = 1;
nodes = (
"539 136 LINE",
"313 136 LINE SMOOTH",
"268 136 OFFCURVE",
"250 118 OFFCURVE",
"250 68 CURVE SMOOTH",
"250 18 OFFCURVE",
"268 0 OFFCURVE",
"313 0 CURVE SMOOTH",
"915 0 LINE SMOOTH",
"960 0 OFFCURVE",
"978 18 OFFCURVE",
"978 68 CURVE SMOOTH",
"978 118 OFFCURVE",
"960 136 OFFCURVE",
"915 136 CURVE SMOOTH",
"689 136 LINE",
"689 492 LINE",
"1037 1051 LINE",
"1105 1051 LINE SMOOTH",
"1150 1051 OFFCURVE",
"1168 1069 OFFCURVE",
"1168 1119 CURVE SMOOTH",
"1168 1169 OFFCURVE",
"1150 1187 OFFCURVE",
"1105 1187 CURVE SMOOTH",
"801 1187 LINE SMOOTH",
"756 1187 OFFCURVE",
"738 1169 OFFCURVE",
"738 1119 CURVE SMOOTH",
"738 1069 OFFCURVE",
"756 1051 OFFCURVE",
"801 1051 CURVE SMOOTH",
"866 1051 LINE",
"614 642 LINE",
"364 1051 LINE",
"457 1051 LINE SMOOTH",
"502 1051 OFFCURVE",
"520 1069 OFFCURVE",
"520 1119 CURVE SMOOTH",
"520 1169 OFFCURVE",
"502 1187 OFFCURVE",
"457 1187 CURVE SMOOTH",
"123 1187 LINE SMOOTH",
"78 1187 OFFCURVE",
"60 1169 OFFCURVE",
"60 1119 CURVE SMOOTH",
"60 1069 OFFCURVE",
"78 1051 OFFCURVE",
"123 1051 CURVE SMOOTH",
"193 1051 LINE",
"539 492 LINE"
);
}
);
width = 1228;
},
{
layerId = "8538028E-5D6C-4318-9676-30148CDA39CA";
name = Bold;
paths = (
{
closed = 1;
nodes = (
"489 205 LINE",
"293 205 LINE SMOOTH",
"248 205 OFFCURVE",
"230 187 OFFCURVE",
"230 102 CURVE SMOOTH",
"230 17 OFFCURVE",
"248 0 OFFCURVE",
"293 0 CURVE SMOOTH",
"935 0 LINE SMOOTH",
"980 0 OFFCURVE",
"998 17 OFFCURVE",
"998 102 CURVE SMOOTH",
"998 187 OFFCURVE",
"980 205 OFFCURVE",
"935 205 CURVE SMOOTH",
"739 205 LINE",
"739 459 LINE",
"1081 982 LINE",
"1125 982 LINE SMOOTH",
"1170 982 OFFCURVE",
"1188 999 OFFCURVE",
"1188 1084 CURVE SMOOTH",
"1188 1169 OFFCURVE",
"1170 1187 OFFCURVE",
"1125 1187 CURVE SMOOTH",
"751 1187 LINE SMOOTH",
"706 1187 OFFCURVE",
"688 1169 OFFCURVE",
"688 1084 CURVE SMOOTH",
"688 999 OFFCURVE",
"706 982 OFFCURVE",
"751 982 CURVE SMOOTH",
"804 982 LINE",
"616 690 LINE",
"430 982 LINE",
"497 982 LINE SMOOTH",
"542 982 OFFCURVE",
"560 999 OFFCURVE",
"560 1084 CURVE SMOOTH",
"560 1169 OFFCURVE",
"542 1187 OFFCURVE",
"497 1187 CURVE SMOOTH",
"103 1187 LINE SMOOTH",
"58 1187 OFFCURVE",
"40 1169 OFFCURVE",
"40 1084 CURVE SMOOTH",
"40 999 OFFCURVE",
"58 982 OFFCURVE",
"103 982 CURVE SMOOTH",
"149 982 LINE",
"489 460 LINE"
);
}
);
width = 1228;
}
);
unicode = 0059;
},
{
glyphname = Z;
lastChange = "2014-11-13 04:54:09 -0700";
layers = (
{
layerId = UUID0;
name = Regular;
paths = (
{
closed = 1;
nodes = (
"377 136 LINE",
"1040 1080 LINE SMOOTH",
"1047 1090 OFFCURVE",
"1050 1103 OFFCURVE",
"1050 1119 CURVE SMOOTH",
"1050 1169 OFFCURVE",
"1032 1187 OFFCURVE",
"987 1187 CURVE SMOOTH",
"251 1187 LINE SMOOTH",
"206 1187 OFFCURVE",
"188 1169 OFFCURVE",
"188 1119 CURVE SMOOTH",
"188 802 LINE SMOOTH",
"188 756 OFFCURVE",
"207 737 OFFCURVE",
"263 737 CURVE SMOOTH",
"319 737 OFFCURVE",
"338 756 OFFCURVE",
"338 802 CURVE SMOOTH",
"338 1051 LINE",
"840 1051 LINE",
"181 111 LINE SMOOTH",
"173 99 OFFCURVE",
"167 86 OFFCURVE",
"167 68 CURVE SMOOTH",
"167 18 OFFCURVE",
"185 0 OFFCURVE",
"230 0 CURVE SMOOTH",
"996 0 LINE SMOOTH",
"1041 0 OFFCURVE",
"1059 18 OFFCURVE",
"1059 68 CURVE SMOOTH",
"1059 405 LINE SMOOTH",
"1059 451 OFFCURVE",
"1040 470 OFFCURVE",
"984 470 CURVE SMOOTH",
"928 470 OFFCURVE",
"909 451 OFFCURVE",
"909 405 CURVE SMOOTH",
"909 136 LINE"
);
}
);
width = 1228;
},
{
layerId = "8538028E-5D6C-4318-9676-30148CDA39CA";
name = Bold;
paths = (
{
closed = 1;
nodes = (
"483 215 LINE",
"1057 992 LINE SMOOTH",
"1072 1012 OFFCURVE",
"1080 1041 OFFCURVE",
"1080 1084 CURVE SMOOTH",
"1080 1169 OFFCURVE",
"1062 1187 OFFCURVE",
"1017 1187 CURVE SMOOTH",
"233 1187 LINE SMOOTH",
"187 1187 OFFCURVE",
"168 1168 OFFCURVE",
"168 1122 CURVE SMOOTH",
"168 770 LINE SMOOTH",
"168 725 OFFCURVE",
"191 707 OFFCURVE",
"276 707 CURVE SMOOTH",
"361 707 OFFCURVE",
"398 725 OFFCURVE",
"398 770 CURVE SMOOTH",
"398 972 LINE",
"732 972 LINE",
"158 195 LINE SMOOTH",
"144 176 OFFCURVE",
"138 147 OFFCURVE",
"138 102 CURVE SMOOTH",
"138 17 OFFCURVE",
"156 0 OFFCURVE",
"201 0 CURVE SMOOTH",
"1015 0 LINE SMOOTH",
"1061 0 OFFCURVE",
"1080 19 OFFCURVE",
"1080 65 CURVE SMOOTH",
"1080 437 LINE SMOOTH",
"1080 482 OFFCURVE",
"1057 500 OFFCURVE",
"972 500 CURVE SMOOTH",
"887 500 OFFCURVE",
"850 482 OFFCURVE",
"850 437 CURVE SMOOTH",
"850 215 LINE"
);
}
);
width = 1228;
}
);
unicode = 005A;
},
{
glyphname = a;
lastChange = "2014-11-13 04:54:09 -0700";
layers = (
{
layerId = UUID0;
name = Regular;
paths = (
{
closed = 1;
nodes = (
"503 946 OFFCURVE",
"353 912 OFFCURVE",
"248 834 CURVE SMOOTH",
"217 811 OFFCURVE",
"209 778 OFFCURVE",
"238 737 CURVE SMOOTH",
"267 696 OFFCURVE",
"300 691 OFFCURVE",
"331 713 CURVE SMOOTH",
"414 772 OFFCURVE",
"531 801 OFFCURVE",
"638 801 CURVE SMOOTH",
"789 801 OFFCURVE",
"844 743 OFFCURVE",
"844 613 CURVE SMOOTH",
"844 528 LINE",
"750 561 OFFCURVE",
"648 579 OFFCURVE",
"540 579 CURVE SMOOTH",
"321 579 OFFCURVE",
"135 494 OFFCURVE",
"135 270 CURVE SMOOTH",
"135 84 OFFCURVE",
"279 -22 OFFCURVE",
"479 -22 CURVE SMOOTH",
"626 -22 OFFCURVE",
"754 36 OFFCURVE",
"859 128 CURVE",
"878 40 OFFCURVE",
"949 0 OFFCURVE",
"1031 0 CURVE SMOOTH",
"1095 0 LINE SMOOTH",
"1140 0 OFFCURVE",
"1158 18 OFFCURVE",
"1158 68 CURVE SMOOTH",
"1158 118 OFFCURVE",
"1140 136 OFFCURVE",
"1095 136 CURVE SMOOTH",
"1060 136 LINE SMOOTH",
"1017 136 OFFCURVE",
"994 162 OFFCURVE",
"994 215 CURVE SMOOTH",
"994 613 LINE SMOOTH",
"994 832 OFFCURVE",
"875 946 OFFCURVE",
"638 946 CURVE SMOOTH"
);
},
{
closed = 1;
nodes = (
"644 438 OFFCURVE",
"752 423 OFFCURVE",
"844 393 CURVE",
"844 284 LINE",
"746 183 OFFCURVE",
"627 119 OFFCURVE",
"485 119 CURVE SMOOTH",
"364 119 OFFCURVE",
"293 176 OFFCURVE",
"293 273 CURVE SMOOTH",
"293 394 OFFCURVE",
"397 438 OFFCURVE",
"541 438 CURVE SMOOTH"
);
}
);
width = 1228;
},
{
layerId = "8538028E-5D6C-4318-9676-30148CDA39CA";
name = Bold;
paths = (
{
closed = 1;
nodes = (
"494 946 OFFCURVE",
"351 923 OFFCURVE",
"226 877 CURVE SMOOTH",
"179 860 OFFCURVE",
"170 820 OFFCURVE",
"199 740 CURVE SMOOTH",
"228 660 OFFCURVE",
"262 652 OFFCURVE",
"304 666 CURVE SMOOTH",
"395 697 OFFCURVE",
"496 719 OFFCURVE",
"575 719 CURVE SMOOTH",
"720 719 OFFCURVE",
"769 672 OFFCURVE",
"769 588 CURVE SMOOTH",
"769 559 LINE",
"669 579 OFFCURVE",
"575 589 OFFCURVE",
"486 589 CURVE SMOOTH",
"250 589 OFFCURVE",
"110 482 OFFCURVE",
"110 295 CURVE SMOOTH",
"110 100 OFFCURVE",
"245 -22 OFFCURVE",
"474 -22 CURVE SMOOTH",
"601 -22 OFFCURVE",
"720 27 OFFCURVE",
"822 106 CURVE",
"857 30 OFFCURVE",
"925 0 OFFCURVE",
"1004 0 CURVE SMOOTH",
"1116 0 LINE SMOOTH",
"1161 0 OFFCURVE",
"1179 17 OFFCURVE",
"1179 102 CURVE SMOOTH",
"1179 187 OFFCURVE",
"1161 205 OFFCURVE",
"1116 205 CURVE SMOOTH",
"1085 205 LINE SMOOTH",
"1042 205 OFFCURVE",
"1019 237 OFFCURVE",
"1019 290 CURVE SMOOTH",
"1019 579 LINE SMOOTH",
"1019 804 OFFCURVE",
"908 946 OFFCURVE",
"603 946 CURVE SMOOTH"
);
},
{
closed = 1;
nodes = (
"592 383 OFFCURVE",
"676 375 OFFCURVE",
"769 356 CURVE",
"769 292 LINE",
"694 231 OFFCURVE",
"601 189 OFFCURVE",
"506 189 CURVE SMOOTH",
"417 189 OFFCURVE",
"368 222 OFFCURVE",
"368 285 CURVE SMOOTH",
"368 348 OFFCURVE",
"417 383 OFFCURVE",
"511 383 CURVE SMOOTH"
);
}
);
width = 1228;
}
);
unicode = 0061;
},
{
glyphname = aogonek;
lastChange = "2014-11-13 04:54:09 -0700";
layers = (
{
background = {
paths = (
{
closed = 1;
nodes = (
"1060 136 LINE SMOOTH",
"1017 136 OFFCURVE",
"994 162 OFFCURVE",
"994 215 CURVE SMOOTH",
"994 613 LINE SMOOTH",
"994 832 OFFCURVE",
"875 946 OFFCURVE",
"638 946 CURVE SMOOTH",
"503 946 OFFCURVE",
"353 912 OFFCURVE",
"248 834 CURVE SMOOTH",
"217 811 OFFCURVE",
"209 778 OFFCURVE",
"238 737 CURVE SMOOTH",
"267 696 OFFCURVE",
"300 691 OFFCURVE",
"331 713 CURVE SMOOTH",
"414 772 OFFCURVE",
"531 801 OFFCURVE",
"638 801 CURVE SMOOTH",
"789 801 OFFCURVE",
"844 743 OFFCURVE",
"844 613 CURVE SMOOTH",
"844 528 LINE",
"750 561 OFFCURVE",
"648 579 OFFCURVE",
"540 579 CURVE SMOOTH",
"321 579 OFFCURVE",
"135 494 OFFCURVE",
"135 270 CURVE SMOOTH",
"135 84 OFFCURVE",
"279 -22 OFFCURVE",
"479 -22 CURVE SMOOTH",
"626 -22 OFFCURVE",
"754 36 OFFCURVE",
"859 128 CURVE",
"870 75 OFFCURVE",
"900 40 OFFCURVE",
"939 20 CURVE",
"826 -74 OFFCURVE",
"751 -171 OFFCURVE",
"751 -281 CURVE SMOOTH",
"751 -397 OFFCURVE",
"827 -472 OFFCURVE",
"951 -472 CURVE SMOOTH",
"1013 -472 OFFCURVE",
"1069 -462 OFFCURVE",
"1115 -446 CURVE SMOOTH",
"1144 -436 OFFCURVE",
"1153 -415 OFFCURVE",
"1147 -374 CURVE SMOOTH",
"1142 -337 OFFCURVE",
"1123 -322 OFFCURVE",
"1097 -326 CURVE SMOOTH",
"1062 -332 OFFCURVE",
"1023 -336 OFFCURVE",
"984 -336 CURVE SMOOTH",
"939 -336 OFFCURVE",
"907 -310 OFFCURVE",
"907 -261 CURVE SMOOTH",
"907 -188 OFFCURVE",
"954 -110 OFFCURVE",
"1073 0 CURVE",
"1095 0 LINE SMOOTH",
"1140 0 OFFCURVE",
"1158 18 OFFCURVE",
"1158 68 CURVE SMOOTH",
"1158 118 OFFCURVE",
"1140 136 OFFCURVE",
"1095 136 CURVE SMOOTH"
);
},
{
closed = 1;
nodes = (
"844 284 LINE",
"746 183 OFFCURVE",
"627 119 OFFCURVE",
"485 119 CURVE SMOOTH",
"364 119 OFFCURVE",
"293 176 OFFCURVE",
"293 273 CURVE SMOOTH",
"293 394 OFFCURVE",
"397 438 OFFCURVE",
"541 438 CURVE SMOOTH",
"644 438 OFFCURVE",
"752 423 OFFCURVE",
"844 393 CURVE"
);
}
);
};
components = (
{
name = a;
transform = "{1, 0, 0, 1, 0, 0}";
},
{
name = ogonek;
transform = "{1, 0, 0, 1, 340, 0}";
}
);
layerId = UUID0;
name = Regular;
width = 1228;
},
{
background = {
paths = (
{
closed = 1;
nodes = (
"850 66 OFFCURVE",
"877 39 OFFCURVE",
"909 22 CURVE",
"786 -55 OFFCURVE",
"689 -142 OFFCURVE",
"689 -269 CURVE SMOOTH",
"689 -402 OFFCURVE",
"779 -472 OFFCURVE",
"935 -472 CURVE SMOOTH",
"1008 -472 OFFCURVE",
"1084 -459 OFFCURVE",
"1151 -438 CURVE SMOOTH",
"1179 -429 OFFCURVE",
"1192 -399 OFFCURVE",
"1188 -353 CURVE SMOOTH",
"1184 -307 OFFCURVE",
"1166 -281 OFFCURVE",
"1140 -285 CURVE SMOOTH",
"1097 -292 OFFCURVE",
"1059 -298 OFFCURVE",
"1020 -298 CURVE SMOOTH",
"963 -298 OFFCURVE",
"932 -278 OFFCURVE",
"932 -231 CURVE SMOOTH",
"932 -163 OFFCURVE",
"993 -84 OFFCURVE",
"1091 0 CURVE",
"1126 0 LINE SMOOTH",
"1171 0 OFFCURVE",
"1189 17 OFFCURVE",
"1189 102 CURVE SMOOTH",
"1189 187 OFFCURVE",
"1171 205 OFFCURVE",
"1126 205 CURVE SMOOTH",
"1095 205 LINE SMOOTH",
"1052 205 OFFCURVE",
"1029 237 OFFCURVE",
"1029 290 CURVE SMOOTH",
"1029 579 LINE SMOOTH",
"1029 804 OFFCURVE",
"918 946 OFFCURVE",
"613 946 CURVE SMOOTH",
"504 946 OFFCURVE",
"361 923 OFFCURVE",
"236 877 CURVE SMOOTH",
"189 860 OFFCURVE",
"180 820 OFFCURVE",
"209 740 CURVE SMOOTH",
"238 660 OFFCURVE",
"272 652 OFFCURVE",
"314 666 CURVE SMOOTH",
"405 697 OFFCURVE",
"506 719 OFFCURVE",
"585 719 CURVE SMOOTH",
"730 719 OFFCURVE",
"779 672 OFFCURVE",
"779 588 CURVE SMOOTH",
"779 559 LINE",
"679 579 OFFCURVE",
"585 589 OFFCURVE",
"496 589 CURVE SMOOTH",
"260 589 OFFCURVE",
"120 482 OFFCURVE",
"120 295 CURVE SMOOTH",
"120 100 OFFCURVE",
"255 -22 OFFCURVE",
"484 -22 CURVE SMOOTH",
"611 -22 OFFCURVE",
"730 27 OFFCURVE",
"832 106 CURVE"
);
},
{
closed = 1;
nodes = (
"779 292 LINE",
"704 231 OFFCURVE",
"611 189 OFFCURVE",
"516 189 CURVE SMOOTH",
"427 189 OFFCURVE",
"378 222 OFFCURVE",
"378 285 CURVE SMOOTH",
"378 348 OFFCURVE",
"427 383 OFFCURVE",
"521 383 CURVE SMOOTH",
"602 383 OFFCURVE",
"686 375 OFFCURVE",
"779 356 CURVE"
);
}
);
};
components = (
{
name = a;
transform = "{1, 0, 0, 1, 0, 0}";
},
{
name = ogonek;
transform = "{1, 0, 0, 1, 340, 0}";
}
);
layerId = "8538028E-5D6C-4318-9676-30148CDA39CA";
name = Bold;
width = 1228;
}
);
unicode = 0105;
},
{
glyphname = ae;
lastChange = "2014-11-13 04:54:09 -0700";
layers = (
{
layerId = UUID0;
name = Regular;
paths = (
{
closed = 1;
nodes = (
"759 946 OFFCURVE",
"682 907 OFFCURVE",
"629 830 CURVE",
"586 903 OFFCURVE",
"515 946 OFFCURVE",
"408 946 CURVE SMOOTH",
"314 946 OFFCURVE",
"224 913 OFFCURVE",
"139 840 CURVE SMOOTH",
"109 814 OFFCURVE",
"108 775 OFFCURVE",
"137 742 CURVE SMOOTH",
"166 710 OFFCURVE",
"202 710 OFFCURVE",
"231 732 CURVE SMOOTH",
"292 779 OFFCURVE",
"347 801 OFFCURVE",
"408 801 CURVE SMOOTH",
"514 801 OFFCURVE",
"539 726 OFFCURVE",
"539 602 CURVE SMOOTH",
"539 580 LINE",
"261 580 OFFCURVE",
"75 468 OFFCURVE",
"75 240 CURVE SMOOTH",
"75 79 OFFCURVE",
"178 -22 OFFCURVE",
"335 -22 CURVE SMOOTH",
"443 -22 OFFCURVE",
"545 33 OFFCURVE",
"609 122 CURVE",
"664 24 OFFCURVE",
"748 -22 OFFCURVE",
"853 -22 CURVE SMOOTH",
"948 -22 OFFCURVE",
"1038 14 OFFCURVE",
"1112 84 CURVE SMOOTH",
"1144 114 OFFCURVE",
"1149 149 OFFCURVE",
"1118 187 CURVE SMOOTH",
"1087 225 OFFCURVE",
"1048 226 OFFCURVE",
"1023 201 CURVE SMOOTH",
"967 147 OFFCURVE",
"917 123 OFFCURVE",
"853 123 CURVE SMOOTH",
"764 123 OFFCURVE",
"693 199 OFFCURVE",
"689 440 CURVE",
"1088 440 LINE SMOOTH",
"1133 440 OFFCURVE",
"1151 457 OFFCURVE",
"1151 502 CURVE",
"1144 769 OFFCURVE",
"1065 946 OFFCURVE",
"853 946 CURVE SMOOTH"
);
},
{
closed = 1;
nodes = (
"539 340 LINE SMOOTH",
"539 211 OFFCURVE",
"452 119 OFFCURVE",
"339 119 CURVE SMOOTH",
"272 119 OFFCURVE",
"228 163 OFFCURVE",
"228 240 CURVE SMOOTH",
"228 371 OFFCURVE",
"322 440 OFFCURVE",
"539 440 CURVE"
);
},
{
closed = 1;
nodes = (
"946 801 OFFCURVE",
"985 717 OFFCURVE",
"994 580 CURVE",
"694 580 LINE",
"710 739 OFFCURVE",
"763 801 OFFCURVE",
"855 801 CURVE SMOOTH"
);
}
);
width = 1228;
},
{
background = {
paths = (
{
closed = 1;
nodes = (
"761 946 OFFCURVE",
"687 912 OFFCURVE",
"634 852 CURVE",
"583 911 OFFCURVE",
"506 946 OFFCURVE",
"393 946 CURVE SMOOTH",
"288 946 OFFCURVE",
"183 919 OFFCURVE",
"96 868 CURVE SMOOTH",
"53 843 OFFCURVE",
"50 799 OFFCURVE",
"78 738 CURVE SMOOTH",
"111 666 OFFCURVE",
"148 646 OFFCURVE",
"189 667 CURVE SMOOTH",
"246 696 OFFCURVE",
"303 719 OFFCURVE",
"365 719 CURVE SMOOTH",
"463 719 OFFCURVE",
"509 672 OFFCURVE",
"509 588 CURVE SMOOTH",
"509 582 LINE",
"478 585 OFFCURVE",
"447 587 OFFCURVE",
"417 587 CURVE SMOOTH",
"215 587 OFFCURVE",
"32 506 OFFCURVE",
"32 275 CURVE SMOOTH",
"32 89 OFFCURVE",
"154 -22 OFFCURVE",
"335 -22 CURVE SMOOTH",
"448 -22 OFFCURVE",
"539 18 OFFCURVE",
"603 102 CURVE",
"655 24 OFFCURVE",
"733 -22 OFFCURVE",
"843 -22 CURVE SMOOTH",
"950 -22 OFFCURVE",
"1055 10 OFFCURVE",
"1145 49 CURVE SMOOTH",
"1193 70 OFFCURVE",
"1201 108 OFFCURVE",
"1176 179 CURVE SMOOTH",
"1155 241 OFFCURVE",
"1127 277 OFFCURVE",
"1076 255 CURVE SMOOTH",
"994 220 OFFCURVE",
"933 205 OFFCURVE",
"858 205 CURVE SMOOTH",
"782 205 OFFCURVE",
"738 262 OFFCURVE",
"724 370 CURVE",
"1130 370 LINE SMOOTH",
"1175 370 OFFCURVE",
"1193 387 OFFCURVE",
"1193 432 CURVE SMOOTH",
"1193 729 OFFCURVE",
"1129 946 OFFCURVE",
"858 946 CURVE SMOOTH"
);
},
{
closed = 1;
nodes = (
"509 358 LINE SMOOTH",
"509 261 OFFCURVE",
"453 189 OFFCURVE",
"358 189 CURVE SMOOTH",
"292 189 OFFCURVE",
"260 226 OFFCURVE",
"260 285 CURVE SMOOTH",
"260 390 OFFCURVE",
"366 398 OFFCURVE",
"509 390 CURVE"
);
},
{
closed = 1;
nodes = (
"926 719 OFFCURVE",
"962 661 OFFCURVE",
"968 565 CURVE",
"724 565 LINE",
"738 669 OFFCURVE",
"777 719 OFFCURVE",
"858 719 CURVE SMOOTH"
);
}
);
};
layerId = "8538028E-5D6C-4318-9676-30148CDA39CA";
name = Bold;
paths = (
{
closed = 1;
nodes = (
"761 946 OFFCURVE",
"687 912 OFFCURVE",
"634 852 CURVE",
"583 911 OFFCURVE",
"506 946 OFFCURVE",
"393 946 CURVE SMOOTH",
"288 946 OFFCURVE",
"183 919 OFFCURVE",
"96 868 CURVE SMOOTH",
"53 843 OFFCURVE",
"50 799 OFFCURVE",
"78 738 CURVE SMOOTH",
"111 666 OFFCURVE",
"148 646 OFFCURVE",
"189 667 CURVE SMOOTH",
"246 696 OFFCURVE",
"303 719 OFFCURVE",
"365 719 CURVE SMOOTH",
"463 719 OFFCURVE",
"509 672 OFFCURVE",
"509 588 CURVE SMOOTH",
"509 582 LINE",
"279 607 OFFCURVE",
"32 544 OFFCURVE",
"32 275 CURVE SMOOTH",
"32 89 OFFCURVE",
"154 -22 OFFCURVE",
"335 -22 CURVE SMOOTH",
"448 -22 OFFCURVE",
"539 18 OFFCURVE",
"603 102 CURVE",
"655 24 OFFCURVE",
"733 -22 OFFCURVE",
"843 -22 CURVE SMOOTH",
"950 -22 OFFCURVE",
"1055 10 OFFCURVE",
"1145 49 CURVE SMOOTH",
"1193 70 OFFCURVE",
"1201 108 OFFCURVE",
"1176 179 CURVE SMOOTH",
"1155 241 OFFCURVE",
"1127 277 OFFCURVE",
"1076 255 CURVE SMOOTH",
"994 220 OFFCURVE",
"933 205 OFFCURVE",
"858 205 CURVE SMOOTH",
"782 205 OFFCURVE",
"738 262 OFFCURVE",
"724 370 CURVE",
"1130 370 LINE SMOOTH",
"1175 370 OFFCURVE",
"1193 387 OFFCURVE",
"1193 432 CURVE SMOOTH",
"1193 729 OFFCURVE",
"1129 946 OFFCURVE",
"858 946 CURVE SMOOTH"
);
},
{
closed = 1;
nodes = (
"509 358 LINE SMOOTH",
"509 261 OFFCURVE",
"453 189 OFFCURVE",
"358 189 CURVE SMOOTH",
"292 189 OFFCURVE",
"260 226 OFFCURVE",
"260 285 CURVE SMOOTH",
"260 390 OFFCURVE",
"366 398 OFFCURVE",
"509 390 CURVE"
);
},
{
closed = 1;
nodes = (
"926 719 OFFCURVE",
"962 661 OFFCURVE",
"968 565 CURVE",
"724 565 LINE",
"738 669 OFFCURVE",
"777 719 OFFCURVE",
"858 719 CURVE SMOOTH"
);
}
);
width = 1228;
}
);
unicode = 00E6;
},
{
glyphname = b;
lastChange = "2014-11-13 04:54:09 -0700";
layers = (
{
layerId = UUID0;
name = Regular;
paths = (
{
closed = 1;
nodes = (
"202 136 LINE",
"120 136 LINE SMOOTH",
"75 136 OFFCURVE",
"57 118 OFFCURVE",
"57 68 CURVE SMOOTH",
"57 18 OFFCURVE",
"75 0 OFFCURVE",
"120 0 CURVE SMOOTH",
"279 0 LINE SMOOTH",
"324 0 OFFCURVE",
"342 18 OFFCURVE",
"342 68 CURVE SMOOTH",
"342 148 LINE",
"424 41 OFFCURVE",
"536 -22 OFFCURVE",
"669 -22 CURVE SMOOTH",
"916 -22 OFFCURVE",
"1101 160 OFFCURVE",
"1101 462 CURVE SMOOTH",
"1101 764 OFFCURVE",
"916 946 OFFCURVE",
"669 946 CURVE SMOOTH",
"536 946 OFFCURVE",
"432 883 OFFCURVE",
"352 781 CURVE",
"352 1244 LINE SMOOTH",
"352 1294 OFFCURVE",
"334 1312 OFFCURVE",
"289 1312 CURVE SMOOTH",
"100 1312 LINE SMOOTH",
"55 1312 OFFCURVE",
"37 1294 OFFCURVE",
"37 1244 CURVE SMOOTH",
"37 1194 OFFCURVE",
"55 1176 OFFCURVE",
"100 1176 CURVE SMOOTH",
"202 1176 LINE"
);
},
{
closed = 1;
nodes = (
"352 674 OFFCURVE",
"482 798 OFFCURVE",
"659 798 CURVE SMOOTH",
"840 798 OFFCURVE",
"943 658 OFFCURVE",
"943 462 CURVE SMOOTH",
"943 266 OFFCURVE",
"840 126 OFFCURVE",
"659 126 CURVE SMOOTH",
"482 126 OFFCURVE",
"352 250 OFFCURVE",
"352 462 CURVE SMOOTH"
);
}
);
width = 1228;
},
{
layerId = "8538028E-5D6C-4318-9676-30148CDA39CA";
name = Bold;
paths = (
{
closed = 1;
nodes = (
"187 205 LINE",
"110 205 LINE SMOOTH",
"65 205 OFFCURVE",
"47 188 OFFCURVE",
"47 103 CURVE SMOOTH",
"47 18 OFFCURVE",
"65 0 OFFCURVE",
"110 0 CURVE SMOOTH",
"334 0 LINE SMOOTH",
"379 0 OFFCURVE",
"397 18 OFFCURVE",
"397 63 CURVE SMOOTH",
"397 147 LINE",
"465 42 OFFCURVE",
"572 -22 OFFCURVE",
"700 -22 CURVE SMOOTH",
"969 -22 OFFCURVE",
"1131 192 OFFCURVE",
"1131 462 CURVE SMOOTH",
"1131 732 OFFCURVE",
"969 946 OFFCURVE",
"700 946 CURVE SMOOTH",
"594 946 OFFCURVE",
"504 902 OFFCURVE",
"437 828 CURVE",
"437 1249 LINE SMOOTH",
"437 1294 OFFCURVE",
"419 1312 OFFCURVE",
"374 1312 CURVE SMOOTH",
"90 1312 LINE SMOOTH",
"45 1312 OFFCURVE",
"27 1294 OFFCURVE",
"27 1209 CURVE SMOOTH",
"27 1124 OFFCURVE",
"45 1107 OFFCURVE",
"90 1107 CURVE SMOOTH",
"187 1107 LINE"
);
},
{
closed = 1;
nodes = (
"430 628 OFFCURVE",
"535 719 OFFCURVE",
"660 719 CURVE SMOOTH",
"785 719 OFFCURVE",
"863 618 OFFCURVE",
"863 462 CURVE SMOOTH",
"863 306 OFFCURVE",
"785 205 OFFCURVE",
"660 205 CURVE SMOOTH",
"535 205 OFFCURVE",
"430 296 OFFCURVE",
"430 462 CURVE SMOOTH"
);
}
);
width = 1228;
}
);
unicode = 0062;
},
{
glyphname = c;
lastChange = "2014-11-13 04:54:09 -0700";
layers = (
{
layerId = UUID0;
name = Regular;
paths = (
{
closed = 1;
nodes = (
"918 946 OFFCURVE",
"899 927 OFFCURVE",
"899 881 CURVE SMOOTH",
"899 821 LINE",
"831 900 OFFCURVE",
"729 946 OFFCURVE",
"609 946 CURVE SMOOTH",
"322 946 OFFCURVE",
"127 739 OFFCURVE",
"127 462 CURVE SMOOTH",
"127 185 OFFCURVE",
"317 -22 OFFCURVE",
"609 -22 CURVE SMOOTH",
"761 -22 OFFCURVE",
"914 26 OFFCURVE",
"1021 106 CURVE SMOOTH",
"1060 134 OFFCURVE",
"1060 176 OFFCURVE",
"1038 212 CURVE SMOOTH",
"1010 258 OFFCURVE",
"979 263 OFFCURVE",
"945 237 CURVE SMOOTH",
"850 164 OFFCURVE",
"731 126 OFFCURVE",
"609 126 CURVE SMOOTH",
"414 126 OFFCURVE",
"285 267 OFFCURVE",
"285 462 CURVE SMOOTH",
"285 657 OFFCURVE",
"424 798 OFFCURVE",
"619 798 CURVE SMOOTH",
"802 798 OFFCURVE",
"899 712 OFFCURVE",
"899 591 CURVE SMOOTH",
"899 545 OFFCURVE",
"918 526 OFFCURVE",
"974 526 CURVE SMOOTH",
"1030 526 OFFCURVE",
"1049 545 OFFCURVE",
"1049 591 CURVE SMOOTH",
"1049 881 LINE SMOOTH",
"1049 927 OFFCURVE",
"1030 946 OFFCURVE",
"974 946 CURVE SMOOTH"
);
}
);
width = 1228;
},
{
layerId = "8538028E-5D6C-4318-9676-30148CDA39CA";
name = Bold;
paths = (
{
closed = 1;
nodes = (
"870 946 OFFCURVE",
"833 928 OFFCURVE",
"833 883 CURVE SMOOTH",
"833 829 LINE",
"787 909 OFFCURVE",
"711 946 OFFCURVE",
"604 946 CURVE SMOOTH",
"335 946 OFFCURVE",
"127 747 OFFCURVE",
"127 462 CURVE SMOOTH",
"127 182 OFFCURVE",
"325 -22 OFFCURVE",
"634 -22 CURVE SMOOTH",
"776 -22 OFFCURVE",
"916 22 OFFCURVE",
"1035 88 CURVE SMOOTH",
"1077 111 OFFCURVE",
"1093 151 OFFCURVE",
"1060 230 CURVE SMOOTH",
"1027 308 OFFCURVE",
"987 322 OFFCURVE",
"948 299 CURVE SMOOTH",
"850 242 OFFCURVE",
"740 205 OFFCURVE",
"634 205 CURVE SMOOTH",
"489 205 OFFCURVE",
"395 306 OFFCURVE",
"395 462 CURVE SMOOTH",
"395 618 OFFCURVE",
"489 719 OFFCURVE",
"634 719 CURVE SMOOTH",
"753 719 OFFCURVE",
"813 644 OFFCURVE",
"813 562 CURVE SMOOTH",
"813 517 OFFCURVE",
"836 499 OFFCURVE",
"931 499 CURVE SMOOTH",
"1026 499 OFFCURVE",
"1063 517 OFFCURVE",
"1063 562 CURVE SMOOTH",
"1063 883 LINE SMOOTH",
"1063 928 OFFCURVE",
"1040 946 OFFCURVE",
"955 946 CURVE SMOOTH"
);
}
);
width = 1228;
}
);
unicode = 0063;
},
{
glyphname = ccedilla;
lastChange = "2014-11-13 04:54:09 -0700";
layers = (
{
background = {
paths = (
{
closed = 1;
nodes = (
"529 -175 LINE SMOOTH",
"529 -213 OFFCURVE",
"550 -218 OFFCURVE",
"569 -217 CURVE SMOOTH",
"661 -210 OFFCURVE",
"714 -229 OFFCURVE",
"714 -285 CURVE SMOOTH",
"714 -327 OFFCURVE",
"677 -352 OFFCURVE",
"611 -352 CURVE SMOOTH",
"544 -352 OFFCURVE",
"470 -338 OFFCURVE",
"418 -318 CURVE SMOOTH",
"393 -308 OFFCURVE",
"370 -330 OFFCURVE",
"359 -356 CURVE SMOOTH",
"348 -382 OFFCURVE",
"350 -413 OFFCURVE",
"374 -424 CURVE SMOOTH",
"443 -456 OFFCURVE",
"532 -472 OFFCURVE",
"621 -472 CURVE SMOOTH",
"788 -472 OFFCURVE",
"870 -393 OFFCURVE",
"870 -281 CURVE SMOOTH",
"870 -187 OFFCURVE",
"802 -110 OFFCURVE",
"664 -113 CURVE",
"664 -20 LINE",
"797 -10 OFFCURVE",
"927 36 OFFCURVE",
"1021 106 CURVE SMOOTH",
"1060 135 OFFCURVE",
"1060 176 OFFCURVE",
"1038 212 CURVE SMOOTH",
"1010 258 OFFCURVE",
"979 263 OFFCURVE",
"945 237 CURVE SMOOTH",
"850 164 OFFCURVE",
"731 126 OFFCURVE",
"609 126 CURVE SMOOTH",
"414 126 OFFCURVE",
"285 267 OFFCURVE",
"285 462 CURVE SMOOTH",
"285 657 OFFCURVE",
"424 798 OFFCURVE",
"619 798 CURVE SMOOTH",
"802 798 OFFCURVE",
"899 712 OFFCURVE",
"899 591 CURVE SMOOTH",
"899 545 OFFCURVE",
"918 526 OFFCURVE",
"974 526 CURVE SMOOTH",
"1030 526 OFFCURVE",
"1049 545 OFFCURVE",
"1049 591 CURVE SMOOTH",
"1049 881 LINE SMOOTH",
"1049 927 OFFCURVE",
"1030 946 OFFCURVE",
"974 946 CURVE SMOOTH",
"918 946 OFFCURVE",
"899 927 OFFCURVE",
"899 881 CURVE SMOOTH",
"899 821 LINE",
"831 900 OFFCURVE",
"729 946 OFFCURVE",
"609 946 CURVE SMOOTH",
"322 946 OFFCURVE",
"127 739 OFFCURVE",
"127 462 CURVE SMOOTH",
"127 211 OFFCURVE",
"283 18 OFFCURVE",
"529 -16 CURVE"
);
}
);
};
components = (
{
name = c;
transform = "{1, 0, 0, 1, 0, 0}";
},
{
name = cedilla;
transform = "{1, 0, 0, 1, 0, 0}";
}
);
layerId = UUID0;
name = Regular;
width = 1228;
},
{
background = {
paths = (
{
closed = 1;
nodes = (
"850 242 OFFCURVE",
"740 205 OFFCURVE",
"634 205 CURVE SMOOTH",
"489 205 OFFCURVE",
"395 306 OFFCURVE",
"395 462 CURVE SMOOTH",
"395 618 OFFCURVE",
"489 719 OFFCURVE",
"634 719 CURVE SMOOTH",
"753 719 OFFCURVE",
"813 644 OFFCURVE",
"813 562 CURVE SMOOTH",
"813 517 OFFCURVE",
"836 499 OFFCURVE",
"931 499 CURVE SMOOTH",
"1026 499 OFFCURVE",
"1063 517 OFFCURVE",
"1063 562 CURVE SMOOTH",
"1063 883 LINE SMOOTH",
"1063 928 OFFCURVE",
"1040 946 OFFCURVE",
"955 946 CURVE SMOOTH",
"870 946 OFFCURVE",
"833 928 OFFCURVE",
"833 883 CURVE SMOOTH",
"833 829 LINE",
"787 909 OFFCURVE",
"711 946 OFFCURVE",
"604 946 CURVE SMOOTH",
"335 946 OFFCURVE",
"127 747 OFFCURVE",
"127 462 CURVE SMOOTH",
"127 222 OFFCURVE",
"272 38 OFFCURVE",
"509 -9 CURVE",
"509 -180 LINE SMOOTH",
"509 -215 OFFCURVE",
"528 -226 OFFCURVE",
"551 -221 CURVE SMOOTH",
"611 -208 OFFCURVE",
"674 -214 OFFCURVE",
"674 -269 CURVE SMOOTH",
"674 -304 OFFCURVE",
"646 -322 OFFCURVE",
"588 -322 CURVE SMOOTH",
"521 -322 OFFCURVE",
"477 -308 OFFCURVE",
"425 -288 CURVE",
"399 -280 OFFCURVE",
"378 -302 OFFCURVE",
"361 -348 CURVE SMOOTH",
"346 -390 OFFCURVE",
"347 -420 OFFCURVE",
"372 -430 CURVE SMOOTH",
"442 -457 OFFCURVE",
"532 -472 OFFCURVE",
"631 -472 CURVE SMOOTH",
"814 -472 OFFCURVE",
"910 -402 OFFCURVE",
"910 -281 CURVE SMOOTH",
"910 -167 OFFCURVE",
"840 -88 OFFCURVE",
"684 -93 CURVE",
"684 -20 LINE",
"808 -11 OFFCURVE",
"930 30 OFFCURVE",
"1035 88 CURVE SMOOTH",
"1077 111 OFFCURVE",
"1093 151 OFFCURVE",
"1060 230 CURVE SMOOTH",
"1027 308 OFFCURVE",
"987 322 OFFCURVE",
"948 299 CURVE SMOOTH"
);
}
);
};
components = (
{
name = c;
transform = "{1, 0, 0, 1, 0, 0}";
},
{
name = cedilla;
transform = "{1, 0, 0, 1, 0, 0}";
}
);
layerId = "8538028E-5D6C-4318-9676-30148CDA39CA";
name = Bold;
width = 1228;
}
);
unicode = 00E7;
},
{
glyphname = d;
lastChange = "2014-11-13 04:54:09 -0700";
layers = (
{
layerId = UUID0;
name = Regular;
paths = (
{
closed = 1;
nodes = (
"1026 136 LINE",
"1026 1244 LINE SMOOTH",
"1026 1294 OFFCURVE",
"1008 1312 OFFCURVE",
"963 1312 CURVE SMOOTH",
"674 1312 LINE SMOOTH",
"629 1312 OFFCURVE",
"611 1294 OFFCURVE",
"611 1244 CURVE SMOOTH",
"611 1194 OFFCURVE",
"629 1176 OFFCURVE",
"674 1176 CURVE SMOOTH",
"876 1176 LINE",
"876 740 LINE",
"797 839 OFFCURVE",
"692 896 OFFCURVE",
"559 896 CURVE SMOOTH",
"312 896 OFFCURVE",
"127 724 OFFCURVE",
"127 437 CURVE SMOOTH",
"127 150 OFFCURVE",
"312 -22 OFFCURVE",
"559 -22 CURVE SMOOTH",
"692 -22 OFFCURVE",
"804 41 OFFCURVE",
"886 148 CURVE",
"886 68 LINE SMOOTH",
"886 18 OFFCURVE",
"904 0 OFFCURVE",
"949 0 CURVE SMOOTH",
"1108 0 LINE SMOOTH",
"1153 0 OFFCURVE",
"1171 18 OFFCURVE",
"1171 68 CURVE SMOOTH",
"1171 118 OFFCURVE",
"1153 136 OFFCURVE",
"1108 136 CURVE SMOOTH"
);
},
{
closed = 1;
nodes = (
"876 240 OFFCURVE",
"746 126 OFFCURVE",
"569 126 CURVE SMOOTH",
"388 126 OFFCURVE",
"285 256 OFFCURVE",
"285 437 CURVE SMOOTH",
"285 618 OFFCURVE",
"388 748 OFFCURVE",
"569 748 CURVE SMOOTH",
"746 748 OFFCURVE",
"876 634 OFFCURVE",
"876 437 CURVE SMOOTH"
);
}
);
width = 1228;
},
{
layerId = "8538028E-5D6C-4318-9676-30148CDA39CA";
name = Bold;
paths = (
{
closed = 1;
nodes = (
"1041 205 LINE",
"1041 1249 LINE SMOOTH",
"1041 1294 OFFCURVE",
"1023 1312 OFFCURVE",
"978 1312 CURVE SMOOTH",
"594 1312 LINE SMOOTH",
"549 1312 OFFCURVE",
"531 1294 OFFCURVE",
"531 1209 CURVE SMOOTH",
"531 1124 OFFCURVE",
"549 1107 OFFCURVE",
"594 1107 CURVE SMOOTH",
"791 1107 LINE",
"791 801 LINE",
"724 874 OFFCURVE",
"633 916 OFFCURVE",
"528 916 CURVE SMOOTH",
"264 916 OFFCURVE",
"97 717 OFFCURVE",
"97 447 CURVE SMOOTH",
"97 177 OFFCURVE",
"264 -22 OFFCURVE",
"528 -22 CURVE SMOOTH",
"656 -22 OFFCURVE",
"762 34 OFFCURVE",
"831 132 CURVE",
"831 63 LINE SMOOTH",
"831 18 OFFCURVE",
"849 0 OFFCURVE",
"894 0 CURVE SMOOTH",
"1128 0 LINE SMOOTH",
"1173 0 OFFCURVE",
"1191 18 OFFCURVE",
"1191 103 CURVE SMOOTH",
"1191 188 OFFCURVE",
"1173 205 OFFCURVE",
"1128 205 CURVE SMOOTH"
);
},
{
closed = 1;
nodes = (
"798 285 OFFCURVE",
"693 205 OFFCURVE",
"568 205 CURVE SMOOTH",
"446 205 OFFCURVE",
"365 291 OFFCURVE",
"365 447 CURVE SMOOTH",
"365 603 OFFCURVE",
"446 689 OFFCURVE",
"568 689 CURVE SMOOTH",
"693 689 OFFCURVE",
"798 609 OFFCURVE",
"798 447 CURVE SMOOTH"
);
}
);
width = 1228;
}
);
unicode = 0064;
},
{
glyphname = eth;
lastChange = "2014-11-13 04:54:09 -0700";
layers = (
{
layerId = UUID0;
name = Regular;
paths = (
{
closed = 1;
nodes = (
"342 886 OFFCURVE",
"140 704 OFFCURVE",
"140 432 CURVE SMOOTH",
"140 160 OFFCURVE",
"342 -22 OFFCURVE",
"614 -22 CURVE SMOOTH",
"886 -22 OFFCURVE",
"1088 160 OFFCURVE",
"1088 432 CURVE",
"902 774 LINE",
"822 836 OFFCURVE",
"726 886 OFFCURVE",
"614 886 CURVE SMOOTH"
);
},
{
closed = 1;
nodes = (
"804 738 OFFCURVE",
"930 617 OFFCURVE",
"930 432 CURVE SMOOTH",
"930 247 OFFCURVE",
"804 126 OFFCURVE",
"614 126 CURVE SMOOTH",
"424 126 OFFCURVE",
"298 247 OFFCURVE",
"298 432 CURVE SMOOTH",
"298 617 OFFCURVE",
"424 738 OFFCURVE",
"614 738 CURVE SMOOTH"
);
},
{
closed = 1;
nodes = (
"413 1343 OFFCURVE",
"383 1331 OFFCURVE",
"360 1287 CURVE SMOOTH",
"337 1243 OFFCURVE",
"342 1215 OFFCURVE",
"383 1195 CURVE SMOOTH",
"703 1038 OFFCURVE",
"953 813 OFFCURVE",
"953 443 CURVE",
"1088 432 LINE",
"1088 884 OFFCURVE",
"806 1149 OFFCURVE",
"453 1323 CURVE SMOOTH"
);
},
{
closed = 1;
nodes = (
"356 1074 LINE SMOOTH",
"314 1058 OFFCURVE",
"303 1034 OFFCURVE",
"321 988 CURVE SMOOTH",
"339 941 OFFCURVE",
"362 930 OFFCURVE",
"404 946 CURVE SMOOTH",
"959 1154 LINE SMOOTH",
"1001 1170 OFFCURVE",
"1012 1194 OFFCURVE",
"994 1240 CURVE SMOOTH",
"976 1287 OFFCURVE",
"953 1298 OFFCURVE",
"911 1282 CURVE SMOOTH"
);
}
);
width = 1228;
},
{
layerId = "8538028E-5D6C-4318-9676-30148CDA39CA";
name = Bold;
paths = (
{
closed = 1;
nodes = (
"305 866 OFFCURVE",
"122 682 OFFCURVE",
"122 422 CURVE SMOOTH",
"122 162 OFFCURVE",
"315 -22 OFFCURVE",
"614 -22 CURVE SMOOTH",
"913 -22 OFFCURVE",
"1106 162 OFFCURVE",
"1106 462 CURVE",
"839 767 LINE",
"768 832 OFFCURVE",
"686 866 OFFCURVE",
"584 866 CURVE SMOOTH"
);
},
{
closed = 1;
nodes = (
"749 639 OFFCURVE",
"838 558 OFFCURVE",
"838 422 CURVE SMOOTH",
"838 286 OFFCURVE",
"749 205 OFFCURVE",
"614 205 CURVE SMOOTH",
"479 205 OFFCURVE",
"390 286 OFFCURVE",
"390 422 CURVE SMOOTH",
"390 558 OFFCURVE",
"479 639 OFFCURVE",
"614 639 CURVE SMOOTH"
);
},
{
closed = 1;
nodes = (
"468 1361 OFFCURVE",
"434 1352 OFFCURVE",
"385 1277 CURVE SMOOTH",
"334 1198 OFFCURVE",
"336 1158 OFFCURVE",
"378 1137 CURVE SMOOTH",
"609 1023 OFFCURVE",
"862 834 OFFCURVE",
"886 480 CURVE",
"1106 462 LINE",
"1106 834 OFFCURVE",
"904 1142 OFFCURVE",
"510 1340 CURVE SMOOTH"
);
},
{
closed = 1;
nodes = (
"380 1067 LINE SMOOTH",
"340 1046 OFFCURVE",
"333 1021 OFFCURVE",
"368 955 CURVE SMOOTH",
"403 889 OFFCURVE",
"427 882 OFFCURVE",
"467 903 CURVE SMOOTH",
"928 1148 LINE SMOOTH",
"967 1169 OFFCURVE",
"975 1193 OFFCURVE",
"940 1259 CURVE SMOOTH",
"905 1325 OFFCURVE",
"881 1333 OFFCURVE",
"841 1312 CURVE SMOOTH"
);
}
);
width = 1228;
}
);
unicode = 00F0;
},
{
glyphname = dcaron;
lastChange = "2014-11-13 04:54:09 -0700";
layers = (
{
layerId = UUID0;
name = Regular;
paths = (
{
closed = 1;
nodes = (
"594 1312 LINE SMOOTH",
"549 1312 OFFCURVE",
"531 1294 OFFCURVE",
"531 1244 CURVE SMOOTH",
"531 1194 OFFCURVE",
"549 1176 OFFCURVE",
"594 1176 CURVE SMOOTH",
"776 1176 LINE",
"776 755 LINE",
"716 842 OFFCURVE",
"630 896 OFFCURVE",
"509 896 CURVE SMOOTH",
"292 896 OFFCURVE",
"127 724 OFFCURVE",
"127 437 CURVE SMOOTH",
"127 150 OFFCURVE",
"292 -22 OFFCURVE",
"509 -22 CURVE SMOOTH",
"639 -22 OFFCURVE",
"726 44 OFFCURVE",
"786 138 CURVE",
"786 68 LINE SMOOTH",
"786 18 OFFCURVE",
"804 0 OFFCURVE",
"849 0 CURVE SMOOTH",
"1008 0 LINE SMOOTH",
"1053 0 OFFCURVE",
"1071 18 OFFCURVE",
"1071 68 CURVE SMOOTH",
"1071 118 OFFCURVE",
"1053 136 OFFCURVE",
"1008 136 CURVE SMOOTH",
"926 136 LINE",
"926 1244 LINE SMOOTH",
"926 1294 OFFCURVE",
"908 1312 OFFCURVE",
"863 1312 CURVE SMOOTH"
);
},
{
closed = 1;
nodes = (
"676 748 OFFCURVE",
"776 634 OFFCURVE",
"776 437 CURVE SMOOTH",
"776 240 OFFCURVE",
"676 126 OFFCURVE",
"519 126 CURVE SMOOTH",
"368 126 OFFCURVE",
"285 256 OFFCURVE",
"285 437 CURVE SMOOTH",
"285 618 OFFCURVE",
"368 748 OFFCURVE",
"519 748 CURVE SMOOTH"
);
},
{
closed = 1;
nodes = (
"1183 1312 LINE SMOOTH",
"1161 1312 OFFCURVE",
"1146 1301 OFFCURVE",
"1141 1280 CURVE SMOOTH",
"1059 918 LINE SMOOTH",
"1051 884 OFFCURVE",
"1073 862 OFFCURVE",
"1110 862 CURVE SMOOTH",
"1137 862 OFFCURVE",
"1158 874 OFFCURVE",
"1169 897 CURVE SMOOTH",
"1347 1261 LINE SMOOTH",
"1361 1290 OFFCURVE",
"1352 1312 OFFCURVE",
"1325 1312 CURVE SMOOTH"
);
}
);
width = 1228;
},
{
layerId = "8538028E-5D6C-4318-9676-30148CDA39CA";
name = Bold;
paths = (
{
closed = 1;
nodes = (
"504 1312 LINE SMOOTH",
"459 1312 OFFCURVE",
"441 1294 OFFCURVE",
"441 1209 CURVE SMOOTH",
"441 1124 OFFCURVE",
"459 1107 OFFCURVE",
"504 1107 CURVE SMOOTH",
"671 1107 LINE",
"671 801 LINE",
"614 874 OFFCURVE",
"553 916 OFFCURVE",
"458 916 CURVE SMOOTH",
"224 916 OFFCURVE",
"77 717 OFFCURVE",
"77 447 CURVE SMOOTH",
"77 177 OFFCURVE",
"224 -22 OFFCURVE",
"458 -22 CURVE SMOOTH",
"576 -22 OFFCURVE",
"652 34 OFFCURVE",
"711 132 CURVE",
"711 63 LINE SMOOTH",
"711 18 OFFCURVE",
"729 0 OFFCURVE",
"774 0 CURVE SMOOTH",
"1008 0 LINE SMOOTH",
"1053 0 OFFCURVE",
"1071 18 OFFCURVE",
"1071 103 CURVE SMOOTH",
"1071 188 OFFCURVE",
"1053 205 OFFCURVE",
"1008 205 CURVE SMOOTH",
"921 205 LINE",
"921 1249 LINE SMOOTH",
"921 1294 OFFCURVE",
"903 1312 OFFCURVE",
"858 1312 CURVE SMOOTH"
);
},
{
closed = 1;
nodes = (
"603 689 OFFCURVE",
"678 609 OFFCURVE",
"678 447 CURVE SMOOTH",
"678 285 OFFCURVE",
"603 205 OFFCURVE",
"498 205 CURVE SMOOTH",
"406 205 OFFCURVE",
"345 291 OFFCURVE",
"345 447 CURVE SMOOTH",
"345 603 OFFCURVE",
"406 689 OFFCURVE",
"498 689 CURVE SMOOTH"
);
},
{
closed = 1;
nodes = (
"1155 1312 LINE SMOOTH",
"1132 1312 OFFCURVE",
"1116 1300 OFFCURVE",
"1112 1279 CURVE SMOOTH",
"1042 888 LINE SMOOTH",
"1033 837 OFFCURVE",
"1054 817 OFFCURVE",
"1109 817 CURVE SMOOTH",
"1155 817 OFFCURVE",
"1178 831 OFFCURVE",
"1196 867 CURVE SMOOTH",
"1392 1260 LINE SMOOTH",
"1406 1289 OFFCURVE",
"1396 1312 OFFCURVE",
"1369 1312 CURVE SMOOTH"
);
}
);
width = 1228;
}
);
unicode = 010F;
},
{
color = (0,243,255,1);
glyphname = dcroat;
lastChange = "2014-11-13 04:54:09 -0700";
layers = (
{
layerId = UUID0;
name = Regular;
paths = (
{
closed = 1;
nodes = (
"573 1106 LINE SMOOTH",
"528 1106 OFFCURVE",
"510 1088 OFFCURVE",
"510 1038 CURVE SMOOTH",
"510 988 OFFCURVE",
"528 970 OFFCURVE",
"573 970 CURVE SMOOTH",
"876 970 LINE",
"876 740 LINE",
"797 839 OFFCURVE",
"692 896 OFFCURVE",
"559 896 CURVE SMOOTH",
"312 896 OFFCURVE",
"127 724 OFFCURVE",
"127 437 CURVE SMOOTH",
"127 150 OFFCURVE",
"312 -22 OFFCURVE",
"559 -22 CURVE SMOOTH",
"692 -22 OFFCURVE",
"804 41 OFFCURVE",
"886 148 CURVE",
"886 68 LINE SMOOTH",
"886 18 OFFCURVE",
"904 0 OFFCURVE",
"949 0 CURVE SMOOTH",
"1108 0 LINE SMOOTH",
"1153 0 OFFCURVE",
"1171 18 OFFCURVE",
"1171 68 CURVE SMOOTH",
"1171 118 OFFCURVE",
"1153 136 OFFCURVE",
"1108 136 CURVE SMOOTH",
"1026 136 LINE",
"1026 970 LINE",
"1135 970 LINE SMOOTH",
"1180 970 OFFCURVE",
"1198 988 OFFCURVE",
"1198 1038 CURVE SMOOTH",
"1198 1088 OFFCURVE",
"1180 1106 OFFCURVE",
"1135 1106 CURVE SMOOTH",
"1026 1106 LINE",
"1026 1244 LINE SMOOTH",
"1026 1294 OFFCURVE",
"1008 1312 OFFCURVE",
"963 1312 CURVE SMOOTH",
"674 1312 LINE SMOOTH",
"629 1312 OFFCURVE",
"611 1294 OFFCURVE",
"611 1244 CURVE SMOOTH",
"611 1194 OFFCURVE",
"629 1176 OFFCURVE",
"674 1176 CURVE SMOOTH",
"876 1176 LINE",
"876 1106 LINE"
);
},
{
closed = 1;
nodes = (
"876 240 OFFCURVE",
"746 126 OFFCURVE",
"569 126 CURVE SMOOTH",
"388 126 OFFCURVE",
"285 256 OFFCURVE",
"285 437 CURVE SMOOTH",
"285 618 OFFCURVE",
"388 748 OFFCURVE",
"569 748 CURVE SMOOTH",
"746 748 OFFCURVE",
"876 634 OFFCURVE",
"876 437 CURVE SMOOTH"
);
}
);
width = 1228;
},
{
layerId = "8538028E-5D6C-4318-9676-30148CDA39CA";
name = Bold;
paths = (
{
closed = 1;
nodes = (
"1041 205 LINE",
"1041 982 LINE",
"1145 982 LINE SMOOTH",
"1190 982 OFFCURVE",
"1208 999 OFFCURVE",
"1208 1084 CURVE SMOOTH",
"1208 1169 OFFCURVE",
"1190 1187 OFFCURVE",
"1145 1187 CURVE SMOOTH",
"1041 1187 LINE",
"1041 1249 LINE SMOOTH",
"1041 1294 OFFCURVE",
"1023 1312 OFFCURVE",
"978 1312 CURVE SMOOTH",
"854 1312 LINE SMOOTH",
"809 1312 OFFCURVE",
"791 1294 OFFCURVE",
"791 1249 CURVE SMOOTH",
"791 1187 LINE",
"583 1187 LINE SMOOTH",
"538 1187 OFFCURVE",
"520 1169 OFFCURVE",
"520 1084 CURVE SMOOTH",
"520 999 OFFCURVE",
"538 982 OFFCURVE",
"583 982 CURVE SMOOTH",
"791 982 LINE",
"791 801 LINE",
"724 874 OFFCURVE",
"633 916 OFFCURVE",
"528 916 CURVE SMOOTH",
"264 916 OFFCURVE",
"97 717 OFFCURVE",
"97 447 CURVE SMOOTH",
"97 177 OFFCURVE",
"264 -22 OFFCURVE",
"528 -22 CURVE SMOOTH",
"656 -22 OFFCURVE",
"762 34 OFFCURVE",
"831 132 CURVE",
"831 63 LINE SMOOTH",
"831 18 OFFCURVE",
"849 0 OFFCURVE",
"894 0 CURVE SMOOTH",
"1128 0 LINE SMOOTH",
"1173 0 OFFCURVE",
"1191 18 OFFCURVE",
"1191 103 CURVE SMOOTH",
"1191 188 OFFCURVE",
"1173 205 OFFCURVE",
"1128 205 CURVE SMOOTH"
);
},
{
closed = 1;
nodes = (
"798 285 OFFCURVE",
"693 205 OFFCURVE",
"568 205 CURVE SMOOTH",
"446 205 OFFCURVE",
"365 291 OFFCURVE",
"365 447 CURVE SMOOTH",
"365 603 OFFCURVE",
"446 689 OFFCURVE",
"568 689 CURVE SMOOTH",
"693 689 OFFCURVE",
"798 609 OFFCURVE",
"798 447 CURVE SMOOTH"
);
}
);
width = 1228;
}
);
unicode = 0111;
},
{
glyphname = e;
lastChange = "2014-11-13 04:54:09 -0700";
layers = (
{
layerId = UUID0;
name = Regular;
paths = (
{
closed = 1;
nodes = (
"344 946 OFFCURVE",
"146 753 OFFCURVE",
"146 462 CURVE SMOOTH",
"146 161 OFFCURVE",
"311 -22 OFFCURVE",
"603 -22 CURVE SMOOTH",
"758 -22 OFFCURVE",
"912 15 OFFCURVE",
"1016 65 CURVE SMOOTH",
"1060 87 OFFCURVE",
"1069 122 OFFCURVE",
"1051 165 CURVE SMOOTH",
"1034 207 OFFCURVE",
"1005 233 OFFCURVE",
"963 209 CURVE SMOOTH",
"872 156 OFFCURVE",
"737 123 OFFCURVE",
"603 123 CURVE SMOOTH",
"418 123 OFFCURVE",
"314 225 OFFCURVE",
"304 425 CURVE",
"1028 425 LINE SMOOTH",
"1073 425 OFFCURVE",
"1091 442 OFFCURVE",
"1091 487 CURVE",
"1076 753 OFFCURVE",
"920 946 OFFCURVE",
"623 946 CURVE SMOOTH"
);
},
{
closed = 1;
nodes = (
"799 801 OFFCURVE",
"897 715 OFFCURVE",
"925 565 CURVE",
"314 565 LINE",
"347 712 OFFCURVE",
"457 801 OFFCURVE",
"623 801 CURVE SMOOTH"
);
}
);
width = 1228;
},
{
layerId = "8538028E-5D6C-4318-9676-30148CDA39CA";
name = Bold;
paths = (
{
closed = 1;
nodes = (
"305 946 OFFCURVE",
"117 742 OFFCURVE",
"117 462 CURVE SMOOTH",
"117 182 OFFCURVE",
"285 -22 OFFCURVE",
"584 -22 CURVE SMOOTH",
"727 -22 OFFCURVE",
"879 5 OFFCURVE",
"1012 49 CURVE SMOOTH",
"1060 65 OFFCURVE",
"1073 94 OFFCURVE",
"1051 176 CURVE SMOOTH",
"1029 258 OFFCURVE",
"1003 273 OFFCURVE",
"960 260 CURVE SMOOTH",
"828 220 OFFCURVE",
"712 205 OFFCURVE",
"604 205 CURVE SMOOTH",
"487 205 OFFCURVE",
"410 262 OFFCURVE",
"384 370 CURVE",
"1026 370 LINE SMOOTH",
"1071 370 OFFCURVE",
"1089 387 OFFCURVE",
"1089 432 CURVE SMOOTH",
"1089 729 OFFCURVE",
"926 946 OFFCURVE",
"614 946 CURVE SMOOTH"
);
},
{
closed = 1;
nodes = (
"729 719 OFFCURVE",
"806 661 OFFCURVE",
"828 565 CURVE",
"388 565 LINE",
"417 669 OFFCURVE",
"494 719 OFFCURVE",
"614 719 CURVE SMOOTH"
);
}
);
width = 1228;
}
);
unicode = 0065;
},
{
color = (0,243,255,1);
glyphname = eogonek;
lastChange = "2014-11-13 04:54:09 -0700";
layers = (
{
layerId = UUID0;
name = Regular;
paths = (
{
closed = 1;
nodes = (
"344 946 OFFCURVE",
"146 753 OFFCURVE",
"146 462 CURVE SMOOTH",
"146 161 OFFCURVE",
"311 -22 OFFCURVE",
"603 -22 CURVE SMOOTH",
"658 -22 OFFCURVE",
"713 -17 OFFCURVE",
"765 -9 CURVE",
"671 -94 OFFCURVE",
"611 -182 OFFCURVE",
"611 -281 CURVE SMOOTH",
"611 -397 OFFCURVE",
"687 -472 OFFCURVE",
"811 -472 CURVE SMOOTH",
"873 -472 OFFCURVE",
"929 -462 OFFCURVE",
"975 -446 CURVE SMOOTH",
"1004 -436 OFFCURVE",
"1013 -415 OFFCURVE",
"1007 -374 CURVE SMOOTH",
"1002 -337 OFFCURVE",
"983 -322 OFFCURVE",
"957 -326 CURVE SMOOTH",
"922 -332 OFFCURVE",
"883 -336 OFFCURVE",
"844 -336 CURVE SMOOTH",
"799 -336 OFFCURVE",
"767 -310 OFFCURVE",
"767 -261 CURVE SMOOTH",
"767 -193 OFFCURVE",
"809 -116 OFFCURVE",
"928 -5 CURVE SMOOTH",
"981 44 OFFCURVE",
"1004 59 OFFCURVE",
"1016 65 CURVE SMOOTH",
"1060 87 OFFCURVE",
"1069 122 OFFCURVE",
"1051 165 CURVE SMOOTH",
"1034 207 OFFCURVE",
"1005 233 OFFCURVE",
"963 209 CURVE SMOOTH",
"872 156 OFFCURVE",
"737 123 OFFCURVE",
"603 123 CURVE SMOOTH",
"418 123 OFFCURVE",
"314 225 OFFCURVE",
"304 425 CURVE",
"1028 425 LINE SMOOTH",
"1073 425 OFFCURVE",
"1091 442 OFFCURVE",
"1091 487 CURVE",
"1076 753 OFFCURVE",
"920 946 OFFCURVE",
"623 946 CURVE SMOOTH"
);
},
{
closed = 1;
nodes = (
"799 801 OFFCURVE",
"897 715 OFFCURVE",
"925 565 CURVE",
"314 565 LINE",
"347 712 OFFCURVE",
"457 801 OFFCURVE",
"623 801 CURVE SMOOTH"
);
}
);
width = 1228;
},
{
layerId = "8538028E-5D6C-4318-9676-30148CDA39CA";
name = Bold;
paths = (
{
closed = 1;
nodes = (
"305 946 OFFCURVE",
"117 742 OFFCURVE",
"117 462 CURVE SMOOTH",
"117 182 OFFCURVE",
"285 -22 OFFCURVE",
"584 -22 CURVE SMOOTH",
"626 -22 OFFCURVE",
"669 -19 OFFCURVE",
"713 -15 CURVE",
"618 -83 OFFCURVE",
"549 -162 OFFCURVE",
"549 -269 CURVE SMOOTH",
"549 -402 OFFCURVE",
"639 -472 OFFCURVE",
"795 -472 CURVE SMOOTH",
"868 -472 OFFCURVE",
"944 -459 OFFCURVE",
"1011 -438 CURVE SMOOTH",
"1039 -429 OFFCURVE",
"1052 -399 OFFCURVE",
"1048 -353 CURVE SMOOTH",
"1044 -307 OFFCURVE",
"1026 -281 OFFCURVE",
"1000 -285 CURVE SMOOTH",
"957 -292 OFFCURVE",
"919 -298 OFFCURVE",
"880 -298 CURVE SMOOTH",
"823 -298 OFFCURVE",
"792 -278 OFFCURVE",
"792 -231 CURVE SMOOTH",
"792 -167 OFFCURVE",
"846 -94 OFFCURVE",
"934 -15 CURVE SMOOTH",
"980 27 OFFCURVE",
"1001 44 OFFCURVE",
"1021 52 CURVE SMOOTH",
"1062 69 OFFCURVE",
"1072 99 OFFCURVE",
"1051 176 CURVE SMOOTH",
"1029 258 OFFCURVE",
"1003 273 OFFCURVE",
"960 260 CURVE SMOOTH",
"828 220 OFFCURVE",
"712 205 OFFCURVE",
"604 205 CURVE SMOOTH",
"487 205 OFFCURVE",
"410 262 OFFCURVE",
"384 370 CURVE",
"1026 370 LINE SMOOTH",
"1071 370 OFFCURVE",
"1089 387 OFFCURVE",
"1089 432 CURVE SMOOTH",
"1089 729 OFFCURVE",
"926 946 OFFCURVE",
"614 946 CURVE SMOOTH"
);
},
{
closed = 1;
nodes = (
"729 719 OFFCURVE",
"806 661 OFFCURVE",
"828 565 CURVE",
"388 565 LINE",
"417 669 OFFCURVE",
"494 719 OFFCURVE",
"614 719 CURVE SMOOTH"
);
}
);
width = 1228;
}
);
unicode = 0119;
},
{
glyphname = f;
lastChange = "2014-11-13 04:54:09 -0700";
layers = (
{
layerId = UUID0;
name = Regular;
paths = (
{
closed = 1;
nodes = (
"576 1317 OFFCURVE",
"448 1186 OFFCURVE",
"448 967 CURVE SMOOTH",
"448 844 LINE",
"250 844 LINE SMOOTH",
"205 844 OFFCURVE",
"187 826 OFFCURVE",
"187 776 CURVE SMOOTH",
"187 726 OFFCURVE",
"205 708 OFFCURVE",
"250 708 CURVE SMOOTH",
"448 708 LINE",
"448 136 LINE",
"250 136 LINE SMOOTH",
"205 136 OFFCURVE",
"187 118 OFFCURVE",
"187 68 CURVE SMOOTH",
"187 18 OFFCURVE",
"205 0 OFFCURVE",
"250 0 CURVE SMOOTH",
"944 0 LINE SMOOTH",
"989 0 OFFCURVE",
"1007 18 OFFCURVE",
"1007 68 CURVE SMOOTH",
"1007 118 OFFCURVE",
"989 136 OFFCURVE",
"944 136 CURVE SMOOTH",
"598 136 LINE",
"598 708 LINE",
"944 708 LINE SMOOTH",
"989 708 OFFCURVE",
"1007 726 OFFCURVE",
"1007 776 CURVE SMOOTH",
"1007 826 OFFCURVE",
"989 844 OFFCURVE",
"944 844 CURVE SMOOTH",
"598 844 LINE",
"598 954 LINE SMOOTH",
"598 1091 OFFCURVE",
"659 1171 OFFCURVE",
"800 1171 CURVE SMOOTH",
"879 1171 OFFCURVE",
"959 1152 OFFCURVE",
"1037 1122 CURVE SMOOTH",
"1071 1109 OFFCURVE",
"1098 1120 OFFCURVE",
"1111 1174 CURVE SMOOTH",
"1123 1224 OFFCURVE",
"1102 1252 OFFCURVE",
"1066 1266 CURVE SMOOTH",
"986 1297 OFFCURVE",
"894 1317 OFFCURVE",
"800 1317 CURVE SMOOTH"
);
}
);
width = 1228;
},
{
layerId = "8538028E-5D6C-4318-9676-30148CDA39CA";
name = Bold;
paths = (
{
closed = 1;
nodes = (
"538 1317 OFFCURVE",
"413 1186 OFFCURVE",
"413 937 CURVE SMOOTH",
"413 864 LINE",
"230 864 LINE SMOOTH",
"185 864 OFFCURVE",
"167 841 OFFCURVE",
"167 756 CURVE SMOOTH",
"167 671 OFFCURVE",
"185 649 OFFCURVE",
"230 649 CURVE SMOOTH",
"413 649 LINE",
"413 205 LINE",
"230 205 LINE SMOOTH",
"185 205 OFFCURVE",
"167 187 OFFCURVE",
"167 102 CURVE SMOOTH",
"167 17 OFFCURVE",
"185 0 OFFCURVE",
"230 0 CURVE SMOOTH",
"944 0 LINE SMOOTH",
"989 0 OFFCURVE",
"1007 17 OFFCURVE",
"1007 102 CURVE SMOOTH",
"1007 187 OFFCURVE",
"989 205 OFFCURVE",
"944 205 CURVE SMOOTH",
"663 205 LINE",
"663 649 LINE",
"974 649 LINE SMOOTH",
"1019 649 OFFCURVE",
"1037 671 OFFCURVE",
"1037 756 CURVE SMOOTH",
"1037 841 OFFCURVE",
"1019 864 OFFCURVE",
"974 864 CURVE SMOOTH",
"663 864 LINE",
"663 924 LINE SMOOTH",
"663 1039 OFFCURVE",
"710 1090 OFFCURVE",
"792 1090 CURVE SMOOTH",
"860 1090 OFFCURVE",
"929 1077 OFFCURVE",
"1014 1051 CURVE SMOOTH",
"1057 1038 OFFCURVE",
"1092 1047 OFFCURVE",
"1114 1128 CURVE SMOOTH",
"1136 1211 OFFCURVE",
"1120 1243 OFFCURVE",
"1074 1260 CURVE SMOOTH",
"965 1301 OFFCURVE",
"864 1317 OFFCURVE",
"770 1317 CURVE SMOOTH"
);
}
);
width = 1228;
}
);
unicode = 0066;
},
{
glyphname = g;
lastChange = "2014-11-13 04:54:09 -0700";
layers = (
{
layerId = UUID0;
name = Regular;
paths = (
{
closed = 1;
nodes = (
"312 946 OFFCURVE",
"127 774 OFFCURVE",
"127 487 CURVE SMOOTH",
"127 200 OFFCURVE",
"312 28 OFFCURVE",
"559 28 CURVE SMOOTH",
"692 28 OFFCURVE",
"797 85 OFFCURVE",
"876 184 CURVE",
"876 -22 LINE SMOOTH",
"876 -169 OFFCURVE",
"788 -267 OFFCURVE",
"603 -267 CURVE SMOOTH",
"497 -267 OFFCURVE",
"379 -246 OFFCURVE",
"279 -211 CURVE SMOOTH",
"245 -199 OFFCURVE",
"217 -212 OFFCURVE",
"200 -262 CURVE SMOOTH",
"183 -313 OFFCURVE",
"195 -342 OFFCURVE",
"231 -355 CURVE SMOOTH",
"344 -396 OFFCURVE",
"479 -415 OFFCURVE",
"603 -415 CURVE SMOOTH",
"871 -415 OFFCURVE",
"1026 -274 OFFCURVE",
"1026 -35 CURVE SMOOTH",
"1026 788 LINE",
"1108 788 LINE SMOOTH",
"1153 788 OFFCURVE",
"1171 806 OFFCURVE",
"1171 856 CURVE SMOOTH",
"1171 906 OFFCURVE",
"1153 924 OFFCURVE",
"1108 924 CURVE SMOOTH",
"949 924 LINE SMOOTH",
"904 924 OFFCURVE",
"886 906 OFFCURVE",
"886 856 CURVE SMOOTH",
"886 776 LINE",
"804 883 OFFCURVE",
"692 946 OFFCURVE",
"559 946 CURVE SMOOTH"
);
},
{
closed = 1;
nodes = (
"746 798 OFFCURVE",
"876 684 OFFCURVE",
"876 487 CURVE SMOOTH",
"876 290 OFFCURVE",
"746 176 OFFCURVE",
"569 176 CURVE SMOOTH",
"388 176 OFFCURVE",
"285 306 OFFCURVE",
"285 487 CURVE SMOOTH",
"285 668 OFFCURVE",
"388 798 OFFCURVE",
"569 798 CURVE SMOOTH"
);
}
);
width = 1228;
},
{
layerId = "8538028E-5D6C-4318-9676-30148CDA39CA";
name = Bold;
paths = (
{
closed = 1;
nodes = (
"264 946 OFFCURVE",
"97 747 OFFCURVE",
"97 477 CURVE SMOOTH",
"97 207 OFFCURVE",
"264 8 OFFCURVE",
"528 8 CURVE SMOOTH",
"633 8 OFFCURVE",
"724 50 OFFCURVE",
"791 123 CURVE",
"791 16 LINE SMOOTH",
"791 -118 OFFCURVE",
"729 -188 OFFCURVE",
"567 -188 CURVE SMOOTH",
"480 -188 OFFCURVE",
"371 -165 OFFCURVE",
"265 -132 CURVE SMOOTH",
"222 -119 OFFCURVE",
"189 -136 OFFCURVE",
"164 -217 CURVE SMOOTH",
"139 -299 OFFCURVE",
"151 -341 OFFCURVE",
"199 -356 CURVE SMOOTH",
"324 -395 OFFCURVE",
"466 -415 OFFCURVE",
"577 -415 CURVE SMOOTH",
"891 -415 OFFCURVE",
"1041 -260 OFFCURVE",
"1041 -4 CURVE SMOOTH",
"1041 719 LINE",
"1128 719 LINE SMOOTH",
"1173 719 OFFCURVE",
"1191 736 OFFCURVE",
"1191 821 CURVE SMOOTH",
"1191 906 OFFCURVE",
"1173 924 OFFCURVE",
"1128 924 CURVE SMOOTH",
"894 924 LINE SMOOTH",
"849 924 OFFCURVE",
"831 906 OFFCURVE",
"831 861 CURVE SMOOTH",
"831 791 LINE",
"762 890 OFFCURVE",
"656 946 OFFCURVE",
"528 946 CURVE SMOOTH"
);
},
{
closed = 1;
nodes = (
"693 719 OFFCURVE",
"798 639 OFFCURVE",
"798 477 CURVE SMOOTH",
"798 315 OFFCURVE",
"693 235 OFFCURVE",
"568 235 CURVE SMOOTH",
"446 235 OFFCURVE",
"365 321 OFFCURVE",
"365 477 CURVE SMOOTH",
"365 633 OFFCURVE",
"446 719 OFFCURVE",
"568 719 CURVE SMOOTH"
);
}
);
width = 1228;
}
);
unicode = 0067;
},
{
glyphname = h;
lastChange = "2014-11-13 04:54:09 -0700";
layers = (
{
layerId = UUID0;
name = Regular;
paths = (
{
closed = 1;
nodes = (
"140 1312 LINE SMOOTH",
"95 1312 OFFCURVE",
"77 1294 OFFCURVE",
"77 1244 CURVE SMOOTH",
"77 1194 OFFCURVE",
"95 1176 OFFCURVE",
"140 1176 CURVE SMOOTH",
"232 1176 LINE",
"232 136 LINE",
"150 136 LINE SMOOTH",
"105 136 OFFCURVE",
"87 118 OFFCURVE",
"87 68 CURVE SMOOTH",
"87 18 OFFCURVE",
"105 0 OFFCURVE",
"150 0 CURVE SMOOTH",
"474 0 LINE SMOOTH",
"519 0 OFFCURVE",
"537 18 OFFCURVE",
"537 68 CURVE SMOOTH",
"537 118 OFFCURVE",
"519 136 OFFCURVE",
"474 136 CURVE SMOOTH",
"382 136 LINE",
"382 422 LINE SMOOTH",
"382 640 OFFCURVE",
"531 798 OFFCURVE",
"702 798 CURVE SMOOTH",
"811 798 OFFCURVE",
"864 720 OFFCURVE",
"864 605 CURVE SMOOTH",
"864 136 LINE",
"772 136 LINE SMOOTH",
"727 136 OFFCURVE",
"709 118 OFFCURVE",
"709 68 CURVE SMOOTH",
"709 18 OFFCURVE",
"727 0 OFFCURVE",
"772 0 CURVE SMOOTH",
"1096 0 LINE SMOOTH",
"1141 0 OFFCURVE",
"1159 18 OFFCURVE",
"1159 68 CURVE SMOOTH",
"1159 118 OFFCURVE",
"1141 136 OFFCURVE",
"1096 136 CURVE SMOOTH",
"1014 136 LINE",
"1014 620 LINE SMOOTH",
"1014 820 OFFCURVE",
"901 946 OFFCURVE",
"717 946 CURVE SMOOTH",
"585 946 OFFCURVE",
"468 875 OFFCURVE",
"382 746 CURVE",
"382 1244 LINE SMOOTH",
"382 1294 OFFCURVE",
"364 1312 OFFCURVE",
"319 1312 CURVE SMOOTH"
);
}
);
width = 1228;
},
{
layerId = "8538028E-5D6C-4318-9676-30148CDA39CA";
name = Bold;
paths = (
{
closed = 1;
nodes = (
"110 1312 LINE SMOOTH",
"65 1312 OFFCURVE",
"47 1294 OFFCURVE",
"47 1209 CURVE SMOOTH",
"47 1124 OFFCURVE",
"65 1107 OFFCURVE",
"110 1107 CURVE SMOOTH",
"207 1107 LINE",
"207 205 LINE",
"130 205 LINE SMOOTH",
"85 205 OFFCURVE",
"67 187 OFFCURVE",
"67 102 CURVE SMOOTH",
"67 17 OFFCURVE",
"85 0 OFFCURVE",
"130 0 CURVE SMOOTH",
"504 0 LINE SMOOTH",
"549 0 OFFCURVE",
"567 17 OFFCURVE",
"567 102 CURVE SMOOTH",
"567 187 OFFCURVE",
"549 205 OFFCURVE",
"504 205 CURVE SMOOTH",
"457 205 LINE",
"457 368 LINE SMOOTH",
"457 556 OFFCURVE",
"563 719 OFFCURVE",
"682 719 CURVE SMOOTH",
"770 719 OFFCURVE",
"799 659 OFFCURVE",
"799 561 CURVE SMOOTH",
"799 205 LINE",
"752 205 LINE SMOOTH",
"707 205 OFFCURVE",
"689 187 OFFCURVE",
"689 102 CURVE SMOOTH",
"689 17 OFFCURVE",
"707 0 OFFCURVE",
"752 0 CURVE SMOOTH",
"1126 0 LINE SMOOTH",
"1171 0 OFFCURVE",
"1189 17 OFFCURVE",
"1189 102 CURVE SMOOTH",
"1189 187 OFFCURVE",
"1171 205 OFFCURVE",
"1126 205 CURVE SMOOTH",
"1049 205 LINE",
"1049 620 LINE SMOOTH",
"1049 820 OFFCURVE",
"931 946 OFFCURVE",
"747 946 CURVE SMOOTH",
"637 946 OFFCURVE",
"540 890 OFFCURVE",
"457 763 CURVE",
"457 1249 LINE SMOOTH",
"457 1294 OFFCURVE",
"439 1312 OFFCURVE",
"394 1312 CURVE SMOOTH"
);
}
);
width = 1228;
}
);
unicode = 0068;
},
{
color = (0,243,255,1);
glyphname = hbar;
lastChange = "2014-11-13 04:54:09 -0700";
layers = (
{
layerId = UUID0;
name = Regular;
paths = (
{
closed = 1;
nodes = (
"83 1126 LINE SMOOTH",
"38 1126 OFFCURVE",
"20 1108 OFFCURVE",
"20 1058 CURVE SMOOTH",
"20 1008 OFFCURVE",
"38 990 OFFCURVE",
"83 990 CURVE SMOOTH",
"232 990 LINE",
"232 136 LINE",
"150 136 LINE SMOOTH",
"105 136 OFFCURVE",
"87 118 OFFCURVE",
"87 68 CURVE SMOOTH",
"87 18 OFFCURVE",
"105 0 OFFCURVE",
"150 0 CURVE SMOOTH",
"474 0 LINE SMOOTH",
"519 0 OFFCURVE",
"537 18 OFFCURVE",
"537 68 CURVE SMOOTH",
"537 118 OFFCURVE",
"519 136 OFFCURVE",
"474 136 CURVE SMOOTH",
"382 136 LINE",
"382 422 LINE SMOOTH",
"382 640 OFFCURVE",
"531 798 OFFCURVE",
"702 798 CURVE SMOOTH",
"811 798 OFFCURVE",
"864 720 OFFCURVE",
"864 605 CURVE SMOOTH",
"864 136 LINE",
"772 136 LINE SMOOTH",
"727 136 OFFCURVE",
"709 118 OFFCURVE",
"709 68 CURVE SMOOTH",
"709 18 OFFCURVE",
"727 0 OFFCURVE",
"772 0 CURVE SMOOTH",
"1096 0 LINE SMOOTH",
"1141 0 OFFCURVE",
"1159 18 OFFCURVE",
"1159 68 CURVE SMOOTH",
"1159 118 OFFCURVE",
"1141 136 OFFCURVE",
"1096 136 CURVE SMOOTH",
"1014 136 LINE",
"1014 620 LINE SMOOTH",
"1014 820 OFFCURVE",
"901 946 OFFCURVE",
"717 946 CURVE SMOOTH",
"585 946 OFFCURVE",
"468 875 OFFCURVE",
"382 746 CURVE",
"382 990 LINE",
"645 990 LINE SMOOTH",
"690 990 OFFCURVE",
"708 1008 OFFCURVE",
"708 1058 CURVE SMOOTH",
"708 1108 OFFCURVE",
"690 1126 OFFCURVE",
"645 1126 CURVE SMOOTH",
"382 1126 LINE",
"382 1244 LINE SMOOTH",
"382 1294 OFFCURVE",
"364 1312 OFFCURVE",
"319 1312 CURVE SMOOTH",
"140 1312 LINE SMOOTH",
"95 1312 OFFCURVE",
"77 1294 OFFCURVE",
"77 1244 CURVE SMOOTH",
"77 1194 OFFCURVE",
"95 1176 OFFCURVE",
"140 1176 CURVE SMOOTH",
"232 1176 LINE",
"232 1126 LINE"
);
}
);
width = 1228;
},
{
layerId = "8538028E-5D6C-4318-9676-30148CDA39CA";
name = Bold;
paths = (
{
closed = 1;
nodes = (
"93 1155 LINE SMOOTH",
"48 1155 OFFCURVE",
"30 1137 OFFCURVE",
"30 1052 CURVE SMOOTH",
"30 967 OFFCURVE",
"48 950 OFFCURVE",
"93 950 CURVE SMOOTH",
"207 950 LINE",
"207 205 LINE",
"130 205 LINE SMOOTH",
"85 205 OFFCURVE",
"67 187 OFFCURVE",
"67 102 CURVE SMOOTH",
"67 17 OFFCURVE",
"85 0 OFFCURVE",
"130 0 CURVE SMOOTH",
"504 0 LINE SMOOTH",
"549 0 OFFCURVE",
"567 17 OFFCURVE",
"567 102 CURVE SMOOTH",
"567 187 OFFCURVE",
"549 205 OFFCURVE",
"504 205 CURVE SMOOTH",
"457 205 LINE",
"457 288 LINE SMOOTH",
"457 476 OFFCURVE",
"563 639 OFFCURVE",
"682 639 CURVE SMOOTH",
"770 639 OFFCURVE",
"799 579 OFFCURVE",
"799 481 CURVE SMOOTH",
"799 205 LINE",
"752 205 LINE SMOOTH",
"707 205 OFFCURVE",
"689 187 OFFCURVE",
"689 102 CURVE SMOOTH",
"689 17 OFFCURVE",
"707 0 OFFCURVE",
"752 0 CURVE SMOOTH",
"1126 0 LINE SMOOTH",
"1171 0 OFFCURVE",
"1189 17 OFFCURVE",
"1189 102 CURVE SMOOTH",
"1189 187 OFFCURVE",
"1171 205 OFFCURVE",
"1126 205 CURVE SMOOTH",
"1049 205 LINE",
"1049 540 LINE SMOOTH",
"1049 740 OFFCURVE",
"931 866 OFFCURVE",
"747 866 CURVE SMOOTH",
"637 866 OFFCURVE",
"540 810 OFFCURVE",
"457 683 CURVE",
"457 950 LINE",
"655 950 LINE SMOOTH",
"700 950 OFFCURVE",
"718 967 OFFCURVE",
"718 1052 CURVE SMOOTH",
"718 1137 OFFCURVE",
"700 1155 OFFCURVE",
"655 1155 CURVE SMOOTH",
"457 1155 LINE",
"457 1249 LINE SMOOTH",
"457 1294 OFFCURVE",
"439 1312 OFFCURVE",
"394 1312 CURVE SMOOTH",
"270 1312 LINE SMOOTH",
"225 1312 OFFCURVE",
"207 1294 OFFCURVE",
"207 1249 CURVE SMOOTH",
"207 1155 LINE"
);
}
);
width = 1228;
}
);
unicode = 0127;
},
{
glyphname = i;
lastChange = "2014-11-13 04:54:09 -0700";
layers = (
{
layerId = UUID0;
name = Regular;
paths = (
{
closed = 1;
nodes = (
"563 136 LINE",
"250 136 LINE SMOOTH",
"205 136 OFFCURVE",
"187 118 OFFCURVE",
"187 68 CURVE SMOOTH",
"187 18 OFFCURVE",
"205 0 OFFCURVE",
"250 0 CURVE SMOOTH",
"1034 0 LINE SMOOTH",
"1079 0 OFFCURVE",
"1097 18 OFFCURVE",
"1097 68 CURVE SMOOTH",
"1097 118 OFFCURVE",
"1079 136 OFFCURVE",
"1034 136 CURVE SMOOTH",
"713 136 LINE",
"713 856 LINE SMOOTH",
"713 906 OFFCURVE",
"695 924 OFFCURVE",
"650 924 CURVE SMOOTH",
"310 924 LINE SMOOTH",
"265 924 OFFCURVE",
"247 906 OFFCURVE",
"247 856 CURVE SMOOTH",
"247 806 OFFCURVE",
"265 788 OFFCURVE",
"310 788 CURVE SMOOTH",
"563 788 LINE"
);
},
{
closed = 1;
nodes = (
"713 1298 LINE SMOOTH",
"713 1344 OFFCURVE",
"694 1363 OFFCURVE",
"618 1363 CURVE SMOOTH",
"542 1363 OFFCURVE",
"523 1344 OFFCURVE",
"523 1298 CURVE SMOOTH",
"523 1168 LINE SMOOTH",
"523 1122 OFFCURVE",
"542 1103 OFFCURVE",
"618 1103 CURVE SMOOTH",
"694 1103 OFFCURVE",
"713 1122 OFFCURVE",
"713 1168 CURVE SMOOTH"
);
}
);
width = 1228;
},
{
layerId = "8538028E-5D6C-4318-9676-30148CDA39CA";
name = Bold;
paths = (
{
closed = 1;
nodes = (
"503 205 LINE",
"230 205 LINE SMOOTH",
"185 205 OFFCURVE",
"167 187 OFFCURVE",
"167 102 CURVE SMOOTH",
"167 17 OFFCURVE",
"185 0 OFFCURVE",
"230 0 CURVE SMOOTH",
"1034 0 LINE SMOOTH",
"1079 0 OFFCURVE",
"1097 17 OFFCURVE",
"1097 102 CURVE SMOOTH",
"1097 187 OFFCURVE",
"1079 205 OFFCURVE",
"1034 205 CURVE SMOOTH",
"753 205 LINE",
"753 861 LINE SMOOTH",
"753 906 OFFCURVE",
"735 924 OFFCURVE",
"690 924 CURVE SMOOTH",
"310 924 LINE SMOOTH",
"265 924 OFFCURVE",
"247 906 OFFCURVE",
"247 821 CURVE SMOOTH",
"247 736 OFFCURVE",
"265 719 OFFCURVE",
"310 719 CURVE SMOOTH",
"503 719 LINE"
);
},
{
closed = 1;
nodes = (
"753 1320 LINE SMOOTH",
"753 1365 OFFCURVE",
"720 1383 OFFCURVE",
"625 1383 CURVE SMOOTH",
"530 1383 OFFCURVE",
"503 1365 OFFCURVE",
"503 1320 CURVE SMOOTH",
"503 1156 LINE SMOOTH",
"503 1111 OFFCURVE",
"535 1093 OFFCURVE",
"630 1093 CURVE SMOOTH",
"725 1093 OFFCURVE",
"753 1111 OFFCURVE",
"753 1156 CURVE SMOOTH"
);
}
);
width = 1228;
}
);
unicode = 0069;
},
{
glyphname = dotlessi;
lastChange = "2014-11-13 04:54:09 -0700";
layers = (
{
layerId = UUID0;
name = Regular;
paths = (
{
closed = 1;
nodes = (
"563 136 LINE",
"250 136 LINE SMOOTH",
"205 136 OFFCURVE",
"187 118 OFFCURVE",
"187 68 CURVE SMOOTH",
"187 18 OFFCURVE",
"205 0 OFFCURVE",
"250 0 CURVE SMOOTH",
"1034 0 LINE SMOOTH",
"1079 0 OFFCURVE",
"1097 18 OFFCURVE",
"1097 68 CURVE SMOOTH",
"1097 118 OFFCURVE",
"1079 136 OFFCURVE",
"1034 136 CURVE SMOOTH",
"713 136 LINE",
"713 856 LINE SMOOTH",
"713 906 OFFCURVE",
"695 924 OFFCURVE",
"650 924 CURVE SMOOTH",
"310 924 LINE SMOOTH",
"265 924 OFFCURVE",
"247 906 OFFCURVE",
"247 856 CURVE SMOOTH",
"247 806 OFFCURVE",
"265 788 OFFCURVE",
"310 788 CURVE SMOOTH",
"563 788 LINE"
);
}
);
width = 1228;
},
{
layerId = "8538028E-5D6C-4318-9676-30148CDA39CA";
name = Bold;
paths = (
{
closed = 1;
nodes = (
"503 205 LINE",
"230 205 LINE SMOOTH",
"185 205 OFFCURVE",
"167 187 OFFCURVE",
"167 102 CURVE SMOOTH",
"167 17 OFFCURVE",
"185 0 OFFCURVE",
"230 0 CURVE SMOOTH",
"1034 0 LINE SMOOTH",
"1079 0 OFFCURVE",
"1097 17 OFFCURVE",
"1097 102 CURVE SMOOTH",
"1097 187 OFFCURVE",
"1079 205 OFFCURVE",
"1034 205 CURVE SMOOTH",
"753 205 LINE",
"753 861 LINE SMOOTH",
"753 906 OFFCURVE",
"735 924 OFFCURVE",
"690 924 CURVE SMOOTH",
"310 924 LINE SMOOTH",
"265 924 OFFCURVE",
"247 906 OFFCURVE",
"247 821 CURVE SMOOTH",
"247 736 OFFCURVE",
"265 719 OFFCURVE",
"310 719 CURVE SMOOTH",
"503 719 LINE"
);
}
);
width = 1228;
}
);
unicode = 0131;
},
{
glyphname = ij;
lastChange = "2014-11-13 04:54:09 -0700";
layers = (
{
layerId = UUID0;
name = Regular;
paths = (
{
closed = 1;
nodes = (
"700 924 LINE SMOOTH",
"655 924 OFFCURVE",
"637 906 OFFCURVE",
"637 856 CURVE SMOOTH",
"637 806 OFFCURVE",
"655 788 OFFCURVE",
"700 788 CURVE SMOOTH",
"923 788 LINE",
"923 -49 LINE SMOOTH",
"923 -196 OFFCURVE",
"880 -269 OFFCURVE",
"746 -269 CURVE SMOOTH",
"663 -269 OFFCURVE",
"587 -246 OFFCURVE",
"510 -204 CURVE SMOOTH",
"499 -198 OFFCURVE",
"489 -196 OFFCURVE",
"479 -196 CURVE SMOOTH",
"440 -196 OFFCURVE",
"417 -256 OFFCURVE",
"417 -293 CURVE SMOOTH",
"417 -315 OFFCURVE",
"430 -331 OFFCURVE",
"451 -342 CURVE SMOOTH",
"528 -383 OFFCURVE",
"639 -415 OFFCURVE",
"746 -415 CURVE SMOOTH",
"978 -415 OFFCURVE",
"1073 -291 OFFCURVE",
"1073 -62 CURVE SMOOTH",
"1073 856 LINE SMOOTH",
"1073 906 OFFCURVE",
"1055 924 OFFCURVE",
"1010 924 CURVE SMOOTH"
);
},
{
closed = 1;
nodes = (
"160 924 LINE SMOOTH",
"115 924 OFFCURVE",
"97 906 OFFCURVE",
"97 856 CURVE SMOOTH",
"97 806 OFFCURVE",
"115 788 OFFCURVE",
"160 788 CURVE SMOOTH",
"283 788 LINE",
"283 136 LINE",
"120 136 LINE SMOOTH",
"75 136 OFFCURVE",
"57 118 OFFCURVE",
"57 68 CURVE SMOOTH",
"57 18 OFFCURVE",
"75 0 OFFCURVE",
"120 0 CURVE SMOOTH",
"604 0 LINE SMOOTH",
"649 0 OFFCURVE",
"667 18 OFFCURVE",
"667 68 CURVE SMOOTH",
"667 118 OFFCURVE",
"649 136 OFFCURVE",
"604 136 CURVE SMOOTH",
"433 136 LINE",
"433 856 LINE SMOOTH",
"433 906 OFFCURVE",
"415 924 OFFCURVE",
"370 924 CURVE SMOOTH"
);
},
{
closed = 1;
nodes = (
"262 1363 OFFCURVE",
"243 1344 OFFCURVE",
"243 1298 CURVE SMOOTH",
"243 1168 LINE SMOOTH",
"243 1122 OFFCURVE",
"262 1103 OFFCURVE",
"338 1103 CURVE SMOOTH",
"414 1103 OFFCURVE",
"433 1122 OFFCURVE",
"433 1168 CURVE SMOOTH",
"433 1298 LINE SMOOTH",
"433 1344 OFFCURVE",
"414 1363 OFFCURVE",
"338 1363 CURVE SMOOTH"
);
},
{
closed = 1;
nodes = (
"902 1363 OFFCURVE",
"883 1344 OFFCURVE",
"883 1298 CURVE SMOOTH",
"883 1168 LINE SMOOTH",
"883 1122 OFFCURVE",
"902 1103 OFFCURVE",
"978 1103 CURVE SMOOTH",
"1054 1103 OFFCURVE",
"1073 1122 OFFCURVE",
"1073 1168 CURVE SMOOTH",
"1073 1298 LINE SMOOTH",
"1073 1344 OFFCURVE",
"1054 1363 OFFCURVE",
"978 1363 CURVE SMOOTH"
);
}
);
width = 1228;
},
{
layerId = "8538028E-5D6C-4318-9676-30148CDA39CA";
name = Bold;
paths = (
{
closed = 1;
nodes = (
"690 924 LINE SMOOTH",
"645 924 OFFCURVE",
"627 906 OFFCURVE",
"627 821 CURVE SMOOTH",
"627 736 OFFCURVE",
"645 719 OFFCURVE",
"690 719 CURVE SMOOTH",
"873 719 LINE",
"873 -22 LINE SMOOTH",
"873 -137 OFFCURVE",
"826 -188 OFFCURVE",
"744 -188 CURVE SMOOTH",
"692 -188 OFFCURVE",
"625 -175 OFFCURVE",
"560 -154 CURVE SMOOTH",
"547 -150 OFFCURVE",
"537 -148 OFFCURVE",
"528 -148 CURVE SMOOTH",
"481 -148 OFFCURVE",
"452 -233 OFFCURVE",
"452 -295 CURVE SMOOTH",
"452 -334 OFFCURVE",
"472 -352 OFFCURVE",
"501 -364 CURVE SMOOTH",
"585 -398 OFFCURVE",
"679 -415 OFFCURVE",
"766 -415 CURVE SMOOTH",
"998 -415 OFFCURVE",
"1123 -284 OFFCURVE",
"1123 -35 CURVE SMOOTH",
"1123 861 LINE SMOOTH",
"1123 906 OFFCURVE",
"1105 924 OFFCURVE",
"1060 924 CURVE SMOOTH"
);
},
{
closed = 1;
nodes = (
"110 924 LINE SMOOTH",
"65 924 OFFCURVE",
"47 906 OFFCURVE",
"47 821 CURVE SMOOTH",
"47 736 OFFCURVE",
"65 719 OFFCURVE",
"110 719 CURVE SMOOTH",
"233 719 LINE",
"233 205 LINE",
"100 205 LINE SMOOTH",
"55 205 OFFCURVE",
"37 187 OFFCURVE",
"37 102 CURVE SMOOTH",
"37 17 OFFCURVE",
"55 0 OFFCURVE",
"100 0 CURVE SMOOTH",
"624 0 LINE SMOOTH",
"669 0 OFFCURVE",
"687 17 OFFCURVE",
"687 102 CURVE SMOOTH",
"687 187 OFFCURVE",
"669 205 OFFCURVE",
"624 205 CURVE SMOOTH",
"483 205 LINE",
"483 861 LINE SMOOTH",
"483 906 OFFCURVE",
"465 924 OFFCURVE",
"420 924 CURVE SMOOTH"
);
},
{
closed = 1;
nodes = (
"260 1383 OFFCURVE",
"233 1365 OFFCURVE",
"233 1320 CURVE SMOOTH",
"233 1156 LINE SMOOTH",
"233 1111 OFFCURVE",
"265 1093 OFFCURVE",
"360 1093 CURVE SMOOTH",
"455 1093 OFFCURVE",
"483 1111 OFFCURVE",
"483 1156 CURVE SMOOTH",
"483 1320 LINE SMOOTH",
"483 1365 OFFCURVE",
"450 1383 OFFCURVE",
"355 1383 CURVE SMOOTH"
);
},
{
closed = 1;
nodes = (
"900 1383 OFFCURVE",
"873 1365 OFFCURVE",
"873 1320 CURVE SMOOTH",
"873 1156 LINE SMOOTH",
"873 1111 OFFCURVE",
"905 1093 OFFCURVE",
"1000 1093 CURVE SMOOTH",
"1095 1093 OFFCURVE",
"1123 1111 OFFCURVE",
"1123 1156 CURVE SMOOTH",
"1123 1320 LINE SMOOTH",
"1123 1365 OFFCURVE",
"1090 1383 OFFCURVE",
"995 1383 CURVE SMOOTH"
);
}
);
width = 1228;
}
);
unicode = 0133;
},
{
color = 3;
glyphname = iogonek;
lastChange = "2014-11-13 04:54:09 -0700";
layers = (
{
background = {
paths = (
{
closed = 1;
nodes = (
"563 136 LINE",
"250 136 LINE SMOOTH",
"205 136 OFFCURVE",
"187 118 OFFCURVE",
"187 68 CURVE SMOOTH",
"187 18 OFFCURVE",
"205 0 OFFCURVE",
"250 0 CURVE SMOOTH",
"555 0 LINE",
"455 -88 OFFCURVE",
"391 -179 OFFCURVE",
"391 -281 CURVE SMOOTH",
"391 -397 OFFCURVE",
"467 -472 OFFCURVE",
"591 -472 CURVE SMOOTH",
"653 -472 OFFCURVE",
"709 -462 OFFCURVE",
"755 -446 CURVE SMOOTH",
"784 -436 OFFCURVE",
"793 -415 OFFCURVE",
"787 -374 CURVE SMOOTH",
"782 -337 OFFCURVE",
"763 -322 OFFCURVE",
"737 -326 CURVE SMOOTH",
"702 -332 OFFCURVE",
"663 -336 OFFCURVE",
"624 -336 CURVE SMOOTH",
"579 -336 OFFCURVE",
"547 -310 OFFCURVE",
"547 -261 CURVE SMOOTH",
"547 -188 OFFCURVE",
"594 -110 OFFCURVE",
"713 0 CURVE",
"1034 0 LINE SMOOTH",
"1079 0 OFFCURVE",
"1097 18 OFFCURVE",
"1097 68 CURVE SMOOTH",
"1097 118 OFFCURVE",
"1079 136 OFFCURVE",
"1034 136 CURVE SMOOTH",
"713 136 LINE",
"713 856 LINE SMOOTH",
"713 906 OFFCURVE",
"695 924 OFFCURVE",
"650 924 CURVE SMOOTH",
"310 924 LINE SMOOTH",
"265 924 OFFCURVE",
"247 906 OFFCURVE",
"247 856 CURVE SMOOTH",
"247 806 OFFCURVE",
"265 788 OFFCURVE",
"310 788 CURVE SMOOTH",
"563 788 LINE"
);
},
{
closed = 1;
nodes = (
"713 1298 LINE SMOOTH",
"713 1344 OFFCURVE",
"694 1363 OFFCURVE",
"618 1363 CURVE SMOOTH",
"542 1363 OFFCURVE",
"523 1344 OFFCURVE",
"523 1298 CURVE SMOOTH",
"523 1168 LINE SMOOTH",
"523 1122 OFFCURVE",
"542 1103 OFFCURVE",
"618 1103 CURVE SMOOTH",
"694 1103 OFFCURVE",
"713 1122 OFFCURVE",
"713 1168 CURVE SMOOTH"
);
}
);
};
components = (
{
name = dotlessi;
transform = "{1, 0, 0, 1, 0, 0}";
},
{
name = dotaccent;
transform = "{1, 0, 0, 1, 0, 0}";
},
{
name = ogonek;
transform = "{1, 0, 0, 1, -20, 0}";
}
);
layerId = UUID0;
name = Regular;
width = 1228;
},
{
background = {
paths = (
{
closed = 1;
nodes = (
"503 205 LINE",
"230 205 LINE SMOOTH",
"185 205 OFFCURVE",
"167 187 OFFCURVE",
"167 102 CURVE SMOOTH",
"167 17 OFFCURVE",
"185 0 OFFCURVE",
"230 0 CURVE SMOOTH",
"524 0 LINE",
"418 -72 OFFCURVE",
"339 -154 OFFCURVE",
"339 -269 CURVE SMOOTH",
"339 -402 OFFCURVE",
"429 -472 OFFCURVE",
"585 -472 CURVE SMOOTH",
"658 -472 OFFCURVE",
"734 -459 OFFCURVE",
"801 -438 CURVE SMOOTH",
"829 -429 OFFCURVE",
"842 -399 OFFCURVE",
"838 -353 CURVE SMOOTH",
"834 -307 OFFCURVE",
"816 -281 OFFCURVE",
"790 -285 CURVE SMOOTH",
"747 -292 OFFCURVE",
"709 -298 OFFCURVE",
"670 -298 CURVE SMOOTH",
"613 -298 OFFCURVE",
"582 -278 OFFCURVE",
"582 -231 CURVE SMOOTH",
"582 -163 OFFCURVE",
"643 -84 OFFCURVE",
"741 0 CURVE",
"1034 0 LINE SMOOTH",
"1079 0 OFFCURVE",
"1097 17 OFFCURVE",
"1097 102 CURVE SMOOTH",
"1097 187 OFFCURVE",
"1079 205 OFFCURVE",
"1034 205 CURVE SMOOTH",
"753 205 LINE",
"753 861 LINE SMOOTH",
"753 906 OFFCURVE",
"735 924 OFFCURVE",
"690 924 CURVE SMOOTH",
"310 924 LINE SMOOTH",
"265 924 OFFCURVE",
"247 906 OFFCURVE",
"247 821 CURVE SMOOTH",
"247 736 OFFCURVE",
"265 719 OFFCURVE",
"310 719 CURVE SMOOTH",
"503 719 LINE"
);
},
{
closed = 1;
nodes = (
"753 1320 LINE SMOOTH",
"753 1365 OFFCURVE",
"720 1383 OFFCURVE",
"625 1383 CURVE SMOOTH",
"530 1383 OFFCURVE",
"503 1365 OFFCURVE",
"503 1320 CURVE SMOOTH",
"503 1156 LINE SMOOTH",
"503 1111 OFFCURVE",
"535 1093 OFFCURVE",
"630 1093 CURVE SMOOTH",
"725 1093 OFFCURVE",
"753 1111 OFFCURVE",
"753 1156 CURVE SMOOTH"
);
}
);
};
components = (
{
name = dotlessi;
transform = "{1, 0, 0, 1, 0, 0}";
},
{
name = dotaccent;
transform = "{1, 0, 0, 1, 0, 0}";
},
{
name = ogonek;
transform = "{1, 0, 0, 1, -10, 0}";
}
);
layerId = "8538028E-5D6C-4318-9676-30148CDA39CA";
name = Bold;
width = 1228;
}
);
unicode = 012F;
},
{
glyphname = j;
lastChange = "2014-11-13 04:54:09 -0700";
layers = (
{
components = (
{
name = dotlessj;
transform = "{1, 0, 0, 1, 0, 0}";
}
);
layerId = UUID0;
name = Regular;
paths = (
{
closed = 1;
nodes = (
"732 1363 OFFCURVE",
"713 1344 OFFCURVE",
"713 1298 CURVE SMOOTH",
"713 1168 LINE SMOOTH",
"713 1122 OFFCURVE",
"732 1103 OFFCURVE",
"808 1103 CURVE SMOOTH",
"884 1103 OFFCURVE",
"903 1122 OFFCURVE",
"903 1168 CURVE SMOOTH",
"903 1298 LINE SMOOTH",
"903 1344 OFFCURVE",
"884 1363 OFFCURVE",
"808 1363 CURVE SMOOTH"
);
}
);
width = 1228;
},
{
components = (
{
name = dotlessj;
transform = "{1, 0, 0, 1, 0, 0}";
}
);
layerId = "8538028E-5D6C-4318-9676-30148CDA39CA";
name = Bold;
paths = (
{
closed = 1;
nodes = (
"700 1383 OFFCURVE",
"673 1365 OFFCURVE",
"673 1320 CURVE SMOOTH",
"673 1156 LINE SMOOTH",
"673 1111 OFFCURVE",
"705 1093 OFFCURVE",
"800 1093 CURVE SMOOTH",
"895 1093 OFFCURVE",
"923 1111 OFFCURVE",
"923 1156 CURVE SMOOTH",
"923 1320 LINE SMOOTH",
"923 1365 OFFCURVE",
"890 1383 OFFCURVE",
"795 1383 CURVE SMOOTH"
);
}
);
width = 1228;
}
);
unicode = 006A;
},
{
glyphname = dotlessj;
lastChange = "2014-11-13 04:54:09 -0700";
layers = (
{
layerId = UUID0;
name = Regular;
paths = (
{
closed = 1;
nodes = (
"330 924 LINE SMOOTH",
"285 924 OFFCURVE",
"267 906 OFFCURVE",
"267 856 CURVE SMOOTH",
"267 806 OFFCURVE",
"285 788 OFFCURVE",
"330 788 CURVE SMOOTH",
"753 788 LINE",
"753 -44 LINE SMOOTH",
"753 -191 OFFCURVE",
"710 -264 OFFCURVE",
"576 -264 CURVE SMOOTH",
"483 -264 OFFCURVE",
"379 -222 OFFCURVE",
"292 -165 CURVE SMOOTH",
"262 -145 OFFCURVE",
"228 -153 OFFCURVE",
"203 -201 CURVE SMOOTH",
"178 -249 OFFCURVE",
"190 -277 OFFCURVE",
"223 -298 CURVE SMOOTH",
"323 -361 OFFCURVE",
"461 -410 OFFCURVE",
"576 -410 CURVE SMOOTH",
"808 -410 OFFCURVE",
"903 -286 OFFCURVE",
"903 -57 CURVE SMOOTH",
"903 856 LINE SMOOTH",
"903 906 OFFCURVE",
"885 924 OFFCURVE",
"840 924 CURVE SMOOTH"
);
}
);
width = 1228;
},
{
layerId = "8538028E-5D6C-4318-9676-30148CDA39CA";
name = Bold;
paths = (
{
closed = 1;
nodes = (
"290 924 LINE SMOOTH",
"245 924 OFFCURVE",
"227 906 OFFCURVE",
"227 821 CURVE SMOOTH",
"227 736 OFFCURVE",
"245 719 OFFCURVE",
"290 719 CURVE SMOOTH",
"673 719 LINE",
"673 -22 LINE SMOOTH",
"673 -137 OFFCURVE",
"626 -188 OFFCURVE",
"544 -188 CURVE SMOOTH",
"476 -188 OFFCURVE",
"381 -149 OFFCURVE",
"293 -110 CURVE SMOOTH",
"240 -88 OFFCURVE",
"208 -110 OFFCURVE",
"177 -183 CURVE SMOOTH",
"147 -254 OFFCURVE",
"155 -295 OFFCURVE",
"204 -320 CURVE SMOOTH",
"325 -381 OFFCURVE",
"451 -415 OFFCURVE",
"566 -415 CURVE SMOOTH",
"798 -415 OFFCURVE",
"923 -284 OFFCURVE",
"923 -35 CURVE SMOOTH",
"923 861 LINE SMOOTH",
"923 906 OFFCURVE",
"905 924 OFFCURVE",
"860 924 CURVE SMOOTH"
);
}
);
width = 1228;
}
);
unicode = 0237;
},
{
color = (0,243,255,1);
glyphname = k;
lastChange = "2014-11-13 04:54:09 -0700";
layers = (
{
layerId = UUID0;
name = Regular;
paths = (
{
closed = 1;
nodes = (
"130 1312 LINE SMOOTH",
"85 1312 OFFCURVE",
"67 1294 OFFCURVE",
"67 1244 CURVE SMOOTH",
"67 1194 OFFCURVE",
"85 1176 OFFCURVE",
"130 1176 CURVE SMOOTH",
"261 1176 LINE",
"261 136 LINE",
"150 136 LINE SMOOTH",
"105 136 OFFCURVE",
"87 118 OFFCURVE",
"87 68 CURVE SMOOTH",
"87 18 OFFCURVE",
"105 0 OFFCURVE",
"150 0 CURVE SMOOTH",
"484 0 LINE SMOOTH",
"529 0 OFFCURVE",
"547 18 OFFCURVE",
"547 68 CURVE SMOOTH",
"547 118 OFFCURVE",
"529 136 OFFCURVE",
"484 136 CURVE SMOOTH",
"411 136 LINE",
"411 274 LINE",
"593 434 LINE",
"844 136 LINE",
"772 136 LINE SMOOTH",
"727 136 OFFCURVE",
"709 118 OFFCURVE",
"709 68 CURVE SMOOTH",
"709 18 OFFCURVE",
"727 0 OFFCURVE",
"772 0 CURVE SMOOTH",
"1096 0 LINE SMOOTH",
"1141 0 OFFCURVE",
"1159 18 OFFCURVE",
"1159 68 CURVE SMOOTH",
"1159 118 OFFCURVE",
"1141 136 OFFCURVE",
"1096 136 CURVE SMOOTH",
"1038 136 LINE",
"702 529 LINE",
"996 788 LINE",
"1055 788 LINE SMOOTH",
"1100 788 OFFCURVE",
"1118 806 OFFCURVE",
"1118 856 CURVE SMOOTH",
"1118 906 OFFCURVE",
"1100 924 OFFCURVE",
"1055 924 CURVE SMOOTH",
"721 924 LINE SMOOTH",
"676 924 OFFCURVE",
"658 906 OFFCURVE",
"658 856 CURVE SMOOTH",
"658 806 OFFCURVE",
"676 788 OFFCURVE",
"721 788 CURVE SMOOTH",
"792 788 LINE",
"411 452 LINE",
"411 1244 LINE SMOOTH",
"411 1294 OFFCURVE",
"393 1312 OFFCURVE",
"348 1312 CURVE SMOOTH"
);
}
);
width = 1228;
},
{
layerId = "8538028E-5D6C-4318-9676-30148CDA39CA";
name = Bold;
paths = (
{
closed = 1;
nodes = (
"120 1312 LINE SMOOTH",
"75 1312 OFFCURVE",
"57 1294 OFFCURVE",
"57 1209 CURVE SMOOTH",
"57 1124 OFFCURVE",
"75 1107 OFFCURVE",
"120 1107 CURVE SMOOTH",
"217 1107 LINE",
"217 205 LINE",
"140 205 LINE SMOOTH",
"95 205 OFFCURVE",
"77 187 OFFCURVE",
"77 102 CURVE SMOOTH",
"77 17 OFFCURVE",
"95 0 OFFCURVE",
"140 0 CURVE SMOOTH",
"554 0 LINE SMOOTH",
"599 0 OFFCURVE",
"617 17 OFFCURVE",
"617 102 CURVE SMOOTH",
"617 187 OFFCURVE",
"599 205 OFFCURVE",
"554 205 CURVE SMOOTH",
"467 205 LINE",
"467 285 LINE",
"605 390 LINE",
"857 40 LINE SMOOTH",
"877 11 OFFCURVE",
"904 0 OFFCURVE",
"935 0 CURVE SMOOTH",
"1106 0 LINE SMOOTH",
"1151 0 OFFCURVE",
"1169 17 OFFCURVE",
"1169 102 CURVE SMOOTH",
"1169 187 OFFCURVE",
"1151 205 OFFCURVE",
"1106 205 CURVE SMOOTH",
"1045 205 LINE",
"802 538 LINE",
"1051 739 LINE",
"1091 739 LINE SMOOTH",
"1136 739 OFFCURVE",
"1154 756 OFFCURVE",
"1154 831 CURVE SMOOTH",
"1154 906 OFFCURVE",
"1136 924 OFFCURVE",
"1091 924 CURVE SMOOTH",
"677 924 LINE SMOOTH",
"632 924 OFFCURVE",
"614 906 OFFCURVE",
"614 831 CURVE SMOOTH",
"614 756 OFFCURVE",
"632 739 OFFCURVE",
"677 739 CURVE SMOOTH",
"727 739 LINE",
"467 527 LINE",
"467 1249 LINE SMOOTH",
"467 1294 OFFCURVE",
"449 1312 OFFCURVE",
"404 1312 CURVE SMOOTH"
);
}
);
width = 1228;
}
);
unicode = 006B;
},
{
glyphname = l;
lastChange = "2014-11-13 04:54:09 -0700";
layers = (
{
layerId = UUID0;
name = Regular;
paths = (
{
closed = 1;
nodes = (
"553 136 LINE",
"240 136 LINE SMOOTH",
"195 136 OFFCURVE",
"177 118 OFFCURVE",
"177 68 CURVE SMOOTH",
"177 18 OFFCURVE",
"195 0 OFFCURVE",
"240 0 CURVE SMOOTH",
"1024 0 LINE SMOOTH",
"1069 0 OFFCURVE",
"1087 18 OFFCURVE",
"1087 68 CURVE SMOOTH",
"1087 118 OFFCURVE",
"1069 136 OFFCURVE",
"1024 136 CURVE SMOOTH",
"703 136 LINE",
"703 1244 LINE SMOOTH",
"703 1294 OFFCURVE",
"685 1312 OFFCURVE",
"640 1312 CURVE SMOOTH",
"280 1312 LINE SMOOTH",
"235 1312 OFFCURVE",
"217 1294 OFFCURVE",
"217 1244 CURVE SMOOTH",
"217 1194 OFFCURVE",
"235 1176 OFFCURVE",
"280 1176 CURVE SMOOTH",
"553 1176 LINE"
);
}
);
width = 1228;
},
{
layerId = "8538028E-5D6C-4318-9676-30148CDA39CA";
name = Bold;
paths = (
{
closed = 1;
nodes = (
"493 205 LINE",
"220 205 LINE SMOOTH",
"175 205 OFFCURVE",
"157 187 OFFCURVE",
"157 102 CURVE SMOOTH",
"157 17 OFFCURVE",
"175 0 OFFCURVE",
"220 0 CURVE SMOOTH",
"1024 0 LINE SMOOTH",
"1069 0 OFFCURVE",
"1087 17 OFFCURVE",
"1087 102 CURVE SMOOTH",
"1087 187 OFFCURVE",
"1069 205 OFFCURVE",
"1024 205 CURVE SMOOTH",
"743 205 LINE",
"743 1249 LINE SMOOTH",
"743 1294 OFFCURVE",
"725 1312 OFFCURVE",
"680 1312 CURVE SMOOTH",
"260 1312 LINE SMOOTH",
"215 1312 OFFCURVE",
"197 1294 OFFCURVE",
"197 1209 CURVE SMOOTH",
"197 1124 OFFCURVE",
"215 1107 OFFCURVE",
"260 1107 CURVE SMOOTH",
"493 1107 LINE"
);
}
);
width = 1228;
}
);
unicode = 006C;
},
{
color = (0,243,255,1);
glyphname = lslash;
lastChange = "2014-11-13 04:54:09 -0700";
layers = (
{
layerId = UUID0;
name = Regular;
paths = (
{
closed = 1;
nodes = (
"553 136 LINE",
"240 136 LINE SMOOTH",
"195 136 OFFCURVE",
"177 118 OFFCURVE",
"177 68 CURVE SMOOTH",
"177 18 OFFCURVE",
"195 0 OFFCURVE",
"240 0 CURVE SMOOTH",
"1024 0 LINE SMOOTH",
"1069 0 OFFCURVE",
"1087 18 OFFCURVE",
"1087 68 CURVE SMOOTH",
"1087 118 OFFCURVE",
"1069 136 OFFCURVE",
"1024 136 CURVE SMOOTH",
"703 136 LINE",
"703 659 LINE",
"947 825 LINE SMOOTH",
"984 850 OFFCURVE",
"989 875 OFFCURVE",
"961 916 CURVE SMOOTH",
"933 958 OFFCURVE",
"907 962 OFFCURVE",
"870 937 CURVE SMOOTH",
"703 823 LINE",
"703 1244 LINE SMOOTH",
"703 1294 OFFCURVE",
"685 1312 OFFCURVE",
"640 1312 CURVE SMOOTH",
"280 1312 LINE SMOOTH",
"235 1312 OFFCURVE",
"217 1294 OFFCURVE",
"217 1244 CURVE SMOOTH",
"217 1194 OFFCURVE",
"235 1176 OFFCURVE",
"280 1176 CURVE SMOOTH",
"553 1176 LINE",
"553 721 LINE",
"301 550 LINE SMOOTH",
"264 525 OFFCURVE",
"259 500 OFFCURVE",
"287 459 CURVE SMOOTH",
"315 417 OFFCURVE",
"341 413 OFFCURVE",
"378 438 CURVE SMOOTH",
"553 557 LINE"
);
}
);
width = 1228;
},
{
layerId = "8538028E-5D6C-4318-9676-30148CDA39CA";
name = Bold;
paths = (
{
closed = 1;
nodes = (
"493 205 LINE",
"220 205 LINE SMOOTH",
"175 205 OFFCURVE",
"157 187 OFFCURVE",
"157 102 CURVE SMOOTH",
"157 17 OFFCURVE",
"175 0 OFFCURVE",
"220 0 CURVE SMOOTH",
"1024 0 LINE SMOOTH",
"1069 0 OFFCURVE",
"1087 17 OFFCURVE",
"1087 102 CURVE SMOOTH",
"1087 187 OFFCURVE",
"1069 205 OFFCURVE",
"1024 205 CURVE SMOOTH",
"743 205 LINE",
"743 641 LINE",
"995 791 LINE SMOOTH",
"1033 814 OFFCURVE",
"1040 838 OFFCURVE",
"997 911 CURVE SMOOTH",
"953 984 OFFCURVE",
"929 990 OFFCURVE",
"890 967 CURVE SMOOTH",
"743 879 LINE",
"743 1249 LINE SMOOTH",
"743 1294 OFFCURVE",
"725 1312 OFFCURVE",
"680 1312 CURVE SMOOTH",
"260 1312 LINE SMOOTH",
"215 1312 OFFCURVE",
"197 1294 OFFCURVE",
"197 1209 CURVE SMOOTH",
"197 1124 OFFCURVE",
"215 1107 OFFCURVE",
"260 1107 CURVE SMOOTH",
"493 1107 LINE",
"493 731 LINE",
"235 578 LINE SMOOTH",
"196 555 OFFCURVE",
"190 530 OFFCURVE",
"233 457 CURVE SMOOTH",
"277 384 OFFCURVE",
"301 379 OFFCURVE",
"339 402 CURVE SMOOTH",
"493 493 LINE"
);
}
);
width = 1228;
}
);
unicode = 0142;
},
{
glyphname = m;
lastChange = "2014-11-13 04:54:09 -0700";
layers = (
{
layerId = UUID0;
name = Regular;
paths = (
{
closed = 1;
nodes = (
"830 946 OFFCURVE",
"752 887 OFFCURVE",
"692 765 CURVE",
"667 888 OFFCURVE",
"591 946 OFFCURVE",
"504 946 CURVE SMOOTH",
"413 946 OFFCURVE",
"329 885 OFFCURVE",
"271 757 CURVE",
"271 856 LINE SMOOTH",
"271 906 OFFCURVE",
"253 924 OFFCURVE",
"208 924 CURVE SMOOTH",
"59 924 LINE SMOOTH",
"14 924 OFFCURVE",
"-4 906 OFFCURVE",
"-4 856 CURVE SMOOTH",
"-4 806 OFFCURVE",
"14 788 OFFCURVE",
"59 788 CURVE SMOOTH",
"141 788 LINE",
"141 136 LINE",
"59 136 LINE SMOOTH",
"14 136 OFFCURVE",
"-4 118 OFFCURVE",
"-4 68 CURVE SMOOTH",
"-4 18 OFFCURVE",
"14 0 OFFCURVE",
"59 0 CURVE SMOOTH",
"343 0 LINE SMOOTH",
"388 0 OFFCURVE",
"406 18 OFFCURVE",
"406 68 CURVE SMOOTH",
"406 118 OFFCURVE",
"388 136 OFFCURVE",
"343 136 CURVE SMOOTH",
"291 136 LINE",
"291 457 LINE SMOOTH",
"291 659 OFFCURVE",
"370 798 OFFCURVE",
"465 798 CURVE SMOOTH",
"533 798 OFFCURVE",
"560 749 OFFCURVE",
"560 660 CURVE SMOOTH",
"560 68 LINE SMOOTH",
"560 18 OFFCURVE",
"578 0 OFFCURVE",
"623 0 CURVE SMOOTH",
"767 0 LINE SMOOTH",
"812 0 OFFCURVE",
"830 18 OFFCURVE",
"830 68 CURVE SMOOTH",
"830 118 OFFCURVE",
"812 136 OFFCURVE",
"767 136 CURVE SMOOTH",
"710 136 LINE",
"710 457 LINE SMOOTH",
"710 659 OFFCURVE",
"789 798 OFFCURVE",
"884 798 CURVE SMOOTH",
"952 798 OFFCURVE",
"979 749 OFFCURVE",
"979 660 CURVE SMOOTH",
"979 68 LINE SMOOTH",
"979 18 OFFCURVE",
"997 0 OFFCURVE",
"1042 0 CURVE SMOOTH",
"1191 0 LINE SMOOTH",
"1236 0 OFFCURVE",
"1254 18 OFFCURVE",
"1254 68 CURVE SMOOTH",
"1254 118 OFFCURVE",
"1236 136 OFFCURVE",
"1191 136 CURVE SMOOTH",
"1129 136 LINE",
"1129 678 LINE SMOOTH",
"1129 861 OFFCURVE",
"1036 946 OFFCURVE",
"922 946 CURVE SMOOTH"
);
}
);
width = 1228;
},
{
layerId = "8538028E-5D6C-4318-9676-30148CDA39CA";
name = Bold;
paths = (
{
closed = 1;
nodes = (
"872 946 OFFCURVE",
"789 878 OFFCURVE",
"727 743 CURVE",
"700 871 OFFCURVE",
"640 946 OFFCURVE",
"536 946 CURVE SMOOTH",
"436 946 OFFCURVE",
"349 869 OFFCURVE",
"286 717 CURVE",
"286 861 LINE SMOOTH",
"286 906 OFFCURVE",
"268 924 OFFCURVE",
"223 924 CURVE SMOOTH",
"49 924 LINE SMOOTH",
"4 924 OFFCURVE",
"-14 906 OFFCURVE",
"-14 821 CURVE SMOOTH",
"-14 736 OFFCURVE",
"4 719 OFFCURVE",
"49 719 CURVE SMOOTH",
"106 719 LINE",
"106 63 LINE SMOOTH",
"106 18 OFFCURVE",
"124 0 OFFCURVE",
"169 0 CURVE SMOOTH",
"293 0 LINE SMOOTH",
"338 0 OFFCURVE",
"356 18 OFFCURVE",
"356 63 CURVE SMOOTH",
"356 403 LINE SMOOTH",
"356 595 OFFCURVE",
"397 689 OFFCURVE",
"458 689 CURVE SMOOTH",
"495 689 OFFCURVE",
"510 655 OFFCURVE",
"510 586 CURVE SMOOTH",
"510 63 LINE SMOOTH",
"510 18 OFFCURVE",
"528 0 OFFCURVE",
"573 0 CURVE SMOOTH",
"697 0 LINE SMOOTH",
"742 0 OFFCURVE",
"760 18 OFFCURVE",
"760 63 CURVE SMOOTH",
"760 403 LINE SMOOTH",
"760 595 OFFCURVE",
"801 689 OFFCURVE",
"862 689 CURVE SMOOTH",
"899 689 OFFCURVE",
"914 655 OFFCURVE",
"914 586 CURVE SMOOTH",
"914 63 LINE SMOOTH",
"914 18 OFFCURVE",
"932 0 OFFCURVE",
"977 0 CURVE SMOOTH",
"1101 0 LINE SMOOTH",
"1146 0 OFFCURVE",
"1164 18 OFFCURVE",
"1164 63 CURVE SMOOTH",
"1164 643 LINE SMOOTH",
"1164 855 OFFCURVE",
"1083 946 OFFCURVE",
"966 946 CURVE SMOOTH"
);
}
);
width = 1228;
}
);
unicode = 006D;
},
{
glyphname = n;
lastChange = "2014-11-13 04:54:09 -0700";
layers = (
{
layerId = UUID0;
name = Regular;
paths = (
{
closed = 1;
nodes = (
"242 136 LINE",
"160 136 LINE SMOOTH",
"115 136 OFFCURVE",
"97 118 OFFCURVE",
"97 68 CURVE SMOOTH",
"97 18 OFFCURVE",
"115 0 OFFCURVE",
"160 0 CURVE SMOOTH",
"484 0 LINE SMOOTH",
"529 0 OFFCURVE",
"547 18 OFFCURVE",
"547 68 CURVE SMOOTH",
"547 118 OFFCURVE",
"529 136 OFFCURVE",
"484 136 CURVE SMOOTH",
"392 136 LINE",
"392 422 LINE SMOOTH",
"392 640 OFFCURVE",
"541 798 OFFCURVE",
"712 798 CURVE SMOOTH",
"821 798 OFFCURVE",
"874 720 OFFCURVE",
"874 605 CURVE SMOOTH",
"874 136 LINE",
"782 136 LINE SMOOTH",
"737 136 OFFCURVE",
"719 118 OFFCURVE",
"719 68 CURVE SMOOTH",
"719 18 OFFCURVE",
"737 0 OFFCURVE",
"782 0 CURVE SMOOTH",
"1106 0 LINE SMOOTH",
"1151 0 OFFCURVE",
"1169 18 OFFCURVE",
"1169 68 CURVE SMOOTH",
"1169 118 OFFCURVE",
"1151 136 OFFCURVE",
"1106 136 CURVE SMOOTH",
"1024 136 LINE",
"1024 620 LINE SMOOTH",
"1024 820 OFFCURVE",
"911 946 OFFCURVE",
"727 946 CURVE SMOOTH",
"591 946 OFFCURVE",
"470 872 OFFCURVE",
"382 736 CURVE",
"382 856 LINE SMOOTH",
"382 906 OFFCURVE",
"364 924 OFFCURVE",
"319 924 CURVE SMOOTH",
"140 924 LINE SMOOTH",
"95 924 OFFCURVE",
"77 906 OFFCURVE",
"77 856 CURVE SMOOTH",
"77 806 OFFCURVE",
"95 788 OFFCURVE",
"140 788 CURVE SMOOTH",
"242 788 LINE"
);
}
);
width = 1228;
},
{
layerId = "8538028E-5D6C-4318-9676-30148CDA39CA";
name = Bold;
paths = (
{
closed = 1;
nodes = (
"217 205 LINE",
"140 205 LINE SMOOTH",
"95 205 OFFCURVE",
"77 187 OFFCURVE",
"77 102 CURVE SMOOTH",
"77 17 OFFCURVE",
"95 0 OFFCURVE",
"140 0 CURVE SMOOTH",
"514 0 LINE SMOOTH",
"559 0 OFFCURVE",
"577 17 OFFCURVE",
"577 102 CURVE SMOOTH",
"577 187 OFFCURVE",
"559 205 OFFCURVE",
"514 205 CURVE SMOOTH",
"467 205 LINE",
"467 368 LINE SMOOTH",
"467 556 OFFCURVE",
"573 719 OFFCURVE",
"692 719 CURVE SMOOTH",
"780 719 OFFCURVE",
"809 659 OFFCURVE",
"809 561 CURVE SMOOTH",
"809 205 LINE",
"762 205 LINE SMOOTH",
"717 205 OFFCURVE",
"699 187 OFFCURVE",
"699 102 CURVE SMOOTH",
"699 17 OFFCURVE",
"717 0 OFFCURVE",
"762 0 CURVE SMOOTH",
"1136 0 LINE SMOOTH",
"1181 0 OFFCURVE",
"1199 17 OFFCURVE",
"1199 102 CURVE SMOOTH",
"1199 187 OFFCURVE",
"1181 205 OFFCURVE",
"1136 205 CURVE SMOOTH",
"1059 205 LINE",
"1059 620 LINE SMOOTH",
"1059 820 OFFCURVE",
"941 946 OFFCURVE",
"757 946 CURVE SMOOTH",
"632 946 OFFCURVE",
"520 878 OFFCURVE",
"427 716 CURVE",
"427 861 LINE SMOOTH",
"427 906 OFFCURVE",
"409 924 OFFCURVE",
"364 924 CURVE SMOOTH",
"120 924 LINE SMOOTH",
"75 924 OFFCURVE",
"57 906 OFFCURVE",
"57 821 CURVE SMOOTH",
"57 736 OFFCURVE",
"75 719 OFFCURVE",
"120 719 CURVE SMOOTH",
"217 719 LINE"
);
}
);
width = 1228;
}
);
unicode = 006E;
},
{
color = 3;
glyphname = eng;
lastChange = "2014-11-13 04:54:09 -0700";
layers = (
{
components = (
{
name = n;
transform = "{1, 0, 0, 1, 0, 0}";
}
);
layerId = UUID0;
name = Regular;
paths = (
{
closed = 1;
nodes = (
"874 193 LINE",
"874 -112 LINE SMOOTH",
"874 -225 OFFCURVE",
"834 -269 OFFCURVE",
"752 -269 CURVE SMOOTH",
"692 -269 OFFCURVE",
"628 -251 OFFCURVE",
"575 -229 CURVE SMOOTH",
"546 -217 OFFCURVE",
"515 -217 OFFCURVE",
"492 -270 CURVE SMOOTH",
"470 -320 OFFCURVE",
"482 -348 OFFCURVE",
"520 -365 CURVE SMOOTH",
"588 -395 OFFCURVE",
"671 -415 OFFCURVE",
"751 -415 CURVE SMOOTH",
"927 -415 OFFCURVE",
"1024 -319 OFFCURVE",
"1024 -140 CURVE SMOOTH",
"1024 193 LINE"
);
}
);
width = 1228;
},
{
components = (
{
name = n;
transform = "{1, 0, 0, 1, 0, 0}";
}
);
layerId = "8538028E-5D6C-4318-9676-30148CDA39CA";
name = Bold;
paths = (
{
closed = 1;
nodes = (
"809 331 LINE",
"809 -44 LINE SMOOTH",
"809 -140 OFFCURVE",
"771 -178 OFFCURVE",
"690 -178 CURVE SMOOTH",
"653 -178 OFFCURVE",
"597 -167 OFFCURVE",
"549 -152 CURVE SMOOTH",
"508 -139 OFFCURVE",
"476 -158 OFFCURVE",
"455 -240 CURVE SMOOTH",
"434 -324 OFFCURVE",
"444 -358 OFFCURVE",
"488 -375 CURVE SMOOTH",
"556 -401 OFFCURVE",
"632 -415 OFFCURVE",
"697 -415 CURVE SMOOTH",
"936 -415 OFFCURVE",
"1059 -297 OFFCURVE",
"1059 -60 CURVE SMOOTH",
"1059 331 LINE"
);
}
);
width = 1228;
}
);
unicode = 014B;
},
